<svg xmlns="http://www.w3.org/2000/svg" viewBox="0 0 353.44 1201.55"><defs><style>.cls-1{fill:#9d9d9d;}</style></defs><title>drawing</title><g id="Layer_2" data-name="Layer 2"><g id="Layer_1-2" data-name="Layer 1"><path class="cls-1" d="M320,407.25c-4.1.7-7.87,1.12-11.49-2.24-3.05-2.84-4.32-1.14-7.57,1.62-3.51,3-5.1,9.14-11.43,8.29l.11.12c.82-1.42,1.63-2.86,2.47-4.26,1.74-2.88,3.6-5.68,5.17-8.64a2.78,2.78,0,0,0-.66-2.64c-3.17-1.63-6.37-3.69-9.79-4.27-6-1-9.9,2.43-13.29,7.64-2.17,3.33-6.39,5.3-9.62,8-1.13.92-3,2.19-2.88,3.1a9.33,9.33,0,0,0,2.63,4.63c.62.67,2.17.39,3.15.86a11,11,0,0,1,2.24,1.95c-.79.63-1.53,1.71-2.39,1.82a29.77,29.77,0,0,1-6.26.05,16.73,16.73,0,0,0-11.72,3.47c-2.21,1.62-4.75,2.79-7,4.29a10.31,10.31,0,0,0-3.26,2.87c-2.14,3.54-1,5.43,3,5.61a26.35,26.35,0,0,1,2.65.36l0,1.34c-4.71-.26-9.44-.33-14.12-.83-10.62-1.12-21.28-3.53-31.43,2.27-.6.34-2.8-.72-2.77-.9.32-2.14.39-5.61,1.57-6.08,3-1.17,6.32-3.6,9.78-.8a1,1,0,0,0,.81.17c6-2,12.51.12,18.38-3.39,3.91-2.34,8.66-3.27,13-4.89a13.28,13.28,0,0,0,2.26-1.38c-.47-.74-.78-1.81-1.46-2.15a86.19,86.19,0,0,0-8.16-3.63c-4.88-1.85-9.8-3.62-14.77-5.24a5.09,5.09,0,0,0-3.79.08c-3.11,2-5.84,4.54-9,6.49a58.09,58.09,0,0,1-10.7,5.61c-2.74,1-3.67,2.21-2.89,4.85.63,2.15,0,3.34-2.21,4.17-.68.25-1.39,2.49-1,3.21,1.16,2.1,2.88,3.88,4.9,6.46a25,25,0,0,1-4.43,1.58c-4.17.62-8.74-1.08-12.45,2.24a1.57,1.57,0,0,1-1.22.08l-23.68-6.65c-.47-.13-1.13-.33-1.45-.12-1.82,1.2-3.83,1.67-4-1.05-.06-1.36,1.78-3.73,3.16-4.07,4.39-1.11,9-1.43,13.47-2.18,1-.16,2.63-.72,2.71-1.28a4.31,4.31,0,0,0-1.13-3.19c-2.13-2.18-4.37-4.13-7.95-3.72-1.62.18-3.37-1-5.1-1.4-3.14-.69-6.32-1.23-9.48-1.83l.11.08c0-7.78-5.74-12.77-13.29-14.73-10.68-2.76-20.33-1.26-30,3.81-2.65,1.4-6.39.68-9.62,1-3.41.36-6.82.73-10.19,1.35-.5.09-1.29,2-1,2.29a13,13,0,0,0,3.7,3.36c2.52,1.35,5.24,2.33,8.5,3.74-3.15,2.84-5.07,1.83-7.25.68a14.67,14.67,0,0,0-6.15-2.06c-10.11-.26-19-3.81-27.23-9.38-3.4-2.29-4.57-4.86-2.82-8.78.53-1.2.56-3.8-.09-4.17-4.71-2.7-5.12-8.24-8.15-12.05-1.49-1.87-.83-6.08,0-8.92.6-2.14,3.16-3.67,4.49-5.7A8.13,8.13,0,0,0,43.1,370c.1-5.17,1-6.26,6-7.08.8-.13,2-.26,2.29-.8,3.54-5.66,10-4.51,15.11-6.24,2.82-1,6.48.6,9.77,1,.83.09,2,.38,2.45,0,3.82-3.66,9.08-3.6,13.53-5.57,1-.45,1.81-2,2.15-3.21,1.47-5.2,4.28-6.26,8.54-3,.74,1.2,1.18,2.93,2.26,3.51a43.3,43.3,0,0,1,14.78,13c.5.69,1.62.9,2.35,1.47a12.35,12.35,0,0,1,2.26,2.19c1.6,2.19,2.87,4.64,4.66,6.64,3.24,3.61,7.88,4,12.15,1.55,2.65-1.5,2.54-3.08.43-4.83-4.81-4-9.64-8-14.54-11.92a7.09,7.09,0,0,0-3-1.08c-3.42-.64-5-2.82-3.42-5.69.77-1.38,3.08-1.86,4.63-2.85,1.11-.72,2.11-1.61,3.16-2.43-1.2-.65-2.36-1.71-3.63-1.87-2.48-.3-5,.11-7.54-.14-2.93-.29-5.43,0-7.56,2.35s-4.64,2.13-7,.22c0-3.2,1-5.52,4.71-5.57,5.65-.09,11.33-.52,17-.08,4.64.37,8.39.14,12.64-2.73a43.37,43.37,0,0,1,18.29-7.52c1.44-.19,2.78-1.12,4.19-1.61a5.53,5.53,0,0,1,2.79-.58c6.63,1.63,13.37,3,19.78,5.3,3.29,1.19,5.94,4.14,9.18,6.51,4.26-5.42,9.17-4.59,14.2-.68.11.09.21.23.33.26,6.22,1.3,12.43,2.7,18.69,3.76,1,.18,3.26-1,3.32-1.73.11-1.25-.94-2.65-1.65-3.91-.82-1.45-1.8-2.8-2.71-4.2,1.78-.44,3.56-1.24,5.34-1.21a9.89,9.89,0,0,1,4.68,1.52c6.58,3.92,13.15,4.75,21,3.23,8.58-1.67,17.68-1.68,25.93,3,6.31,3.57,12.52,2.24,18.8-.54,9.09-4,18.19-5,27.4.16,2,1.11,4.89.43,7.33.86a12.71,12.71,0,0,1,3.26,1.66c-1.13.5-2.43,1.63-3.38,1.4-4.95-1.22-10.19,1.07-15.14-2.65-3.76-2.82-10.56-.42-13,3h-9c4.57,5,6.64,4.63,8.86-.11,3.23-.26,6.25-.29,8.77,2.53.95,1.06,3,1.13,4.57,1.65s3.31.75,4.6,1.64c.92.63,1.23,2.15,1.81,3.27-1.24.17-2.55.7-3.71.47-9.12-1.81-18.07-2.69-26.69,2.19-1.58.9-3.85.49-5.64,1.14-1.22.45-2.15,1.68-3.21,2.56,1.1,1.06,2.07,2.78,3.33,3,4.07.84,8.27,1,12.38,1.69,1.22.2,2.86.85,3.38,1.81,1.81,3.31,4.82,3.13,7.23,2,2.21-1,3.24-.66,4.56.91,1,1.16,1.93,2.55,3.21,3.17a12.57,12.57,0,0,0,5.17,1.08c1.63,0,3.26-.66,4.91-.81,2.27-.21,3.69,1,3.21,3.23-.67,3-2.11,5.85-2.77,8.86-1.63,7.36-7.28,10.46-13.34,13.29a15.36,15.36,0,0,0-2.94,2.33c-2.2,1.8-2.12,3.28.41,4.81a54.82,54.82,0,0,1,5,3.87Zm-17-32.74.12.12c-1.51-3.52-4.31-4-7.19-2.32-2.49,1.41-4.52,3.62-6.8,5.43s-4.5,3.41-6.73,5.15c-.89.7-2.55,1.76-2.42,2.18.43,1.33,1.32,3.09,2.45,3.48,3.73,1.3,7.66,2.05,11.49,3.07,1.45.38,2.84,1,4.27,1.4,6.4,1.92,12.5,3.43,19.15-.41,3.25-1.87,4-5,6.26-7s3.19-4.5,2-7a6.92,6.92,0,0,0-7.06-4.14C313.37,374.68,308.18,374.5,303,374.51Zm-200.17,18c-3.34,3.05-9.17,2.5-12.64-.68-2-1.8-1.94-3,.43-4.46,1.31-.79,2.23-2.22,3.32-3.37l-.4-1c-4.12.15-7.79-.43-9-5a.42.42,0,0,0-.33-.23c-5.09.72-10.86.26-15,2.63-2.38,1.37-3.71,2.19-6.47,2-1.85-.15-3.87,1.71-5.81,2.67,1.94,2.68,3.32,6.65,5.93,7.77,6.46,2.79,13.53,4.15,20.24,6.41,1,.35,1.68,2.41,2,3.79.09.37-2.18,1.88-2.43,1.68-3.39-2.69-8.92.13-11.59-4.62-.38-.67-2.93-.73-4.14-.24a69.75,69.75,0,0,0-11.1,5.38c-1.51,1-3.26,4.58-3,4.84a73.66,73.66,0,0,0,10,7.4c.69.43,2.28-.49,3.43-.88,3.19-1.09,6.34-2.33,9.56-3.33s6.59-1.68,9.81-2.75c.62-.21,1.06-1.52,1.24-2.4.94-4.52,3-5.59,7.47-4.23a17,17,0,0,0,6.08.77,35.57,35.57,0,0,0,7.13-1.64,19.82,19.82,0,0,0,3.39-1.75c-.72-.84-1.49-1.64-2.14-2.54a4.81,4.81,0,0,1-1.15-2.34c0-.41,1.2-1.22,1.85-1.2a10.87,10.87,0,0,1,4.8.78c4.85,2.64,8.59,7.35,14.71,7.69.58,0,1,1.39,1.68,1.67,4.3,1.72,8.65,3.32,13,4.92a1,1,0,0,0,.76-.29c3.87-3.49,9.82-2,13.7-6.1,2.62-2.78,6.65-4.2,9.9-6.44.73-.5,1-1.87,1.19-2.89,1.2-6.37-4.83-8-8-11.16-2.41-2.4-6.57-3.2-10.1-4.26-2.22-.67-4.87-1.8-6.76,1.24-.32.51-2.65.58-3.18,0-3-3.23-6.38-1.86-9.69-.94-4.33,1.2-8.73,3.76-12.93,3.46-7.92-.56-13.51,3.13-19.69,7.47ZM185,378.08l-.28-1a37.93,37.93,0,0,0-6.63,2c-.66.32-1.11,3-.64,3.4,3.55,3.12,7.38,5.92,11.08,8.87,2.82,2.26,6.47,2.74,9.46,4.28,4.85,2.5,9.08,6.15,14.43,8,4.82,1.71,6.42,1.62,9.59-2.27,4.42-5.42,8.19-11.44,14.79-14.75a10.62,10.62,0,0,0,4.07-3.94c.5-.85.07-3.36-.58-3.63a84.56,84.56,0,0,0-12.68-4.49c-6.75-1.66-13.25-3.44-20.7-2.5-6.6.83-12.81,1.38-18.52,4.95A13.67,13.67,0,0,1,185,378.08ZM172.52,427.8l.32-1.31a47.5,47.5,0,0,0,7.55-.09c2.58-.42,5-1.61,7.57-2.3a13.46,13.46,0,0,0,5.61-3.19c2.92-2.5,5.58-6.29,10.62-6.39,2.33,0,4.65-2.77,6.84-4.46.22-.17-.29-2.09-.8-2.28-3.12-1.2-5.64-4.19-9.61-3a4.74,4.74,0,0,1-3.42-1.05c-3.54-2.55-6.91-5.33-10.4-8-6.09-4.6-10-3.66-14.71,2.66a38.42,38.42,0,0,1-8.88,8.71c-2.9,2-6.63,2.71-10.05,3.83-2.79.91-4.77,2.93-3.68,5.5s3.27,5.63,5.71,6.6C160.72,425.23,166.71,426.28,172.52,427.8Zm74.12-9.8c.72-.54,1.73-1.29,2.72-2.07,2.36-1.83,4.68-3.69,7.05-5.5,2.81-2.13,5.89-4,8.43-6.4a67.7,67.7,0,0,0,7.44-8.75,5.65,5.65,0,0,0,1.1-4.23c-.29-.95-2.2-1.56-3.48-2-2.8-1-6.69-1.08-8.26-3-2.82-3.5-6.19-3.66-9.35-2.68-4.75,1.47-9.18,4-13.7,6.19-.51.24-.66,1.18-1,1.76-3.17,5-6.81,9.55-12.17,12.52-3.6,2-3.88,5.83-.41,7.92,2.61,1.58,5.78,2.28,8.76,3.16s6.27,1.56,9.41,2.33Zm-56.19-49.59a21.69,21.69,0,0,0-2.48-3.2c-3.9-3.18-7.75-6.44-11.86-9.32-2.74-1.93-4.7-5.3-9.48-3.57-2.72,1-6.42-.68-9.66-1.24-4-.69-8.37.76-12.06-2.26-.83-.69-2.8-.49-4-.07-1.64.55-2.79,1.06-4.78.34-1.27-.46-4.31,1.38-5.12,2.93-1.12,2.14,1.13,2.78,3.08,3.22a8.88,8.88,0,0,1,3.47,2c6.25,5.2,12.4,10.52,18.68,15.68,1,.83,2.51,1.06,3.75,1.64s2.48.87,3.17,1.74c2.35,3,5,3,7.59.79,4.66-3.94,10.08-5.37,15.95-6C187.88,370.9,189,369.5,190.45,368.41Zm78.27,14.92c1.63-.6,4-1.07,5.93-2.24a56.31,56.31,0,0,0,8.72-6.37c1.56-1.43,2.39-3.67,3.55-5.54-1.49-.74-3-1.55-4.49-2.2-1-.42-2.19-.46-3.14-1-5-2.64-10.16-4.92-16-4.88-.74,0-1.46-.85-2.23-.95-3.06-.4-6.5-1.68-9.13-.74a28.61,28.61,0,0,1-12.8,1.94c-2-.21-4.35.72-6.28,1.67-.7.35-1.27,2.92-.83,3.33,3.89,3.6,6.7,9.11,13.39,8.22a5.39,5.39,0,0,1,2.88.32c5.24,2.44,10.4,5.06,15.65,7.48C265.12,383,266.6,383,268.72,383.33ZM66.46,364.87c-2.89.31-5.63.25-8.13,1-2,.6-3.78,2.17-5.65,3.31,1.88,1.16,3.63,2.78,5.67,3.38,6.33,1.86,8.44.56,10.19-5.58.79-2.76,5.15-5.28,6.91-3.73,3.42,3,6.49,6.42,9.8,9.57a5.21,5.21,0,0,0,2.94,1.67c2.3,0,4.1.23,4.92,2.84a3,3,0,0,0,2.29,1.43c3,.12,6.16-.67,8.6,2.11.32.36,1.77-.22,2.68-.45,2.08-.5,4.19-1.63,6.21-1.47,3.94.31,6.47-2,6.67-4.91.18-2.71-1.86-5.7-3.34-8.34-.91-1.64-2.63-2.81-3.93-4.25-.77-.85-1.42-1.81-2.86-3.67-.69,2.44-1.13,3.76-1.42,5.11-.26,1.2-.36,2.44-.53,3.67-1-.81-2.47-1.41-3.1-2.47-4.22-7.07-8.81-8.41-16.31-5.83a28.76,28.76,0,0,1-12.73,1.43C68.23,358.74,68.3,358.25,66.46,364.87ZM199.66,346l-.11.82a56.3,56.3,0,0,0-7.12.09c-1.1.14-2.94,1.28-2.92,1.91a5.4,5.4,0,0,0,1.87,3.64c2.32,1.83,5.27,2.94,7.39,5,3.34,3.18,6.46,6.3,11.61,5.59a2.72,2.72,0,0,1,1.93.64c4,3.43,6.12,1.83,9.28-2.44.69-.94,1.52-2.36,2.41-2.47,3.47-.41,7-.09,10.48-.63a7.41,7.41,0,0,0,4.35-2.92c.51-.72-.28-3.47-1-3.75A109.46,109.46,0,0,0,227,348.64a14.84,14.84,0,0,0-3.22-.74c-3.64-.07-7.29,0-10.93.06a15.37,15.37,0,0,1-2.82.27C206.56,347.59,203.12,346.79,199.66,346Zm79,10.07c1.64-1.21,4.17-2.1,4.79-3.73,1.22-3.15-1.39-4.6-4-5.67-3.88-1.56-8.19-2.61-11.42-5.06-5.41-4.09-10.45-.5-15.62-.33-.89,0-1.73,1.83-2.59,2.81a17.55,17.55,0,0,0,3.13,2.39c1.36.63,3.58.36,4.25,1.31,2.51,3.57,6,3.3,9.66,3.62,2.12.18,4.17,1.4,6.22,2.22C274.63,354.3,276.18,355,278.66,356.11ZM166.05,331.75c-1.75,1.7-3.86,3.1-4.93,5.06-.48.9.67,3.45,1.8,4.33,4,3.1,8.48,5.5,12.33,8.72,5.08,4.25,5.59-3.22,9-3.2.72,0,1.5-1.7,2.13-2.68a1.2,1.2,0,0,0-.34-1.13,82.3,82.3,0,0,0-8.64-6.21c-2.4-1.36-5.26-1.89-7.88-2.9A29,29,0,0,1,166.05,331.75Zm-4.68,110.5.38,1.2a45.43,45.43,0,0,0,4.69-.79c1-.27,1.92-1.28,2.91-1.34,3-.19,6.18-1.33,8.75,2,.7.91,3.94,0,6-.37a2.83,2.83,0,0,0,.58-2.4c-2.66-3.12-5.51-6.07-7.7-8.43-3.57,1.3-6.68,1.85-9.07,3.46S163.5,440,161.37,442.25ZM159.26,337c-4.37-.64-8.14-1.48-11.92-1.55-1,0-2.46,2.17-3,3.6-.26.73.9,2.55,1.84,3C151.19,344.43,155.92,342.76,159.26,337ZM50.45,387.92c-1.88-2.18-3.11-4.44-5-5.4-.82-.42-3,1.86-4.57,2.91,2.1,1.95,4.17,3.92,6.38,5.73C47.35,391.22,48.82,389.59,50.45,387.92Zm10.39,7.21c-3.37,0-5.94-.07-8.5.06-.48,0-1.32.83-1.3,1.24a3,3,0,0,0,1,2.07C54.12,400,58.55,398.67,60.84,395.13Z"/><path class="cls-1" d="M179.75,158.61c-1.05-4.41-5.78-5.88-10-3.4a52.75,52.75,0,0,1-7.52,3.2c-7.37,2.9-14.82,5.64-22.08,8.8-.92.4-1.39,3-1.25,4.44.59,6.46-1.54,11.38-7.31,14.55-.13.07-.33.09-.37.18-3.76,9.51-15.94,11.82-18.86,22.09-.24.81-1.64,1.27-1.93,2.1-.46,1.3-1.09,3.17-.52,4.12,2.71,4.52,3.68,8.75,1.93,14.18-1.19,3.68,0,8.18.3,12.3a39.73,39.73,0,0,0,.91,4.75c-3.86.63-4.63-.18-5.67-4.76-.56-2.48-1.55-4.86-2.06-7.35a4.32,4.32,0,0,1,.76-2.95c4-5.92,3.67-6.91-.45-12.93-1.12-1.64-.26-4.92.29-7.3.34-1.46,1.88-2.63,2.8-4,3.31-4.87,6.35-10,10-14.57a20.82,20.82,0,0,1,7.34-5.57c5.72-2.67,8.3-6.67,7.36-13-.5-3.37-.69-6.79-1.13-11.2,2.4-3.57,7.78-2.2,12-3.77,7.06-2.6,14.08-5.33,21.25-7.58,5.19-1.63,9.69-5.67,15.71-4.58,1.1.19,2.32-.29,4.1-.55-1-1.77-1.63-2.91-2.68-4.76,3.9-2.28,7.88-4.45,11.68-6.89,1.11-.72,2.46-2.25,2.41-3.35a104.07,104.07,0,0,0-1.59-14.08c-.18-1-2.49-2.5-3.45-2.27-5.39,1.3-9.88-1.34-14.75-2.58-3.84-1-7.92-1-11.89-1.5l.12.12c0-1.68,0-3.37-.11-5a4.92,4.92,0,0,0-.68-2.77c-3.4-3.8-6.44-8.25-10.6-11-5-3.24-10.52-5.55-15-9.72-.63-.59-2.16-.31-3.28-.28a22.48,22.48,0,0,1-16.11-6.26c-3.17-2.86-8.86-1.62-11.19,2.16-2.65,4.29-6.87,4.69-11.37,4.09l.12.12c1.09-1,2.23-2,3.27-3.06,1.39-1.43,3.23-2.71,3.94-4.44,1.71-4.17,4.44-5.59,9-4.24,2.36.69,5,.64,7.23,1.52a99.17,99.17,0,0,1,9.35,4.65c1.06.55,2.1,1.83,3.08,1.77a23.94,23.94,0,0,1,14.52,4.1c3.33,2.1,6.32,4.74,9.6,6.93,1.05.71,2.55.74,3.85,1.08a112.42,112.42,0,0,0,6.38,11c.6.84,4.6.62,4.7.23,1.55-5.51,3.74-3.21,6-.71,1.18,1.28,2.47,2.46,3.51,3.83,2.14,2.82,5.3,3.52,8.59,1.74a4.75,4.75,0,0,1,6.55,2.33c1.66,4.37,3.18,8.79,4.89,13.13.3.77,1.26,1.28,1.92,1.91.65-.76,1.79-1.47,1.86-2.28.26-2.63.13-5.31.15-8,0-6.19-1.48-12.63,3-18.12a3.55,3.55,0,0,0,.37-2c.07-9.8.25-19.61.1-29.41-.09-5.47-.65-6.05-6.27-5.75-4.74.25-7.63-2.45-9.87-5.63-3.48-4.93-6.42-10.18-13.42-11.84a24.33,24.33,0,0,1-3.15,4.15c-3.41,3-4.94,8.09-10.11,9.24-1.73.39-4.71,1.1-4.79,1.9a12.79,12.79,0,0,0,1.34,6.94c2.72,5.16,5.92,10.06,8.9,15.09,1.41,2.38.36,3.24-2,4.21-1.74.71-3.86,2.59-4.15,4.25-.55,3-1.72,4.21-4.62,4,.36-3.84-.72-7.88,3.66-10.79,1.17-.78,1.05-6.11-.34-7.52-2.45-2.49-3.06-5.38-4.2-8.24-.85-2.14-1.73-4.26-2.62-6.39s3-7.4,6-7.12c5.61.52,7.07-3.76,9-7.08,3.27-5.65,11.82-7.41,16.43-2.48,3.19,3.4,5.5,7.61,8.41,11.3a6.22,6.22,0,0,0,3.59,2.15,115.07,115.07,0,0,0,12.44,1.19,5.17,5.17,0,0,0,3.67-1.51c4.67-5.51,7.13-12,8.22-19.12.52-3.34,1.78-6.56,3-10.8,2.12,6.39.57,11.55-1.11,16.61a58.09,58.09,0,0,1-4.48,10.93c-2.22,3.85-5.27,7.21-7.81,10.89a8.12,8.12,0,0,0-1.57,4c-.17,4.75,0,9.52,0,14.29,0,3.41.87,5.6,4.93,4a3.55,3.55,0,0,1,1.66-.11c6.82.72,7.87-.06,9.28-7,1-4.85,5.7-8.37,10.12-7.49.78.16,2.06.51,2.16,1,.92,4.51,4.42,3.25,7.32,3.54,3.27.32,6.5,1.11,9.76,1.24.94,0,2.15-1.33,2.88-2.32,1-1.35,1.66-2.95,3.15-4.16.21,6,1.18,11.48-2.41,17.26-2.21,3.56-.69,9.45-.63,14.29,0,.07,3.1.62,4.33.05,3.35-1.57,6.4-3.76,9.71-5.41a7.87,7.87,0,0,1,4.87-.19,56.08,56.08,0,0,0-18.4,13.92,44.6,44.6,0,0,1,3.11,3.45c2.65,3.7,2.14,5.87-1.53,8.72a112.17,112.17,0,0,0-11.64,9.85c-.82.84.46,3.74.78,5.7.25,1.57.84,3.2.57,4.67-.09.5-2.37.69-3.66.81a1.83,1.83,0,0,1-1.34-.89c-1.48-2.75-3-5.51-4.24-8.36-.22-.5.31-1.63.82-2.11,1.48-1.38,2.94-3.11,4.74-3.75,3.47-1.24,4.67-5.5,9-5.79,2.63-.17,3.33-4.51,1.58-6.89a26,26,0,0,0-2.91-3.51c-3.13-2.89-3.44-5.59-1.24-8.93a10,10,0,0,0,1.68-4.75c.22-4.2.09-8.41,0-12.61s-2.13-6.74-6.4-6.42c-4.87.37-9.18-.32-13.28-3.08-2.43-1.64-3.93-1.24-4.93,2.26-1.63,5.69-3.46,11.53-8.18,15.69a3,3,0,0,1-2.71.47c-4.09-2.83-6.21-2.14-9.15,2.51-3.64,5.78-4.42,11.94-4.26,18.63.11,4.31-1.4,8.64-2.07,13-.39,2.5-.55,5-.88,8.23-2.41,1-5.08,3-3.88,7,.17.58,3.25.89,4.64.38,3.71-1.37,4.56-3.3,3.42-6.4,4.85-2.24,9,.75,13,2.34,3.52,1.4,6.4,3.34,10.5,1.73,2.62-1,5.69-1,6.12,3.32.08.79,1.43,1.43,2.15,2.17,1.12,1.15,2.2,2.33,3.3,3.49l.12-.11c-2.93,0-5.86-.09-8.77.08-3.72.22-5.13,2.69-2.74,5.5,2.64,3.1,4.14,7.69,9.51,8,1.5.08,2.89,2.24,4.32,3.45l.11-.1c-2.65-.05-5.29-.21-7.93-.12-8.72.28-14.45-5.28-14.69-14,0-1.56-1.19-3.1-1.89-4.63-.17-.35-.82-.59-.82-.89-.11-4.81-2.94-5.76-6.92-4.79s-5.59,3.94-6.38,7.6l.12-.12c-4.24,1-7.05,5.08-7.47,11-.14,1.94-.09,3.9-.12,5.85l.11-.11c-2,.1-4.09-.29-5.8.39-2.36.95-4.39,2.71-6.59,4.09-.86.53-1.8.95-2.7,1.43l-.78-.88,3.39-6.39c-3.58-1.33-2.78-8.78-9.33-6.68Zm18.11-1.84-2.68-2.37c-1.23,1.91-2.55,3.78-3.59,5.8-.15.29,1,1.27,1.59,1.94Z"/><path class="cls-1" d="M164.94,166.65a36.36,36.36,0,0,1-1.93,4.69c-3,5.21-6.42,10.2-9,15.58-1.87,3.85.16,6.75,4.36,7.57s6.67,3.47,6.53,7.82c-.17,5.64.54,10.48,5.45,14.44,2.48,2,3.72,5.65,5.23,8.7.66,1.34.58,3,.84,4.57l-6-.81c-.34.51-1.25,1.79-2.11,3.12-2.72,4.24-5.5,8.46-8.12,12.77-1.67,2.75-2.15,6.31.7,7.87,2.25,1.22,5.71.6,8.56.23a20.7,20.7,0,0,0,6.51-2.31A84.84,84.84,0,0,0,186,245c3.19-2.25,6-5.09,9.07-7.48,2.58-2,3.11-5.09.73-7.5-2-2.05-3.22-3.51-1-6.6,1.65-2.32,1.59-5.81,2.53-8.7a24.26,24.26,0,0,1,2.29-4.12l1.35.41a18.59,18.59,0,0,0,.58,3.44c.76,2.06,1.74,4,2.62,6.06a12.89,12.89,0,0,1,1.35,3.24c.59,4.76,0,9.49,2.8,14.12,1.57,2.63.88,6.87.54,10.33-.43,4.51,2.52,7.1,4.82,10.11a11.75,11.75,0,0,0,3,2.72c5.4,3.46,4.14,10.54,8.1,14.76a24.82,24.82,0,0,1,2.76,3.14A15.49,15.49,0,0,1,228.7,282c-1.14,0-3,.51-3.33,0-2.84-4.11-5.35-8.43-8.06-12.63-2.28-3.55-4.16-7.6-7.19-10.35-3.32-3-3.78-6.63-4.4-10.39-.35-2.19.16-4.56-.37-6.69-.39-1.61-1.67-4.08-2.78-4.21-1.93-.21-4.67-.72-5.78,2.56-.52,1.55-2.49,2.67-3.9,3.87-3.23,2.71-7.56,4.26-9.17,8.7a.9.9,0,0,1-.65.49c-7.72-.27-13.86,6.34-21.72,5.07-2.06-.33-4-1.57-5.91-2.63-2.34-1.31-4.38-3.4-6.86-4.2-3.43-1.11-4-6.35-8.49-5.5.19-1.11.37-2.22.55-3.32,1.52.33,3.28.28,4.52,1.06,2.72,1.72,5.23,3.84,8.73,2.75a5,5,0,0,0,2.64-1.72c1.44-2.31,2.59-4.8,3.85-7.21,2.8-5.4,5.61-10.79,8.1-15.57-3.74-6.35-8.57-11.21-7.68-18.6.3-2.57-1.18-4.12-3.86-4.57-2.42-.4-6.12,1-6.65-2.66a27.53,27.53,0,0,1,.5-11.3c1.25-4.22,3.85-8,5.86-12,1.75-3.5,4.23-6,8.41-6.19Z"/><path class="cls-1" d="M201.48,768.52a33.75,33.75,0,0,0,.45-4.11c0-1.19.09-2.66-.54-3.5-2.17-2.9-4.74-5.51-6.94-8.39-1.37-1.81-2.06-4.19-3.59-5.8-1.27-1.33-3.31-1.94-5-2.84-.89-.47-1.81-.89-2.72-1.33A19.43,19.43,0,0,1,185.3,740c1.45-1.23,3.31-2.07,4.53-3.47,2.83-3.25,1.57-6.44-1.69-9.14-4.64-3.84-10.17-7.1-11.64-13.87-.61-2.81-2.58-5.29-3.46-8.07-.33-1,.8-2.48,1.07-3.78.34-1.63.47-3.29.69-4.94a25.53,25.53,0,0,0-5.48.23c-1.21.29-2.2,1.5-3.7,2.6-.15-3,.07-5.67-.5-8.17s-1.91-5-2.93-7.44c-.31-.76-.95-1.49-.95-2.24,0-4.81-.89-9.15-6.86-11.53,3.42-2.4,6-4.6,8.86-6.1a11.4,11.4,0,0,0,6.37-10c-.05-3.64-.06-7.28-.1-10.92,0-.56.16-1.32-.13-1.65-4.8-5.36.06-6,3.53-7.28,1.11-.42,2.2-.88,4.24-1.69-1,2.75-1.16,5-2.38,6.43-3.78,4.35-2.12,9.3-2,14,0,.91,1.64,1.68,2.22,2.69.72,1.24,1.57,2.7,1.47,4-.05.68-2,1.62-3.11,1.75-5.8.68-10.62,6.72-9.1,12.45a77.2,77.2,0,0,0,5.67,15.3c.82,1.62,4.13,2.53,6.39,2.73,4.65.41,9.36.12,14.05.12l.2,1.41c-1,.43-2,1.22-3.08,1.23-4.7.07-7.29,3.77-9.44,6.71-1.4,1.9-.09,5.87.22,8.89.07.67,1.4,1.17,1.56,1.88,1.41,6.53,6.23,10.11,11.41,13.38,1.27.8,2.61,1.47,3.92,2.2,1.1.62,3.05,1.16,3.11,1.87a5,5,0,0,1-1.73,3.5c-4.62,4.12-4.93,6.62-1.17,11.93.48.68,1.31,1.5,1.22,2.14-.59,4.2,3,5.74,5.24,7.78a163.75,163.75,0,0,0,15.95,12.93c1.41,1,4.62,1.17,6,.23a85.46,85.46,0,0,0,12.89-10.56c1.71-1.73,2-4.87,2.9-7.37l1.46.23c.08,1.36.69,3,.14,4-3.12,5.86-6.13,11.82-13,14.47-3,1.14-5,4.63-8.84,3.65-.93-.24-2.29-.09-2.77-.67-4.19-5.16-9.83-3.58-15.16-3.47Z"/><path class="cls-1" d="M289.66,739.8c-.75-3-1.56-5.93-2.23-8.92-.39-1.72-1.18-3.7-.68-5.19,1.42-4.16-.05-7.77-1.76-11.2-.63-1.28-2.73-2-4.31-2.57-2.82-1-5.75-1.73-9.77-2.89-.33,1.4-1.38,3.76-1.36,6.11,0,4.81-1,9.14-4.43,12.56-1,1-2.75,1.3-4.16,1.92l.11.11,5.72-10.31c-1.65-7.89-2.32-16.33-11.81-20.4,9-5.57,7.14-15.22,9.89-23,.49-1.38-.55-3.93-1.72-5.13-3.25-3.34-7.14-5.57-12.19-5.15a44.42,44.42,0,0,1-8.38-.35c-1.1-.12-2.84-.76-3-1.48a5,5,0,0,1,1-3.68c3-4.07,1.89-14.54-2-17.28,4.24-1.27,5.86-.1,6.42,4,.23,1.71,1.41,3.28,2.12,4.92s1.94,3.3,1.9,4.93c0,1.21-1.88,2.28-2.62,3.59a8.59,8.59,0,0,0-.48,2.89c1.45.09,3,.54,4.32.18,3.68-1,7.27-2.31,10.9-3.5l-.11-.12c-.87,3.65,1,6.41,3.53,8.35,4.95,3.79,4,9.81,6,14.67.23.57-1.36,2.62-2.37,2.86-4.43,1-3.67,5.19-4.18,7.79a6.13,6.13,0,0,0,3.74,7,12.52,12.52,0,0,1,5.38,4.21c2.32,3.33,5.5,3.43,8.89,3.38,4.47-.06,8.94-.19,13.41-.28l-.11-.12c-.54,1.21-.78,2.75-1.68,3.57-4.8,4.33-5.81,13.47-1.83,18.24,3.36,4,2.54,7.71-2.27,10.2Z"/><path class="cls-1" d="M46.39,1128.35c-1.53,2-3.16,3.85-4.56,5.89a7.38,7.38,0,0,0-1.29,3.35c-.23,2.65-.06,5.32-.23,8-.2,3.2.52,5.66,3.84,7.06,1,.42,1.48,2,2.2,3.06-.86.53-1.84,1.63-2.55,1.47a5.92,5.92,0,0,1-3.36-2.07c-2-2.91-3.43-6.28-5.64-9-2-2.51-2-4.56-.47-7.17a14.87,14.87,0,0,0,2-5.28c.38-2.44-.41-4.3-3.46-4.65-1.39-.16-2.6-1.54-4-2-7-2.26-13.75,2.76-16.36,9.5-3,7.76,1.69,11.81,5.37,16.77.72,1,1.39,2,2.84,4-2.09-.6-3.14-.69-3.94-1.17q-7.46-4.47-14.8-9.11a3.23,3.23,0,0,1-1.41-1.93c-1.23-7.92-.58-15.46,5.19-21.68,4.72-5.09,10.73-4.82,16.69-3.28,2.69.69,5.37,1.19,7.69,4,1.8,2.18,6.63,1.95,10.15,2.62a45.05,45.05,0,0,0,5.35.44Zm-38.66-1.57c1.07,2,1.45,3.7,2.22,3.9a4.55,4.55,0,0,0,3.49-1.12,11.94,11.94,0,0,0,3.27-4.25c.71-1.73,1-4.85-1.88-4C12.21,1122,10.16,1124.79,7.73,1126.78Z"/><path class="cls-1" d="M113.3,1165.8c.77-3.29,1-6.85,2.49-9.8,1.19-2.41,1.19-3.74-.79-5.33-2.19-1.74-4.09-4.75-6.47-5.16-5.17-.88-10.38-3.31-15.92-.34-6.44,3.44-12.29,11.83-11.5,18.39.31,2.57,1.65,5,2.46,7.33-5.45-.14-6.75-1.3-6.81-6.73,0-2.66.18-5.33,0-8,0-1-.76-2.6-1.35-2.69-.91-.14-2,.81-3,1.28l-6.28,2.93-1.27-1.37a22.65,22.65,0,0,1,2-3.21c1.89-2.2,3.85-4.35,5.94-6.35.81-.77,2.09-1,3.12-1.61.78-.44,2.17-1.06,2.12-1.47a4,4,0,0,0-1.51-2.56c-2.5-1.71-5.22-3.15-5.33-6.75,3.83-.61,8.43,3.07,10.29,7.77,2.41-.28,4.68-.73,7-.79,5.31-.12,10.64,0,16-.08,3.21,0,6,0,8.6,2.9,3,3.38,8.87,1.07,11.58-4.48,1.4-2.87,3-3.09,6.22-1.81-1.49,2-2.65,3.8-4.06,5.37-2.69,3-3.22,10.66-1,13.91a27.81,27.81,0,0,1,2.9,5.4c.27.67-.41,1.72-.65,2.59-.95-.35-2.24-.42-2.8-1.1-3-3.58-5.4-3.61-8.51-.17-.83.92-2.34,1.22-3.54,1.81Z"/><path class="cls-1" d="M221.22,995.86c.83-2.68,2-5.31,2.41-8.05.63-4.62,2.13-9.78.73-13.85a22.22,22.22,0,0,0-12.2-12.88c-1.84-.82-4.33-2.66-5.47-2.06a37.69,37.69,0,0,0-9.2,7.1c-2.59,2.69-4,2.83-6.44-.2-1.94-2.44-4-5.1-6.56-6.63-1.53-.91-4.24.18-7,.42,0,.07-.58-1-.32-1.3,1.9-2,3.67-4.51,6.05-5.53,3.65-1.55,5.55-4,6-7.59.39-3,1.88-4.22,4.57-4.42a35.73,35.73,0,0,1,6.29-.07c3.38.35,5.64,1.58,5.18,5.86-.63,5.92,2.45,8.47,8.32,10.73a25.61,25.61,0,0,1,10.45,8c3.25,4.18,5.77,9.22,4.94,15a20.76,20.76,0,0,1-1.25,5.21c-1.56,3.61-3.38,7.11-5.09,10.66ZM202.12,953c-1-1.81-1.63-4-2.56-4.17-1.4-.23-3.74.53-4.42,1.65a21.17,21.17,0,0,0-2.29,7.16c-.18,1,.58,2.92,1.21,3.07,1.31.29,3.45.18,4.14-.67C199.82,958,200.78,955.5,202.12,953Z"/><path class="cls-1" d="M310.71,1192.86c-2.9.7-4.29.19-5.15-2.49a31.79,31.79,0,0,0-3.75-7.25c-1.53-2.39-5.11-2.31-8.2-.67-4.64,2.46-9.59,4.34-14.2,6.85-3,1.63-5.61,4-8.42,5.92a15.73,15.73,0,0,1-3.45,2.09c-.52.19-1.89-.45-2-.88-.15-.81.06-2.19.63-2.56,2.82-1.82,5.75-3.48,8.74-5,7.45-3.83,15-7.54,22.42-11.38.84-.43,2-1.36,2-2s-1.18-1.5-1.88-2.22c-.18-.19-.6-.18-.73-.38-.93-1.44-1.81-2.92-2.71-4.38a24.35,24.35,0,0,1,4.91-1c1.13,0,2.28.81,4,1.47,2.47-2.93,4.88-6.27,7.79-9.1,3.64-3.53,7.25-6.68,13.15-7,9.6-.55,14.49,4.55,18.23,12.15.9,1.84,2.31,3.44,3.09,5.32.27.65-.67,1.8-1.05,2.72-.78-.4-1.85-.6-2.29-1.23-3-4.31-5.66-8.94-9-13-1.28-1.54-4.06-2.44-6.2-2.53-5.77-.25-15.83,7-16.91,13.74-.67,4.14-2.1,8.17-2.55,12.32-.2,1.85,1.14,3.87,1.82,5.8C309.49,1189.65,310.07,1191.15,310.71,1192.86Z"/><path class="cls-1" d="M309.12,153.56c-4.1.61-7.15.36-7.63-4.4-.35-3.35-3-3.4-5-2.41-2.48,1.23-4.47,3.41-6.75,5.07-1.37,1-2.89,1.79-4.34,2.67l-1.08-1.33c.91-1.19,1.77-2.42,2.75-3.56.62-.73,1.9-1.21,2.06-2,1.49-7.27,7.44-6.68,12.45-6.63s8.78-.83,10.6-6.31c.56-1.7,3.21-2.74,5-4,.76-.54,2.31-.63,2.49-1.22,1.37-4.64,6.21-6.68,8-10.55,1.52-3.18,1-7.42.92-11.19,0-.53-2.44-1.4-3.78-1.45-2.68-.09-4.35-1.2-4.65-3.8-.57-5-3.46-7.55-8.26-8.3a10.71,10.71,0,0,1-2.37-1.27c1.62-.48,2.59-1.13,3.31-.92a92.64,92.64,0,0,1,10.8,3.65c.91.39,1.13,2.26,1.82,3.35,1.12,1.76,2.19,4.71,3.59,4.91,4.18.58,5.6,3.41,6.46,6.55,1.15,4.25-.71,7.8-3.8,10.75-2.75,2.63-5.57,5.2-8.23,7.92-4.15,4.24-8.14,8.65-12.31,12.87S306.49,148.27,309.12,153.56Z"/><path class="cls-1" d="M249.17,856.83c1.74.57,3.67.83,5.18,1.77,4.17,2.6,8.1,5.56,12.24,8.21a5.75,5.75,0,0,1,2.88,6c-.23,2.35.14,4.8-.3,7.1-.31,1.67-1.48,3.19-2.32,4.75-.49.91-1.44,1.73-1.55,2.66-.33,2.63,0,5.44-3.45,6.4a4.52,4.52,0,0,0,.48,2.63c1.84,2,1,2.75-1,4-5.17,3.35-10.45,6.71-14.91,10.88-1.6,1.5-1.29,5.38-1.1,8.12,0,.53,3.53.82,5.44,1.23l-.11-.09c-2,5.09-7.19,6.61-10.91,9.77,0,0-2-1.53-1.84-2.06a49.36,49.36,0,0,1,2.22-5.8c.61-1.62,1.56-3.27,1.61-4.93.17-4.88-1.09-5.48-5.43-3.26a55.67,55.67,0,0,1-6,2.25l-.93-1.26c1.12-.89,2.23-1.82,3.38-2.67,3.6-2.65,7.22-5.27,10.83-7.9,2.09-1.53,4.7-2.67,6.18-4.65,3.64-4.87,11-6.74,11.51-14.08,5.27-3.3,4.07-8.6,4.2-13.51.06-2.32-.52-3.52-3.1-4.52a24.58,24.58,0,0,1-8.65-6.06c-1.51-1.61-5.52-1.3-4.48-5.1Z"/><path class="cls-1" d="M261.12,660c.69-2.11,1-4.46,2.14-6.29a15.38,15.38,0,0,0-5.15-21.39c-1.58-1-2.89-2.39-4.38-3.53-2.66-2-7.4-1-11,2.4L235,627.49c5.4-7,2.55-12.67-1.68-17.92s-10.27-6.73-17-6.23l-.3-1.42,8.76-6-.13-.1c2.56,3.37,4.1,7,9.29,8.54,3.22.93,5.21,6.57,7.5,10.25,1.6,2.57,2.56,5.56,4.28,8,.45.65,2.72.25,4.09,0,2.47-.47,4.65-1.16,5.33,2.55.19,1.05,2.11,2.39,3.37,2.55,7.34.94,10.78,5.45,11.27,12.72.47,6.85-2.67,12.24-5.19,18-.38.85-2.34,1-3.57,1.47Z"/><path class="cls-1" d="M192.72,772.44a9.23,9.23,0,0,1-15.38,2.49c-3.83-4-7.43-8.19-10.93-12.46-.89-1.08-.85-2.87-1.49-4.22-2.8-6-4.69-12.68-11.89-15.15a57.17,57.17,0,0,0-6.06-1.36c2.88-4.67,2.79-8.82.12-13.62-1.45-2.59-.51-6.58-.48-9.94,0-5.45.15-10.84-6.6-12.81-.42-.13-.57-1.19-.85-1.81l-.11.11c3.77.08,7.55.07,11.32.27s5.09,2.64,2.71,5.47c-5.94,7.07-4.8,13.64-.74,21.39,2,3.92,3.71,7.8,7.12,10.61a34.18,34.18,0,0,0,7.38,4.87c2.48,1.13,3,2.76,2.5,5-1.36,5.9,1.79,9.8,5.51,13.7,1.93,2,3.27,4.65,4.83,7,2.31,3.52,5.3,3.91,8.9,2.11a38.47,38.47,0,0,1,4.25-1.56Z"/><path class="cls-1" d="M219.06,654c.6-3.84-.42-6.81-4.23-8.56-.8-.37-1.18-1.62-1.78-2.45-.81-1.14-1.44-2.54-2.51-3.35-2.58-1.94-1.82-5.18.23-7.47,2.77-3.09,5.79-7.12,6-10.91.14-2.35-4.63-5.07-7.32-7.48a26.07,26.07,0,0,0-3.8-2.42,33.1,33.1,0,0,1,2.85-4.09,24.28,24.28,0,0,1,3.6-2.72c.26.21.66.42.64.54-1.18,5.9,3.7,8.61,6.41,12.5a7.84,7.84,0,0,1,1.55,5c-.48,3.33.51,5.1,3.72,5.51s6.48,1.12,8.73,1.52c.64,4.38,1.58,7.94,1.5,11.47,0,2.12-1.66,4.21-2.57,6.31-.92-.48-2.51-.81-2.66-1.47a35.1,35.1,0,0,1-.47-6.26c-.17-4.16-4.67-8.2-8.75-7.79-3.32.32-5.19,2.82-3.84,5.8,2.11,4.65,4.06,9.63,9.93,11,.3.06.49.6.87,1.1-2,2.91-4.48,4.73-8.23,4.09Z"/><path class="cls-1" d="M156.69,1181.52c-1.12-1.32-2.32-2.58-3.35-4-1.7-2.31-3.29-4.7-4.82-6.89,6.15-1.42,9.35-7.33,11.32-14.43,1.74-6.28-1.58-13.93-8.14-17.88,3.88-2.37,7-1.47,9.15,2.16a42.06,42.06,0,0,0,6.54,8.82c1.36,1.31,4.05,1.42,6.19,1.67,2.72.32,5.71-.22,7.29,3.7-12.37,5.06-20.45,14.14-24.29,26.93Z"/><path class="cls-1" d="M235,580c-.68-3.67,2.35-5.37,4.52-6.63,3.56-2.07,3.14-5.45,1.63-7.06-4.32-4.59-6.77-11.29-14.14-12.79-3.11-.64-6-2.56-8.85-4.16-2.13-1.19-2.91-2.62-1.54-5.44,4.36-9,3.59-18.25.28-27.35-.66-1.82-2.51-3.2-3.81-4.78l-.11.11c5.47-.11,10,4.19,10.17,10.69.13,5.81-1,11.63-1.13,17.46a17.6,17.6,0,0,0,2,7.36c.3.63,3,1,3.82.36,2-1.49,3.62-3.59,5.37-5.46a28.46,28.46,0,0,1,2.37-2.53c.15-.12,1.51.85,1.47,1a9.64,9.64,0,0,1-1.82,3.25c-3.2,3-3.29,7.65.73,9.83,4.44,2.41,6.1,6.57,8.23,10.44.84,1.51.37,3.77.41,5.68a37.81,37.81,0,0,1-.09,6.65c-.18,1.16-1.23,2.92-2.14,3.09a44.65,44.65,0,0,1-7.51.22Z"/><path class="cls-1" d="M325.85,616.05c-1.42-.66-3.08-1-4.2-2-2.17-1.91-3.7-4.73-6.1-6.16-3.53-2.11-7.69.86-10,5.62A23.61,23.61,0,0,1,295,624l-1.42-1.17c.76-1.1,1.29-2.51,2.31-3.26,6.07-4.44,9.8-10,10-17.83.09-3.71,1.31-7.4,2.18-11.94l-16.24-12.62c.31-.57.63-1.13.95-1.69,2.06.91,4.07,1.94,6.19,2.7s4.54,2.09,6.25,1.5c1.2-.42,1.85-3.63,2-5.63.1-1.84-1.17-3.74-1.23-5.62,0-1.42.88-2.87,1.37-4.31,1.37,1.09,3.2,1.93,3.95,3.35.6,1.14.3,3.15-.28,4.47-2.27,5.21-1,10,.85,15a8.56,8.56,0,0,1-.09,5.65c-1.81,4.59-.38,8.45,3.77,11.32a73.55,73.55,0,0,1,9.81,8.71c.66.66.28,2.37.38,3.59Z"/><path class="cls-1" d="M139.16,703.56c-2.65-.66-5.32-1.25-7.95-2-.91-.26-1.73-1.2-2.61-1.22-4.14-.12-7.07-.8-4.31-6,.24-.45-1.61-1.8-2.1-2.91s-.93-3.18-.54-3.42c2.87-1.73,3.59-4.44,3.15-7.25-1.31-8.21,3.57-14.18,6.86-20.79.61-1.23.35-3.09,0-4.55-.58-2.52-2.1-4.94-2.2-7.44-.14-4-2-5.46-5.61-5.78-2-.18-4.47.49-5-2.58l-.12.11c3.78-.49,7.59-.86,11.34-1.53,3.44-.61,3.15,1.66,3.36,3.79.41,4-.28,8.69,1.66,11.7,2.82,4.4,7.55,7.57,11.5,11.24a24.77,24.77,0,0,0,2.24,1.69l-.34,1.41c-1.65-.37-3.8-.21-4.84-1.21-3-2.86-6.91-4.29-9.83-2.27-2.54,1.76-4.36,5.82-4.77,9.09-.72,5.64-.18,11.46,0,17.2.13,4.73,4,6.86,7,9.65,1,1,2,2.1,3,3.15Z"/><path class="cls-1" d="M295.44,707.8c1.28-3.91,5.18-4.3,8.1-5.89,6.72-3.65,9.78-10.87,7-17.87-1.49-3.78-3.33-7.43-5.18-11-1.09-2.13-5.8-1.79-7.69.45-1.25,1.48-2.37,3.08-3.7,4.47a8.84,8.84,0,0,1-2.83,1.85c-.22.1-1.35-1.06-1.27-1.18a31.26,31.26,0,0,1,2-2.74c3-4,10.08-5.82,7.87-12.58a79.44,79.44,0,0,0-7.31-15.43c-2.34-4-5.61-7.35-9.15-11.87,1.91.12,3.1-.17,3.49.27,3.58,3.95,7,8,10.48,12.08.27.32.39.87.71,1,4.39,1.82,6.4,4.51,4.34,9.47-.31.75,1.93,2.4,2.69,3.8,2.65,4.9,5.36,9.79,7.65,14.87,1.33,2.95,1.92,6.24,2.78,9.39a3.61,3.61,0,0,1,0,2.08c-1.39,3.67-2.24,7.78-4.5,10.83-3.74,5-8.65,8.9-15.69,7.93Z"/><path class="cls-1" d="M249.28,856.72c-1.38-.83-2.79-1.64-4.15-2.52a21.84,21.84,0,0,1-1.76-1.42c-.51.72-1.39,1.42-1.45,2.19-.22,2.78-.13,5.58-.23,8.38-.05,1.58-.23,3.16-.38,5-3.71-.79-3.62-3.29-3.67-5.6a7.68,7.68,0,0,0-3.07-6.49c-2.29-2-6.12-4.43-5.61-8.91.1-.91-.65-2.64-1.3-2.8-5.58-1.38-7.49-6.5-10.78-10.2-.28-.31-.57-.78-.91-.83-6.26-.87-8.32-7.27-13.17-10a8.16,8.16,0,0,0-2.19-1c-4.36-.85-8.05-2.63-10.34-7.11,4.25-1.57,6.91,1.69,10.09,3.11,1.69.75,3.47,1.3,5.12,2.12a19.36,19.36,0,0,1,3.48,2.29c2.17,1.76,4.25,3.63,6.4,5.42,3.29,2.74,8.1,3.56,9.74,8.49.56,1.65,3,2.62,4.39,4.06s3.24,2.78,3.48,4.39c.49,3.31,2.14,4.66,5.16,4.88,1.53.11,3.07.08,4.61.09,4.79,0,6.31,1.57,6.43,6.59Z"/><path class="cls-1" d="M269.43,214.81c1.36.63,3.77,1.13,3.86,1.92a6.06,6.06,0,0,1-1.72,4.46c-2.87,2.81-3.09,7.92-.42,10.76,1.54,1.63,3.29,3.68,3.61,5.74a60.41,60.41,0,0,0,6.59,19c.75,1.43,2.47,2.39,3.84,3.43,3.18,2.44,6.37,4.88,9.67,7.16,2.39,1.65,3.38,4.43,1.6,6-3.88,3.45-4.86,8-6.64,12.36-.48,1.18-2.16,1.86-3.29,2.77-.22-1.49-1-3.19-.55-4.44,1.29-3.53,3.51-6.77,4.49-10.36a7.45,7.45,0,0,0-1.69-6,27.94,27.94,0,0,0-8.11-5.83c-4.49-2.14-5.73-6-6.86-10.23a56.25,56.25,0,0,0-2.31-5.87c-.52-1.3-1.4-2.6-1.43-3.91A14.68,14.68,0,0,0,265,230.54c-2.85-2.58-.42-6.28,1-7.38,3.17-2.4,3-5.41,3.55-8.47Z"/><path class="cls-1" d="M289.87,1168.1c-9.11,5.42-17.8,9.57-23.41,17.74-1.55,2.25-3.28,4.37-4.69,6.69a3.07,3.07,0,0,0,.2,2.71c1,1.46,2.42,2.88,0,4a27.32,27.32,0,0,1-7.08,2.26c-.3,0-1.83-3-1.53-4.41a32.7,32.7,0,0,1,3.33-8.61c2.43-4.41,4.6-9.24,8.07-12.71,5.31-5.3,10.77-11.37,19.58-10.13C286.06,1165.92,287.62,1167.08,289.87,1168.1Z"/><path class="cls-1" d="M220.12,998.7c.7,1.17,1,1.5,1.1,1.87.4,2.72-.17,6.93,1.32,7.87,2.84,1.78,6.86,2.26,10.39,2.26,5.24,0,10.73-.12,15.65-1.68,4.48-1.43,8.18-5.13,12.51-7.28,2.19-1.09,5-1,8-1.48-1.62,5-6.28,8.83-9.94,8.61-3.85-.23-6.83,2.11-10.14,2.87-5.28,1.22-7.89,3.36-8.4,8.74-.3,3-1.53,6-2.64,10.07-.19-3.37-.43-5.82-.43-8.27,0-2.81-.49-4.57-3.63-6.08a28.73,28.73,0,0,0-12.77-3.25c-1,0-2.19,0-2.83-.48-2.23-1.86-4.06-1.71-6.31.08-.86.68-2.61.24-4.89.37Z"/><path class="cls-1" d="M247.34,166.93c3.68.59,7.51.73,11,1.91,2.41.82,5.19,2.38,3,6.32s.48,8.81,4.83,10.7a79.11,79.11,0,0,1,7.41,4c2.84,1.62,5.64,3.31,8.47,5,.23.14.67.06.79.23,3.06,4.47,7.58,4.26,12.2,4,.6,0,1.39.7,1.8,1.28.15.2-.46,1.23-.94,1.54-2.27,1.47-3.82,3.4-7.38.74-3.26-2.44-7.58-3.59-10.6-6.82s-5.42-.49-6.75,1.64c-2.52,4.06-5.84,5.26-10.24,4.57l.12.11a1.45,1.45,0,0,1,.16-.38c1.9-2.23,5.64-4.77,5.33-6.62-.81-4.89-3.07-9.52-8.49-11.79-2.62-1.11-4.68-3.57-7.17-5.56,1.14-1.37,1.82-2,2.34-2.83.71-1.09,1.3-2.27,2-3.4-1.13-.56-2.32-1-3.38-1.69-1.48-.93-2.86-2-4.29-3A1.14,1.14,0,0,1,247.34,166.93Z"/><path class="cls-1" d="M339.71,961.38c-.87,1.21-1.27,2.22-2,2.59-.5.26-1.52-.24-2.18-.63s-1.4-1-1.37-1.49c.28-4.83-3-7.93-5.18-11.67-1.73-3-2.16-6.71-3.63-9.89a49.65,49.65,0,0,0-4.67-7.22c-3.66-5.22-7-10.7-11.2-15.48-3.37-3.86-5.4-10.26-12.65-8.79a1.84,1.84,0,0,1-1.56-.41c-2.9-4.54-8.13-4.52-12.34-6.47-.59-.27-.89-1.16-1.32-1.76.69-.33,1.67-1.14,2-.92,4,2.48,9.55-.18,13.23,4.81,2,2.68,6.79,3.2,10.2,4.92a9.52,9.52,0,0,1,3.07,2.93c3.53,4.8,7,9.68,10.43,14.52,2.36,3.31,4.76,6.58,7.05,9.93a6.34,6.34,0,0,1,1.23,3,13,13,0,0,0,3,7.36C335.05,951.17,337.13,956.42,339.71,961.38Z"/><path class="cls-1" d="M257.71,916.52c4-3,11.94-1.69,16.2,1.06s7.28,7.21,11.54,9.71c3.21,1.88,3,4.63,4.42,7,2.63,4.4,3.59,9.07,5.32,13.63.83,2.18,1.46,3.51.79,5.92-1.69,6,.69,11.7,2.54,17.34.37,1.13,1.11,2.3,1,3.38-.08.8-1.15,1.76-2,2.1-.4.16-1.73-.86-1.92-1.55-.76-2.65-1.18-5.39-1.83-8.08-.53-2.2-1.24-4.37-1.8-6.56-.2-.79-.58-2.05-.24-2.36,3-2.62,1-4.67-.31-7.15-1.07-2-1.22-4.49-1.94-6.71a20.94,20.94,0,0,0-1.74-3.48c-.4-.72-1.13-1.33-1.33-2.09-2.43-9-10.39-12.84-17.11-17.56-3.35-2.36-7.78-3.18-11.72-4.69Z"/><path class="cls-1" d="M148.7,611.55c-1.15-.13-2.65.11-3-.39-1.83-2.93-5.21-4.69-5.31-9A14.68,14.68,0,0,0,136.9,593c-1.61-1.7-5.31-1.53-8.11-1.93-1.34-.19-2.78.41-4.15.3-6.17-.52-8.82,3.95-11.85,8-2,2.77-4.34,5.36-6.53,8l-1.51-.43c0-4.53-.08-9.07.13-13.59,0-.44,2.23-1.43,2.74-1.1,4.54,2.95,7.43-.46,10.76-2.46a12.32,12.32,0,0,1,4.62-2c3-.37,6.15-.18,9.23-.3,3.83-.15,7.57-.38,9.09-5,.25-.78,1.72-1.17,3.56-2.33C142.65,591.33,142.56,601.39,148.7,611.55Z"/><path class="cls-1" d="M185.36,603.35c-1.5-8.46-2.76-16.25-4.33-24-.29-1.4-2-2.48-2.82-3.81a7.44,7.44,0,0,1-1-2.89c0-.29,1.12-1.16,1.44-1a6.38,6.38,0,0,1,2.49,1.72,4.64,4.64,0,0,1,.86,2.34c.7,4.92,2.78,8.42,9.3,8-1.43,3.4-2.66,6.08-3.66,8.83a3.4,3.4,0,0,0,.17,2.72c4.25,5.84,8.62,11.57,13,17.43-3.6,5.51-13.48,8.07-7.65,17.91l-1.52.16c-.73-1.48-1.84-2.9-2.1-4.47-.32-1.89.14-3.9.13-5.86,0-9.29,0-9.29-6.56-15.63Z"/><path class="cls-1" d="M186.6,932.33l4-10.84c1.65,1.55,3.46,3.46,5.5,5.08,1,.77,3,1.69,3.49,1.27a6.19,6.19,0,0,0,1.71-3.8c.25-1.77-.09-3.62,0-5.43.16-4.67,5.88-9.36,10.61-9-1.29,2.3-2.92,4.57-3.83,7.09a13.22,13.22,0,0,0-.54,6.16c.75,5.43,2.37,6.33,6.91,3.39,3.58-2.31,6.65-5.42,10.19-8.37,0,.88.44,2.37-.08,3.33-1.64,3-4.1,5.59-3.14,9.49.07.27-1.86,1.46-2.89,1.49-5.71.17-11.43.12-17.15.13Z"/><path class="cls-1" d="M155.22,565.06c1.18-.11,2.53-.62,3.51-.23,2.5,1,4.83,2.4,7.49,3.78-.18.41-.27,1.33-.71,1.54a113.91,113.91,0,0,1-12,5.35c-2.61.9-4.33-.63-4.06-3.6.55-5.79-4.16-8.58-7-12.47-3.76-5.16-9.19-5.8-14.94-6-2.45-.08-4.15-3.32-2.39-4.8,3.72-3.15,3.61-8,6-11.51,1.55-2.26,1.61-6.77,6.27-5.91l-.1-.12c-1.75,3.35-3.66,6.62-5.16,10.07-.76,1.74-1.7,4.56-.89,5.57,1.49,1.89,2.31,5,6.13,4.67,4.38-.38,10.4,5.25,12.1,9.3.79,1.89,3.41,3,5.2,4.46Z"/><path class="cls-1" d="M314.34,152.07c1.5-.56,3.6-2.13,5.16-1.71s2.91,2.74,3.43,4.5c1.77,6,3.29,7.47,9.41,8a9.45,9.45,0,0,1,3.53,1c3.67,1.94,7.16,4.23,10.91,6,3,1.4,3,2.82,1,5-3.77,3.91-3.76,6.81,0,10.79,1.63,1.71,3.71,3.12,4.86,5.1a8.22,8.22,0,0,1,.6,5.48c-.21,1-2.07,1.94-3.34,2.2-1.81.37-3.76.1-6.28.1,1.67-2.77,3.79-4.71,3.65-6.49-.15-2-2.38-3.77-3.66-5.67-.7-1-1.11-2.38-2-3.12-2.18-1.76-2.29-3-.51-5.46,2.57-3.55.69-6.55-3.4-8.11a137.4,137.4,0,0,1-16.4-7.56c-1.58-.86-2.26-3.35-3.4-5.06C316.9,155.63,315.87,154.23,314.34,152.07Z"/><path class="cls-1" d="M129,888.6c-5.06-3.88-5-4-.91-8.26,2.49-2.59,6.21-4.65,5.17-9.2a13.11,13.11,0,0,0-1.82-4.36c-1.84-2.68-2.36-4.66,1-6.84,2.93-1.91,5.81-4.31,5-8.71-.15-.89.76-2,1.16-3,.81-2,2.35-4,2.24-6-.21-3.81,1.55-6.49,4-8.7,4.18-3.84,8.73-7.29,13.09-10.94,2.44-2,4.8-4.18,7.2-6.27l-.12-.12c.55,4-.7,7-4.26,9.15s-7.34,4.38-10.12,7.4c-2.5,2.73-6.08,5-6,9.82,0,2.48-1.65,5-2.56,7.48a9.6,9.6,0,0,0-1,3,6.28,6.28,0,0,1-3.88,6.32c-3.33,1.55-2.9,4.28-1.67,6.73,2.89,5.78,2.79,8.19-2.11,12.65a13.21,13.21,0,0,0-4.46,9.84Z"/><path class="cls-1" d="M87.34,143.33c4.62,2.21,6.94,7.45,5.16,11.87a3.73,3.73,0,0,1-2.94,1.6,14.13,14.13,0,0,0-11.29,5.1c-2,2.18-5,3.37-7.07,5.52A73,73,0,0,0,62.77,178c-1.18,1.82-1.09,4.35,2,5.36,2.72.9,5.37,2,8,3.13a10.06,10.06,0,0,1,2.65,1.72c1.85,1.64,3.7,3.3,5.37,5.11.66.71,1.34,2,1.12,2.78a3.91,3.91,0,0,1-2.3,2.47,3.4,3.4,0,0,1-2.86-1.46c-3.52-6.59-9.63-9.77-16-12.62-5-2.23-5.11-2.89-1.58-7.08s6-9.1,10.12-12.21c6.12-4.63,11.23-10.27,17.16-15,1.84-1.47,2.35-2.46,1-4.41C87,145.22,87.34,144.22,87.34,143.33Z"/><path class="cls-1" d="M289.54,414.92c.41,4.87-4.57,6.34-6.25,9.9-.49,1.06-1.77,1.91-1.91,2.95-.44,3.5-2.16,5.73-5.63,6.26-5.85.9-9.82,6.54-16.18,6.23-2.17-.1-4.4.74-6.56.6-1.19-.08-2.3-1.3-3.44-2,1.09-1.09,2-2.81,3.3-3.13a32.09,32.09,0,0,1,7.91-.66c5.16,0,9-2.71,12.18-6.21,2.63-2.86,2.33-6-.85-8.44.14-.35.21-.6.32-.84,4-8,11.07-4.59,17.22-4.53Z"/><path class="cls-1" d="M101.11,696c0,4.61-.14,9.25.24,13.83a14.61,14.61,0,0,0,2.38,6.06,4.2,4.2,0,0,0,3.35,1.74c.74-.08,1.16-2.06,2-3,1.25-1.46,2.7-2.74,4.06-4.1l-.11-.1c-.07,3.77-.21,7.54-.2,11.31,0,3.22.14,6.32,3.21,8.61.91.68.57,2.88,1.14,4.24,1.36,3.24,3,6.39,4.38,9.6a25.14,25.14,0,0,1,.92,3c-1.27,0-3.28.39-3.67-.22-2.12-3.26-4.72-6.61-5.47-10.27a21.55,21.55,0,0,0-8-12.77c-5.76-4.63-10.46-17.95-7.68-24.85.52-1.28,2.39-2,3.64-3Z"/><path class="cls-1" d="M88.55,680c-5.64-1-8.69-8.7-5-13.83,3.86-5.34,1.15-11.79-3.27-15.07-1.18-.88-2.85-2.19-2.88-3.34-.12-5.24.2-10.5.54-15.74,0-.77,1-1.48,1.57-2.22l1.33.35c-.36,1.74-.82,3.47-1,5.23a16,16,0,0,0-.09,4.37c.26,1.9.92,3.73,1.31,5.61.79,3.71,5.36,6.94,8.57,5.8a7.06,7.06,0,0,0,2.9-2.19c2.23-2.7,4.2-5.63,6.51-8.25.6-.68,2.1-.57,3.19-.83l.58.93c-2.37,3-4.85,6-7.07,9.08-2.83,4-6.57,7.78-7.84,12.25s.11,9.47.34,14.24c.06,1.25.16,2.49.24,3.73Z"/><path class="cls-1" d="M280.6,568.32c1.39,7,1,6.36-4.8,9.33-5.14,2.61-10.72,5-12.85,12.05-1.21,4-1.51,6.51.41,10.16a16.15,16.15,0,0,1,.38,15.31,5.86,5.86,0,0,1-1.71,2.27,18.93,18.93,0,0,1-3.55,1.47,15.16,15.16,0,0,1,.91-3.55c2.83-5.34,2.28-10.81.61-16.25-1.37-4.43-3.18-8.73-4.5-13.18-.17-.56,1.55-2.45,2.25-2.38,4.84.51,7.5-2.67,10.61-5.44C272.19,574.71,276.36,571.69,280.6,568.32Z"/><path class="cls-1" d="M169.63,935.77c1-2.9,2.72-5.37,2.57-7.72-.16-2.55-1.7-5.21-3.19-7.45-3.22-4.83-6.71-9.49-10.26-14.09-2.32-3-4.89-5.78-7.46-8.56a26.88,26.88,0,0,0-3.38-2.65c4.92-1,10.48,2.31,13,6.56,2.05,3.48,5.16,6.34,7.81,9.48,1.06,1.25,2.2,2.45,3.19,3.75,1.37,1.8,2.7,3.64,3.9,5.55a14.41,14.41,0,0,1,1.1,3,32.46,32.46,0,0,0,1.89,5.31c1.16,2.11-.54,5.19-3.78,6.05A50.5,50.5,0,0,1,169.63,935.77Z"/><path class="cls-1" d="M261,729.62c-.27,5.09-1.57,6.39-6.39,6.66a18,18,0,0,0-3.45.88,28.31,28.31,0,0,0,1.72,3.22c3.2,4.55,6.92,8.23,13.06,8.33,1,0,2,1.35,3,2.08l-.68,1.74c-2.71-.74-5.64-1.06-8.08-2.33-3.84-2-7.34-4.63-11-7-1.84-1.19-3.31-1.24-4.27,1.14a26.2,26.2,0,0,1-1.84,3.2l-1.14-.31a48.1,48.1,0,0,0-.08-6.47c-.22-1.63-1.35-3.14-1.56-4.77-.15-1.08.44-3.17,1-3.28,2.29-.44,4.87-.89,7-.26,4.35,1.26,8,.75,11.2-2.47.31-.31,1.06-.18,1.61-.25Z"/><path class="cls-1" d="M345.15,403.25c-.09,8-.12,8.31-8.2,7.38-5.82-.68-8.48,2.24-11.49,6.58-2.5,3.59-6.68,6-10.21,8.89a25.07,25.07,0,0,1-5,3.31,42.19,42.19,0,0,1-5.93,1.88l-.65-1.49a33,33,0,0,0,4.75-3.13c4.31-4,8.8-7.85,12.47-12.38,1-1.27-.51-4.63-.87-7l-.1.11c4,.33,8.09,1.05,12.1.85,2.58-.12,5.13-1.52,7.65-2.46,1.9-.71,3.73-1.59,5.59-2.39Z"/><path class="cls-1" d="M211.49,723.88a11.53,11.53,0,0,1,1.76-2.73c6.57-5.7,6.47-15.3-.21-21.14a3.09,3.09,0,0,1-1.07-2.44c.15-.6,1.38-1.21,2.21-1.33,5.93-.91,6.68.18,7.28,6A126,126,0,0,0,225.07,722c.63,2.36,3.42,4.11,5.07,6.26a14.55,14.55,0,0,1,1.42,3.21c-1.29,0-3.05.57-3.78-.06-2.18-1.86-4.69-3.9-5.71-6.42-1.51-3.71-3.49-3.24-6.26-2.18a32.38,32.38,0,0,1-4.43,1Z"/><path class="cls-1" d="M193,571.35a7,7,0,0,1-1.85-10.56c2.79-3.2,5.92-6.1,8.71-9.3,1-1.14,2-2.78,2-4.17-.15-8.26-3.12-15.13-10.37-19.8-.85-.54-1-2.13-1.52-3.23,1.13.11,2.55-.19,3.32.39,4,3,8.19,5.56,9.85,11.05,1.41,4.67,4.42,8.85,7,13.84-1.68,1-4.08,2.73-6.68,4-7.44,3.69-12.09,8.94-10.63,17.88Z"/><path class="cls-1" d="M98.4,428.52c2.63-2.17,4.09-4,6.91-2.13,1.13.73,3,.42,4.52.46,6.73.19,13.65-.91,19.81,3.37-1.57,5.54,5.42,5.89,6.7,10.75-2.23-.66-4.34-1.18-6.37-1.9-3.47-1.24-6.88-2.6-10.33-3.9-.39-.15-1-.06-1.19-.32-4-4.76-9.47-3.53-14.61-4C102.22,430.76,100.68,429.56,98.4,428.52Z"/><path class="cls-1" d="M108.7,899.21c-.88,4.51-3.44,6.19-6.74,7.28-2.53.83-5.39,1.38-7.37,3-5.32,4.25-10.74,8.55-15.2,13.64C73.65,929.65,68.8,937,63,944.81c.1-2.21-.49-4.44.37-5.69,4.92-7.18,10-14.29,15.45-21.07,1.89-2.34,5.1-3.59,7.58-5.5s4.69-4,7-6c.43-.36.9-1,1.31-1C100.15,905.92,103.33,901.19,108.7,899.21Z"/><path class="cls-1" d="M263.76,527.89c.89-2.83,6-5.92,9.17-5.34,3.39.63,4.11,3,4.2,6.22.05,1.87,1.31,3.72,2.06,5.56.16.38.56.67.69,1,1.79,5.46,3.62,10.91,5.29,16.41.52,1.71.31,3.68,1,5.31,1.65,4.06-.42,6.19-4.18,8.57a35.55,35.55,0,0,1-.71-4.66c0-3.5.45-7,0-10.49-.29-2.29-1.86-4.4-2.74-6.64-1.5-3.81-3.61-7.56-4.17-11.52-.64-4.49-2.9-5.16-6.52-4.82-1.4.13-2.8.16-4.2.24Z"/><path class="cls-1" d="M201.35,166.68c2.44,3.06,5.28,5.9,7.2,9.26,1.51,2.65,3.51,3,5.52,2.08,2.74-1.26.15-2.68-.23-4.21-.7-2.83-.43-5.9-.56-8.87l1.2-.34c.61.78,1.54,1.47,1.75,2.35a123.44,123.44,0,0,1,2.59,12.57c.13.93-1.29,2.61-2.36,3-2.41,1-5.21,1-7.54,2.13a8.56,8.56,0,0,0-3.51,3.94c-.57,1.14,0,2.78-.25,4.14a14.11,14.11,0,0,1-1.32,3.12c-.76-1-2-1.82-2.19-2.88a28.2,28.2,0,0,1-.31-7.11,5,5,0,0,1,1.83-2.89c1.05-.89,3.52-1.46,3.49-2.05-.13-2.14-.43-5.26-1.82-6.11-3.5-2.13-3.62-5-3.39-8.28Z"/><path class="cls-1" d="M74.5,132.15c-3.24-1.29-4.48-3.06-2.92-5.71,3-5.17,6.15-10.3,9.46-15.29,1.56-2.35.89-7-1.42-9.32a10.18,10.18,0,0,1-2.76-4.7c-.6-2.86.68-6.32-3.26-7.86-.24-.1-.18-2.4.33-2.73a36.39,36.39,0,0,1,5.48-2.44c.39,8.39.94,16,7.53,21.35,2.69,2.2,2.56,3.41-.6,5.52C80,115.22,75.68,121.22,74.88,129.2,74.8,130,74.68,130.8,74.5,132.15Z"/><path class="cls-1" d="M153,1069.77a31.07,31.07,0,0,1,.22,5c-.08.75-1,1.42-1.47,2.13-.78-.64-2.33-1.46-2.23-1.88,1.68-6.84-3.41-11.25-5.76-16.62-1.75-4-3.64-8-5.35-12a10.33,10.33,0,0,1-.92-4c0-2.71-.09-5.09-2.65-7-1-.71-1.24-2.66-1.39-4.09a2.54,2.54,0,0,1,1.61-1.91,2.57,2.57,0,0,1,2.14,1.24c1.24,3.64,2.16,7.39,3.37,11a24.69,24.69,0,0,0,2.14,4c.66,1.17,2.1,2.49,1.9,3.46-1.14,5.37,2.64,8.66,5.53,11.59A9.73,9.73,0,0,1,153,1069.77Z"/><path class="cls-1" d="M155.22,565.06l-.54.13c-2.32-5.8-1.88-11.72-.1-17.45,1.58-5.11,3.58-10,1.19-14.83,3.32-3,6.33-5.93,9.59-8.55.93-.74,2.58-.58,3.9-.83l-.1-.11c-.69,1.58-1.3,3.19-2.08,4.71-2.68,5.26-6.1,10-8.12,15.76-2.11,6-2,11.85-2.28,17.86C156.62,562.87,155.73,564,155.22,565.06Z"/><path class="cls-1" d="M118.91,639.65l-9.65-1.31c-1.18-5.22-1.55-9.15-3-12.62-1.35-3.23-3.85-6-5.85-8.94l-1.18.42A8.5,8.5,0,0,1,100,616c1.44-1.52,1.42-5.6,4.6-3.94,1.87,1,3.45,3.94,3.76,6.2.93,6.81,4.09,12.22,8.69,17.1,1,1.07,1.18,2.93,1.74,4.43Z"/><path class="cls-1" d="M260.88,202c-.14,5.16,1.67,9,7,10.55.67.2,1,1.48,1.54,2.26l.11-.12c-5.33-.22-10.28.16-15.07,3.47-4.5,3.11-9.89,5-14.91,7.3a5.33,5.33,0,0,1-2.73.83,13.15,13.15,0,0,1-3.33-1.5,23.52,23.52,0,0,1,2.94-2.18c2.87-1.49,5.81-2.87,8.74-4.25,2.54-1.19,5.06-3.11,7.68-3.28,3.7-.25,5-1.51,4.75-5a11.7,11.7,0,0,1,.28-5c.47-1.2,2-2,3.11-2.94Z"/><path class="cls-1" d="M325.75,616.15c7,.78,10.26,7.19,6.58,13.06s-7.12,12-11.5,17.38c-2.15,2.61-6.22,3.64-9.41,5.39-.27-.44-.54-.87-.8-1.31,2.82-2.72,5.63-5.45,8.47-8.16.59-.56,1.8-1,1.86-1.52.59-5.62,5.53-8.64,7.7-13.22,1.29-2.73,2-6.09-1.24-8.64-.82-.64-1.06-2-1.56-3.08Z"/><path class="cls-1" d="M245.19,13.75a10.55,10.55,0,0,1,2.09-2.3c4.55-2.64,9.1-5.27,13.78-7.64a23.86,23.86,0,0,1,6-1.59c3.22-.67,6.52-1,9.68-1.85,4.4-1.18,7.77.35,10,5.93a39.68,39.68,0,0,0-5.56-1.52,41.1,41.1,0,0,0-7.27-.27c-1.13.06-2.19,1.16-3.33,1.29-4,.43-7.46.16-11.25,3.51-3.3,2.93-8.7,5.54-14.25,4.32Z"/><path class="cls-1" d="M164.74,634.8a13.67,13.67,0,0,1-3-1.49c-2.31-2-4.5-4.19-6.69-6.35-2.65-2.61-5.42-2.05-8.39-.61a35.88,35.88,0,0,1-5,1.56l-.65-1.84a57.05,57.05,0,0,1,5.55-2.06,16.26,16.26,0,0,1,3.77-.13c6.41-.14,7-.77,6.44-7.11a7.24,7.24,0,0,1,.12-3.26,3,3,0,0,1,2.29-1.23,2.26,2.26,0,0,1,1.73,1.35c1.49,6.4,2.86,12.82,4.2,19.24A5.89,5.89,0,0,1,164.74,634.8Z"/><path class="cls-1" d="M189.7,664.16c.56-2.4.7-5,1.74-7.17a15.9,15.9,0,0,0,.27-14.36,4.41,4.41,0,0,1,.18-3.51,3,3,0,0,1,2.91-.59,5.13,5.13,0,0,1,2.1,3.12c.46,2.75-.69,6.12,3.54,7a4.78,4.78,0,0,1,.21,2.33c-5.29,1.43-3.25,5.68-3.52,9-.11,1.39-.07,2.79-.1,4.18l.11-.11h-7.55Z"/><path class="cls-1" d="M197,664.16c2.51-.75,4.22.27,5.59,2.35a6.5,6.5,0,0,0,2.07,1.78c1.37.85,2.82,1.58,4.23,2.35l-3.49,5.1.12.11c.26-4.38-2.7-4.55-5.84-4.48-3.61.08-2.81,2.82-2.83,4.9,0,3.36.36,6.73.13,10.07-.08,1.22-1.42,2.37-2.18,3.55-.56-1.2-1.48-2.37-1.61-3.61a34.12,34.12,0,0,1-.17-8.38c.34-2.43,1.68-4.7,2.41-7.09.68-2.22,1.13-4.5,1.68-6.76Z"/><path class="cls-1" d="M205.56,1155.57c.51,5.06,1,10.12,1.54,15.32-4.2-1.33-9.77-.83-10.45-8.34-.27-3-3.31-5.66-4.68-9.55,1.51.39,4,.35,4.37,1.23,1.65,3.77,4.1,3,6.89,2a16.26,16.26,0,0,1,2.44-.52Z"/><path class="cls-1" d="M197.35,1191.58c-4.45-.74-7.15-2.7-7.47-5.83-.39-3.83-2.13-4.59-5.36-4.6-1,0-2.06-.89-3.09-1.37a19.52,19.52,0,0,1,2.23-2.39c2.78-2.12,5.56-4.27,8.52-6.11,1.2-.74,2.88-.7,4.35-1-.37,1.2-.46,2.6-1.15,3.56-3.24,4.48-4.19,8.82-.12,13.36C196,1188.05,196.32,1189.36,197.35,1191.58Z"/><path class="cls-1" d="M346.19,1182.3c-4.63,3.81-9.62,7.42-14,11.66-3.31,3.21-6.79,3.9-11.74,3.07.82-1.28,1.36-3,2-3,6-.41,8.89-5.79,13.4-8.52,1.83-1.11,2.6-4,3.84-6Z"/><path class="cls-1" d="M241.79,1177.43a53.56,53.56,0,0,1,3.06-5.39c2.12-3,4.46-5.76,7-8.94,2.17,2.33,6.66,1.94,5.9,6.52a4.66,4.66,0,0,1-1.64,3,40.17,40.17,0,0,1-7.83,3.94c-2,.71-4.35.56-6.54.8Z"/><path class="cls-1" d="M165.14,110.41c-.38,1.57-.82,3.13-1.14,4.71-1.05,5.14-2.06,10.3-3.09,15.45l.11-.12c-1.36-.36-3.7-.46-3.89-1.14-.42-1.59-.42-3.94.51-5.1,2.16-2.69,2.57-4.74-.23-7.13a9.12,9.12,0,0,1-1.63-2.85c-1.09-2.15-.6-3.61,2-3.74s5,0,7.52,0Z"/><path class="cls-1" d="M234.94,579.87c-2.17,4.33-4.21,8.75-6.6,13-.72,1.27-2.44,2-3.7,2.95l.12.1c1.14-5.8-1-10.16-5.65-13.61a26,26,0,0,1-3.27-3.5l.73-1c2.05,1,4.47,1.55,6.07,3,3.1,2.86,5.8,2.44,8.91.27.94-.66,2.31-.71,3.49-1Z"/><path class="cls-1" d="M241.69,1177.32c-1.74,1.36-3.46,2.75-5.23,4.08-.53.4-1.5.48-1.73,1-2.09,4.35-6.88,4-10.31,5.9a2.41,2.41,0,0,1-2.21,0c-.4-.38-.36-1.53-.14-2.22,1.42-4.38,4.7-6.45,9.08-7.08l10.64-1.49Z"/><path class="cls-1" d="M208.82,150a58.06,58.06,0,0,1,8.34,0c1.46.18,3.43,1.2,4,2.4.86,1.81.3,3.88-2.29,4.43a5,5,0,0,0-1.12.54c-5.74,2.94-8.67,1.31-8.86-5,0-.83,0-1.67.06-2.51Z"/><path class="cls-1" d="M101.23,696.07c.55-5.56-3-8.54-7-11.39-2-1.45-3.82-3.11-5.72-4.67l-.11.12c4.25,1.75,8.57,3.36,12.73,5.31,3.54,1.66,6.89,3.73,10.6,5.76-3.27.45-7,.29-8.31,4.36-.12.35-1.53.27-2.35.39Z"/><path class="cls-1" d="M150.62,110.19c-5-.56-9.36,1.35-13.69-2.76-3.27-3.09-8.28-4.35-12.9-6.61,5.32-1.14,9.76-.78,13.83,3.1,1.49,1.42,4.19,1.66,6.4,2.19S149.47,105.86,150.62,110.19Z"/><path class="cls-1" d="M113.19,1165.7a26.43,26.43,0,0,0-3.37,4.09,4.54,4.54,0,0,0,0,3.42,13.3,13.3,0,0,0,2.4,3.08l-.87,1.37-13.23-6.09c5.28-3.12,9.23-7,15.22-5.78Z"/><path class="cls-1" d="M233.18,892.86c-2.48,3.95-4.59,8.2-7.57,11.72-1.74,2-3.69,5.71-8.55,3.17a45.2,45.2,0,0,0,4.75-4.37c2.13-2.65,3.71-5.77,6.05-8.19,1.25-1.28,3.59-1.51,5.43-2.22Z"/><path class="cls-1" d="M178.38,1094c-3.55-.31-6.85-.58-9.13-4.5-2.12-3.65-5.79-6.4-9.54-10.35,2,.32,3.63.3,5,.85,5.07,2,7.39,6.78,10.58,10.68C176.29,1091.86,177.36,1092.91,178.38,1094Z"/><path class="cls-1" d="M205.67,1155.68a14.72,14.72,0,0,1,10.72-14.61c2.86-.77,5.55-2.17,8.69-2.87-5.77,6.58-15.58,8.81-19.52,17.37Z"/><path class="cls-1" d="M169.26,523.53c2.44-1.4,4.88-2.8,7.33-4.18,1.41-.79,2.83-1.6,4.3-2.28s3-1.21,4.54-1.81l-.11-.12c.07,8.47.07,8.44-8.6,8.2-2.51-.08-5,0-7.55.09Z"/><path class="cls-1" d="M139.87,1009.12a88.3,88.3,0,0,1-2.2-9.93c-.08-.78,1.57-2,2.63-2.6,2.36-1.41,4.85-2.59,7.28-3.87l.47.92C145.41,998.62,142.78,1003.61,139.87,1009.12Z"/><path class="cls-1" d="M137.87,1026c-1.75-2.93-3.47-5.87-5.25-8.78-1.4-2.3-.61-5.36,1.85-5.89.69-.14,2.1,1.16,2.54,2.1a39.48,39.48,0,0,1,2.79,7.61c.37,1.55-.11,3.29-.21,4.95Z"/><path class="cls-1" d="M225,668.18c-1.53.06-3.06.08-4.58.2-2.54.2-3.61-1-3.4-3.45s.36-4.78-2.88-5.58c-.24-.06-.41-3.15.32-3.78,1.13-1,3-1.1,4.63-1.58l-.12-.11c-1.12,4.36,2.4,7,3.9,10.36.62,1.38,1.34,2.7,2,4Z"/><path class="cls-1" d="M160.91,130.57c6.48,0,9.87,4.74,13.57,9-4.73,3.67-12.24-1.5-13.46-9.09Z"/><path class="cls-1" d="M245.08,13.63c-2,1.27-3.85,3.48-5.89,3.61-3.69.25-6.82.69-8.6,4.56l-1.23-.48c.23-1.49-.08-3.58.79-4.37,2-1.8,2.64-5.6,6.59-4.74,2.79.61,5.63,1,8.45,1.53Z"/><path class="cls-1" d="M278.08,45c-.9-4.63-1.93-8.88-2.43-13.18-.13-1.17,1.36-2.52,2.32-4.17C282.16,34.84,282.1,42,278.08,45Z"/><path class="cls-1" d="M233.26,687.66l.55,12.05c-2.75-1.4-5.7-2.86-8.57-4.48-.33-.18-.3-1.85-.15-1.89,3.35-1,3.95-6.11,8.28-5.57Z"/><path class="cls-1" d="M321.94,981.29c-.48,1.48-.49,2.26-.84,2.47-2.73,1.67-5.55,3.19-8.28,4.85a39.34,39.34,0,0,0-3.25,2.53,11,11,0,0,1-2.51,1.63c-.31.12-1.42-.75-1.38-1.07.12-1,.33-2.36,1-2.87,2.09-1.52,4.45-2.65,6.64-4,1.45-.92,2.72-2.11,4.18-3a7.25,7.25,0,0,1,2.87-1C321,980.66,321.67,981.18,321.94,981.29Z"/><path class="cls-1" d="M284.25,92.82c1.2-3.63,4.72-3.11,7.36-2.4,1.85.49,3.26,2.83,4.66,4.53.19.24-.72,2-1.31,2.15a8.29,8.29,0,0,1-4.69-.06C288.28,96.15,286.61,94.53,284.25,92.82Z"/><path class="cls-1" d="M165.14,816.39c-.11-3.54,1.88-4.88,5.06-4.31,4.66.83,9.27,2,13.91,3l-.09,1.21H165Z"/><path class="cls-1" d="M153.52,983.2c.13-5.87-2.07-12.16,3.29-17.09.8-.74,2.28-.72,3.44-1.06a20.9,20.9,0,0,1-1,3.46c-.77,1.62-2.17,3-2.62,4.72-.87,3.32-1.28,6.76-1.88,10.16Z"/><path class="cls-1" d="M205.43,675.74c0,4.43,0,8.88-.12,13.31a4.38,4.38,0,0,1-1.43,2.52c-.19.19-2-.63-1.95-1,.15-4.45.38-8.91.88-13.34.07-.57,1.79-1,2.74-1.43Z"/><path class="cls-1" d="M109,98.91c-.44,3.93-.28,7.12-4.49,7.32-2.57.13-3.46-1.19-3.33-3.57.15-2.82,3.46-6.61,5.69-6C107.94,96.9,108.64,98.47,109,98.91Z"/><path class="cls-1" d="M217.31,212.09c-1.36-.25-2.74-.42-4.07-.77-6.78-1.83-6.85-2-3.12-8.89,2.65,3.15,8.13,3.95,7.07,9.77Z"/><path class="cls-1" d="M210.33,645.92a46.29,46.29,0,0,1-1.27,6.4c-.38,1.08-1.47,1.91-2.24,2.85-1.21-1-3.6-2.39-3.43-3a87.06,87.06,0,0,1,4.18-9.9Z"/><path class="cls-1" d="M246.51,1145.53a28.24,28.24,0,0,1,2.51,3.2c1.3,2.24,2.46,4.57,3.6,6.9.41.85,1,1.89.8,2.68a11.47,11.47,0,0,1-1.81,3.06c-.82-.87-2.34-1.77-2.31-2.62.12-3.37-.26-6.19-3.31-8.41-.85-.63-.56-2.83-.79-4.31Z"/><path class="cls-1" d="M223.91,938.56c.42-3.1.7-5.1,1-7.32a65.63,65.63,0,0,1,6.63,1.35c.67.2,1.66,1.56,1.49,2-.54,1.3-1.34,3.05-2.44,3.42C228.63,938.63,226.38,938.4,223.91,938.56Z"/><path class="cls-1" d="M241.75,884.56c-1.13-2.86-2.34-5.7-3.32-8.62-.27-.83.16-1.9.27-2.87,1,.37,2.26.48,3,1.16,1.87,1.86,4,3.59,3.55,6.86-.3,2.37-1,3.66-3.57,3.36Z"/><path class="cls-1" d="M243.38,287.17a58.4,58.4,0,0,0,6.38,1.36,23.18,23.18,0,0,0,5.24-.31,14.35,14.35,0,0,1,5.67-.11c-3.21,1.55-6.43,4.3-9.63,4.29-2.53,0-5-3.44-7.55-5.34Z"/><path class="cls-1" d="M192.86,571.47a37.05,37.05,0,0,1,3.33,1.68c2,1.23,3.85,2.57,5.66,3.79L193,582c0-4.22,0-7.44,0-10.67Z"/><path class="cls-1" d="M120.1,153.08c6.9,1.22,9,2.86,8.84,6.56,0,.94-.7,2.61-1.19,2.65a3.85,3.85,0,0,1-3-1.2C123.12,158.79,121.88,156.24,120.1,153.08Z"/><path class="cls-1" d="M133.8,1177c.14-5.52,6.2-9.3,9.89-6.89a3,3,0,0,1,.23,2.48C140.71,1174.18,137.4,1175.51,133.8,1177Z"/><path class="cls-1" d="M165.06,166.76c1.34-1.36,2.65-2.76,4-4.06.47-.45,1.45-.51,1.7-1,2-4,5.5-3.41,8.94-3.08l-.09-.08c-3.26,2.54-6.41,5.27-9.87,7.51-1.22.8-3.2.45-4.83.61Z"/><path class="cls-1" d="M96.75,617.9l-10.3,7.73-1.37-1.26c1.14-1.57,1.94-3.7,3.47-4.61C94.41,616.29,94.5,616.44,96.75,617.9Z"/><path class="cls-1" d="M185.43,515.26c.43-4.32,5.61-9.74,9.55-9.46-3,3.6-3.79,9-9.66,9.34Z"/><path class="cls-1" d="M97,81.74c-1.41,3.45-7.55,5.62-10.45,3.62-.47-.32-1-1.46-.8-1.65a3.92,3.92,0,0,1,2.17-1.48c3-.26,6.13-.27,9.2-.37Z"/><path class="cls-1" d="M244.9,150.05c3.19.22,6.83-1.08,9.09,2.33.55.84.34,2.18.48,3.29-1.1-.06-2.5.3-3.24-.25-2.21-1.64-4.16-3.63-6.21-5.49Z"/><path class="cls-1" d="M228.26,1052.09c2.46,5.49-2.17,8.42-4.37,12.42C223,1059.87,225.33,1053.41,228.26,1052.09Z"/><path class="cls-1" d="M103.71,190.9c3.16-.93,6.34-1.46,8.53,2,.35.56-.65,2-1,3L103,192.7Z"/><path class="cls-1" d="M187.71,1088.12l12.08-6.89C197.34,1086.23,194.55,1090.53,187.71,1088.12Z"/><path class="cls-1" d="M233.37,687.77c0-3.08,0-6.17.16-9.24.05-.88.89-1.71,1.38-2.56.88.66,2.27,1.15,2.55,2,1.18,3.72-.59,7.5-4.2,9.69Z"/><path class="cls-1" d="M157.78,991.85c-1.49,1.21-2.85,3-3.54,2.75-1.35-.45-2.31-2-3.44-3.14l4-4Z"/><path class="cls-1" d="M205.55,334.71c1.81-3.43,7-5,8.9-3.07.41.41-.32,2.9-.68,2.93C211.17,334.83,208.54,334.71,205.55,334.71Z"/><path class="cls-1" d="M224.85,668.29a31.06,31.06,0,0,1,5.8.2,3.86,3.86,0,0,1,2.29,2.35c.27.82-.29,2.67-.8,2.8a3.76,3.76,0,0,1-3.19-.79c-1.36-1.52-5.29-.94-4-4.67Z"/><path class="cls-1" d="M241.63,884.45a8.72,8.72,0,0,1-8.45,8.41l.11.11c.43-3.91,4.68-8.14,8.46-8.41Z"/><path class="cls-1" d="M128.92,888.71l8.12,6.34c-6.82,3.26-8.28,2-8-6.45Z"/><path class="cls-1" d="M163.35,939.87c-3.23.33-.9,6.28-5.42,4.49-.81-.32-1.3-3.84-.57-5.1C158.58,937.14,160.89,936.86,163.35,939.87Z"/><path class="cls-1" d="M283.54,748.06c-1.44,3.5-4.16,4.55-7.63,3.76-.67-.16-1.12-1.32-1.66-2,.62-.43,1.22-1.16,1.89-1.23,2.49-.25,5-.28,7.51-.4Z"/><path class="cls-1" d="M101.16,575.8c4,3.68,3.69,8.3,3.19,13.86-3.81-4.64-3-9.4-3.07-14Z"/><path class="cls-1" d="M199.36,631l3.32,3-3.75,3.85c-.92-1-2.59-2.07-2.54-3C196.44,633.71,198,632.65,199.36,631Z"/><path class="cls-1" d="M137.4,531.24c1.34-3.23,3.86-3.62,6.84-2.77a12.55,12.55,0,0,1,5.23,2.65H137.3Z"/><path class="cls-1" d="M110.22,992.69a51.25,51.25,0,0,1,5.91,2.75c.49.29.31,1.71.43,2.61-.89.09-2,.57-2.61.18a47.58,47.58,0,0,1-4.54-4Z"/><path class="cls-1" d="M270.74,631.34c5-2.88,7.56-2.28,9.31,2.59Z"/><path class="cls-1" d="M101.28,575.69c-3.16-1.75-3.82-6.87-.37-11,.08,3.72.17,7.43.25,11.15Z"/><path class="cls-1" d="M289.55,739.69c.11,6.64-.62,7.66-6,8.38l.1.09a32.89,32.89,0,0,1,2.49-5.49c.81-1.2,2.33-1.93,3.53-2.87Z"/><path class="cls-1" d="M264.39,284.7h8.42l.05,1.85-8.42.5C264.42,286.26,264.4,285.48,264.39,284.7Z"/><path class="cls-1" d="M128.29,248.8l-6.55,2.13-.6-1.61c1.43-2.49,3.89-2.53,6.51-2.19Z"/><path class="cls-1" d="M229.82,1048.69c-.89-2.84-1.52-5.6,3.88-7.68l-2.38,8.12Z"/><path class="cls-1" d="M266.91,154.35c-2.94,4.61-4.19,4.67-7.36.45Z"/><path class="cls-1" d="M173.42,746.37l7.57-3C179.07,748.05,178.41,748.31,173.42,746.37Z"/><path class="cls-1" d="M243.49,287.06l-7.77-2.15.46-1.47c3.27-.66,6-.12,7.19,3.73Z"/><path class="cls-1" d="M201.38,768.41c-2.2,2.82-4.63,5.14-8.66,4l.11.1c1.29-4.75,5.19-3.93,8.65-4Z"/><path class="cls-1" d="M211.38,723.77c-1.36,3.39-2.62,4-7,3.61,2-3.55,2-3.55,7.15-3.5Z"/><path class="cls-1" d="M70.18,955.11l1.36,7C68.41,961.82,68,960.32,70.18,955.11Z"/><path class="cls-1" d="M141,423.61l-7,5.29c-.37-5,.8-5.76,7.09-5.21Z"/><path class="cls-1" d="M274.1,995.06c1.46-.43,2.92-.89,4.4-1.18a18.15,18.15,0,0,1,.66,2.11l-4.41,1.28Z"/><path class="cls-1" d="M257.59,916.4c.23,5.62-3.95,3.83-6.91,4.11l.1.08c2.07-1.76,3.41-4.77,6.93-4.07Z"/><path class="cls-1" d="M275.05,156.43a43.6,43.6,0,0,1-4.45,1.19c-.17,0-.56-1.28-.85-2l4.74-1.35Z"/><path class="cls-1" d="M189.59,664.05a22.53,22.53,0,0,1-3.08,3.3,3.47,3.47,0,0,1-2.67,0,1.88,1.88,0,0,1-.59-1.75,2.89,2.89,0,0,1,1.86-1.25,38.78,38.78,0,0,1,4.59-.2Z"/><path class="cls-1" d="M203.91,1078.22a11.12,11.12,0,0,1,4-4.66c0,1.23.34,2.74-.23,3.6s-2.15,1.27-3.28,1.86Z"/><path class="cls-1" d="M335,200.44l-6,1.84c-.18-.64-.36-1.28-.53-1.92l6.09-1.61Z"/><path class="cls-1" d="M213.13,511.77c-2.49-.56-5.89.62-6.68-3.89,2.63,1,5.79.35,6.57,4Z"/><path class="cls-1" d="M285.7,989.12l-2.56,3.8c-.63-.54-1.89-1.45-1.82-1.57a39.91,39.91,0,0,1,2.63-3.6Z"/><path class="cls-1" d="M277,901,269.9,898C273.09,895.54,274.32,895.92,277,901Z"/><path class="cls-1" d="M119.51,898.77a39.92,39.92,0,0,1,3.87-2.06,13.53,13.53,0,0,1,1.26,2l-4.09,1.94Z"/><path class="cls-1" d="M263.65,527.78l-8.12,3.11-.43-1.43c2.33-2.49,5.76-1.06,8.65-1.58Z"/><path class="cls-1" d="M115.46,554.13l4.15-2.24a13.38,13.38,0,0,1,.66,1.71c-1.32.72-2.72,1.33-4.1,2C115.94,555.08,115.7,554.6,115.46,554.13Z"/><path class="cls-1" d="M237.51,1033.78c-.93,1.59-1.85,3.19-2.78,4.79l-1.35-.67q1.13-2.51,2.24-5Z"/><path class="cls-1" d="M345.26,403.37c0-.54-.29-1.24,0-1.6a10.24,10.24,0,0,1,2.26-2.34c.13-.1,1,.82,1.55,1.27a22.92,22.92,0,0,1-2.29,2.33c-.37.29-1.06.16-1.6.22Z"/><path class="cls-1" d="M81.79,970.91c-1.64.88-2.48,1.71-3,1.54a3.07,3.07,0,0,1-1.65-1.89c-.12-.35,1-1.56,1.32-1.49C79.31,969.23,80.09,969.92,81.79,970.91Z"/><path class="cls-1" d="M112.49,557.05l-4.15,2.59-1-1.61,4-2.66Z"/><path class="cls-1" d="M217.19,212.2c4.07,3.44,4.07,3.44,2.31,6.37l-2.19-6.48Z"/><path class="cls-1" d="M113.09,710.49c.6-2.21,1.2-4.43,2-7.55,2.22,3.67,2.22,3.67-2.15,7.44Z"/><path class="cls-1" d="M156.58,1181.63l6.44,1.84c-3.24,2.14-3.24,2.14-6.33-2Z"/><path class="cls-1" d="M303,374.51c-.05.83.23,2-.21,2.41a7,7,0,0,1-3.32,1.7c-.49.1-1.21-1.12-1.83-1.74a18.8,18.8,0,0,1,3-2.16,6.55,6.55,0,0,1,2.48-.09Z"/></g></g></svg>