<svg xmlns="http://www.w3.org/2000/svg" viewBox="0 0 217.27 243.35"><defs><style>.cls-1{fill:#9dbba9;}.cls-2{fill:#96cda0;}.cls-3{fill:#b4d2be;}</style></defs><title>footer-logo</title><g id="Layer_2" data-name="Layer 2"><g id="Layer_1-2" data-name="Layer 1"><path class="cls-1" d="M217.27,0V243.35H0V0ZM7.31,237.17H209.8V6.18H7.31Z"/><path class="cls-2" d="M145.74,22.45c29.86-1.12,47.48,14.86,48.53,44,.82,22.58-18,44.58-38.68,45.34C124.8,112.93,102,95.06,101.94,68.11,101.88,44.33,114.78,21.53,145.74,22.45Zm5.94,83.49c10.89.1,18.12-4.06,23.28-13.44,10.36-18.83,6.33-43.59-9.54-58.61C154,23,133.34,25.08,123.18,37.23c-11.75,14.05-8.13,37.38,1.51,53.7,6.06,10.26,15.31,14.86,27,15Z"/><path class="cls-3" d="M26.86,208.32V181l2.83-.67c1.34,3.26,3,6.43,3.95,9.81,2.23,8.2,6.56,14.18,15.25,16.23,9.88,2.32,19.09,1.31,26.49-6.21,7.23-7.35,3.31-22.21-7.46-27.12-5.9-2.69-12.5-3.84-18.76-5.77-11.92-3.67-18.26-11-17.9-20.49.44-11.72,6.17-18.53,19.36-21.18,6-1.2,12.33-.88,18.47-.57,5.28.26,10.51,1.48,17,2.47.7,6.21,1.56,13.76,2.41,21.31L86,149.93c-1.83-2.58-3.85-5-5.45-7.76-6.83-11.55-22.12-16.32-32.15-9.9-8.81,5.65-9,14.49.22,19.19,5.4,2.73,11.81,3.6,17.86,4.86,11,2.27,18.35,8.39,21.57,19.17s3.46,21.78-5.43,29.29c-10.87,9.2-24.32,10.35-38.15,6.75C39.13,210.15,33.61,209.53,26.86,208.32Z"/><path class="cls-3" d="M100.63,126.22h35.82l1.48,2.66c-16.3-.23-13.42,10.08-12.69,19.32,1.08,13.7,2,27.42,3.08,41.12.77,9.3,6.53,14,15.3,15.25,10,1.38,21-3.32,22.38-12,2.86-18.64,4-37.59,4.79-56.46.12-2.8-5.45-5.83-9.1-9.46h28.22c-13.46,5.48-10.22,16.11-11.17,25.22-1.23,11.72-1.32,23.66-3.61,35.17-4.58,22.94-28.42,33.52-47.88,20.61-5.93-3.93-10.35-12.77-11.87-20.1-2.58-12.39-1.9-25.42-3.35-38.1C111,140.7,116.33,128.2,100.63,126.22Z"/><path class="cls-2" d="M83,26.8c.85,6.45,1.84,13.91,2.83,21.38l-2.58,1.17c-2-2.9-4-5.72-5.87-8.71C70.62,29.45,54.94,25.29,44.9,32.11c-8.3,5.64-8.48,14.08.36,18.65C50.64,53.54,57,54.57,63,55.89,81.51,60,91.41,78,85.22,95.94c-3.56,10.3-12,14-21.18,15.2-7.9,1-16.15-.49-24.23-1.13-4.49-.35-8.94-1.21-15.3-2.11v-27l2.21-.78C28,83,30.11,85.7,30.49,88.64c2.53,19.8,29,23.57,41.25,12.07,8.08-7.6,5.43-22.51-5.81-28-6.1-3-13.09-4.12-19.64-6.18C34,62.63,28.52,56.09,28.94,45.78c.46-11.46,5.84-18,18.72-20.47,6.28-1.22,13-.71,19.44-.47C72.05,25,77,26,83,26.8Z"/></g></g></svg>