<svg xmlns="http://www.w3.org/2000/svg" viewBox="0 0 107.89 28.84"><defs><style>.cls-1{fill:#819688;}</style></defs><title>icons</title><g id="Layer_2" data-name="Layer 2"><g id="Layer_1-2" data-name="Layer 1"><path class="cls-1" d="M96.51,13.23c1.54-1.51,3-3,4.54-4.43a3.84,3.84,0,0,1,.63-.42c.11.26.36.54.32.78-.22,1.5-.49,3-.79,4.49-.19.94-.45,1.87-.72,3,1.27-.94,2.3-1.75,3.39-2.47a3.58,3.58,0,0,1,1.26-.23,11.38,11.38,0,0,1-.29,1.15c-.54,1.51-1.1,3-1.65,4.52l.35.22c1.15-.46,2.29-.94,3.45-1.38a4,4,0,0,1,.85-.13,2.48,2.48,0,0,1,0,.86c-.51,1.31-1,2.62-1.62,3.89a5.68,5.68,0,0,1-4.6,3.56,1.61,1.61,0,0,0-.86.29c-2.21,2.12-4.74,1.49-7.28.9a2.6,2.6,0,0,0-1.3,0c-2,.55-4,1-5.83.06-1.34-.71-2.76-1.14-4.07-1.83a6.63,6.63,0,0,1-2.47-2.38,34.37,34.37,0,0,1-2-4.59.81.81,0,0,1,.07-.72c.13-.12.5-.05.72,0,1.19.46,2.36,1,3.54,1.44l.37-.24c-.58-1.54-1.17-3.08-1.73-4.62a5.5,5.5,0,0,1-.2-1.06c.35,0,.78,0,1,.15,1.13.75,2.21,1.57,3.49,2.49-.09-.5-.16-.92-.25-1.34-.4-1.91-.82-3.81-1.17-5.73-.07-.34.19-.75.3-1.13.27.23.55.46.81.71l4.35,4.19c1.06-2.37,2-4.6,3.08-6.81a3.76,3.76,0,0,1,.67-.83,6.17,6.17,0,0,1,.56.81C94.47,8.68,95.47,10.91,96.51,13.23Zm.81,7.15c1.08,1.48,2.27,3,3.26,4.58a1.16,1.16,0,0,0,1.48.66A6.35,6.35,0,0,0,106.19,20,4.52,4.52,0,0,0,102,23.78c-.3-.38-.54-.7-.48-.94.53-2.08,1.11-4.15,1.67-6.22a8.72,8.72,0,0,0,.12-.94,12.11,12.11,0,0,0-3.81,4.82c-.13.32-.51.54-.77.81l-.15-.22q1.16-5,2.32-10.07l-.34-.14c-1.71,1.64-3.85,2.92-4.44,5.52-.06.25-.5.41-.76.61L95,16.82c1.66-3.6-.91-6.08-2.1-9a38.24,38.24,0,0,0-2.16,4.22,4.33,4.33,0,0,0-.31,3.72c.13.29-.11.73-.18,1.1-.24-.28-.59-.53-.69-.85-.75-2.39-2.71-3.65-4.41-5.16l-.29.17,2.34,10.1-.31.2a4.24,4.24,0,0,1-.67-.89c-.77-2-2.51-4.06-3.84-4.49.62,2.25,1.23,4.46,1.8,6.69.07.3-.13.66-.21,1l-.5.15c-.21-2.63-1.9-3.49-4.2-3.72a19.06,19.06,0,0,0,2.28,4.25,5.81,5.81,0,0,0,2.41,1.29,1,1,0,0,0,.89-.26q1.62-2.22,3.12-4.52c.41-.63.6-.63,1.07,0,1.15,1.5,2.4,2.92,3.78,4.57Zm.18,2c-1.31,1.14-2.53,2.17-3.7,3.25-.49.44-.76,1.18.14,1.3a19.32,19.32,0,0,0,4.92.12c1.26-.17,1.44-1,.68-2.07S98.06,23.09,97.5,22.38Zm-9.39.07c-.54.69-1.37,1.66-2.07,2.72s-.44,1.68.66,1.85a19.11,19.11,0,0,0,4.72,0c1-.1,1.16-.72.4-1.44C90.67,24.5,89.4,23.53,88.11,22.45Z"/><path class="cls-1" d="M16.16,11.62c1.27-2.56,2.66-5.09,3-8,0-.32.31-.61.47-.92a2.91,2.91,0,0,1,.51.83,17.84,17.84,0,0,1-.32,8.25c-.3,1.29-.61,2.56-.91,3.85a2.9,2.9,0,0,0,0,1.14c2.12-2.14,4.35-4.12,5.63-6.9a3.49,3.49,0,0,1,.63-.71,2.74,2.74,0,0,1,.33.9,12.69,12.69,0,0,1-1.91,6.48c-.89,1.5-1.87,2.94-2.77,4.44A8.51,8.51,0,0,0,19.92,23a15.45,15.45,0,0,0,7.25-3.61l.3.25a6.61,6.61,0,0,1-.38,1.19A14.21,14.21,0,0,1,15.35,28.7,17.43,17.43,0,0,1,5.16,27.09,11.58,11.58,0,0,1,.07,21.65a3,3,0,0,1,0-1,3,3,0,0,1,.85.47A10.36,10.36,0,0,0,7.25,24.2c-.27-.38-.51-.77-.8-1.14-1.28-1.62-2.62-3.19-3.85-4.85A10.84,10.84,0,0,1,.32,12.76a3.72,3.72,0,0,1,.3-1.13,4,4,0,0,1,.76.77,21.07,21.07,0,0,0,4.89,5.25l.26-.13c-.21-.69-.43-1.38-.62-2.08-.7-2.57-1.44-5.13-2.06-7.72a10.71,10.71,0,0,1-.12-2.66,2.66,2.66,0,0,1,.39-.89c.2.24.51.46.59.74.88,3.24,3.18,5.57,5.23,8.35.28-1.19.5-2.18.73-3.16.66-2.73,1.32-5.47,2-8.2a2.74,2.74,0,0,1,.44-.72,2.77,2.77,0,0,1,.51.8c.76,3.21,1.48,6.43,2.22,9.65ZM13.31,4.75l-.31,0a64.3,64.3,0,0,0-2.91,14.94,2.41,2.41,0,0,0,.71,2,4.38,4.38,0,0,1,1.56,3.08,1.31,1.31,0,0,1-.77-.38,46.81,46.81,0,0,0-3-3.66c-2.09-2-4.31-3.94-6.48-5.89a.61.61,0,0,0-.24-.07,18,18,0,0,0,2,3.63c1.5,2.07,3.07,4.1,4.62,6.14a1,1,0,0,0,.29.3l4.45,2.32a24.5,24.5,0,0,1,2.17-1.83c.82-.55,1.77-.91,2.63-1.41a2.27,2.27,0,0,0,.87-.81c.69-1.31,1.26-2.69,2-4S22.6,16.38,23.39,15a17.48,17.48,0,0,0,.89-2.35C22.4,14.37,20.69,16.18,19,18c-2,2.24-4.31,4.3-5,7.46,0,.13-.29.22-.45.32-.12-.17-.36-.39-.33-.53A7,7,0,0,1,14,23.18c1-1.52,2.12-2.94,3.17-4.41a2.93,2.93,0,0,0,.57-1c.52-2.47,1-4.94,1.5-7.43.21-1.15.29-2.33.43-3.5-1.5,2.63-2.8,5.27-4.09,7.91A21.39,21.39,0,0,0,13,22.31c0,.22-.35.42-.54.62l-.29-.22a7.42,7.42,0,0,1,.18-1.78c.76-2.22,1.6-4.4,2.41-6.6.15-.43.45-.91.37-1.3C14.6,10.26,13.94,7.51,13.31,4.75ZM4.92,8H4.71c.16.75.29,1.52.5,2.26C6,13,6.74,15.77,7.63,18.47c.19.59.89,1,1.54,1.72a29.76,29.76,0,0,1,.37-3.88,3.64,3.64,0,0,0-.76-3.09C7.52,11.47,6.21,9.75,4.92,8Zm9,19.78c4.06.3,9.55-2.27,11.19-5.72C21.38,24,17.08,24.47,13.89,27.8Zm-1.8,0c-2.79-2.62-6.55-2.32-9.57-4.27C3.82,26.14,8.76,28.07,12.09,27.79Z"/><path class="cls-1" d="M48.71,12.68a32,32,0,0,0,.14-3.38c-.17-2.74-.47-5.46-.68-8.2A4.31,4.31,0,0,1,48.36,0a3.79,3.79,0,0,1,.93.66A17.36,17.36,0,0,1,52,8.8,8,8,0,0,0,52.54,11c.29-.9.55-1.81.86-2.7.57-1.69,1.15-3.37,1.78-5a5.93,5.93,0,0,1,.87-1.55A3.32,3.32,0,0,1,57,1.07a6,6,0,0,1,0,1.12c-.47,3-1,6-1.46,9l.48.17c.23-.34.45-.68.68-1,1-1.4,1.94-2.81,2.94-4.19a3.81,3.81,0,0,1,1-.86.67.67,0,0,1,.58,0,.55.55,0,0,1,.06.49C59.4,9.1,59.22,12.91,58,16.41c-.22.66-.5,1.3-.66,1.69.38.59.87,1,.84,1.38,0,.73.63,1.77-.7,2.14-.19.06-.35.51-.4.8-.3,1.8-.59,3.59-.82,5.39-.09.73-.36,1-1.12,1-2,0-4.09,0-6.13,0-.79,0-1-.36-1.12-1q-.34-2.65-.76-5.29a1.44,1.44,0,0,0-.36-.87,1.91,1.91,0,0,1-.12-3.13,1.05,1.05,0,0,0,.12-.88c-.57-1.77-1.24-3.5-1.77-5.27-.45-1.49-.79-3-1.1-4.53-.07-.34.17-.74.27-1.1a4,4,0,0,1,.79.75c1.14,1.75,2.24,3.53,3.35,5.3Zm-.74,9c.3,2,.56,3.9.88,5.79a.92.92,0,0,0,.71.48c1.71.05,3.42.05,5.12,0,.25,0,.68-.28.71-.48.33-1.89.6-3.79.89-5.8Zm3.84-3.22c.07-6.7-1-13.85-2.44-15.24.77,4.49.22,8.84-.07,13.2-.17,2.43-.19,2.34,2.35,2.14C51.69,18.52,51.72,18.48,51.81,18.42ZM55.3,6.26l-.34,0a36.82,36.82,0,0,1-1.74,5.48c-.94,2-.71,3.89-.49,5.86,0,.36.4.68.62,1,.28-.31.78-.61.81-.95C54.58,13.84,54.93,10.05,55.3,6.26Zm3.83,2.68-.29-.1c-2.31,2.8-4,5.85-3.67,9.68.77.33,1.16-.2,1.35-.82C57.42,14.78,58.27,11.86,59.13,8.94Zm-7,11.71c1.48,0,3,0,4.45,0,.27,0,.52-.33.78-.51-.26-.21-.53-.6-.8-.61q-4.44-.06-8.9,0c-.26,0-.51.41-.77.63.26.17.52.48.79.49C49.17,20.68,50.65,20.66,52.14,20.65ZM45.35,10.42l2.83,8.31A8.34,8.34,0,0,0,45.35,10.42Z"/></g></g></svg>