<?xml version="1.0" encoding="utf-8"?>
<!-- Generator: Adobe Illustrator 23.1.1, SVG Export Plug-In . SVG Version: 6.00 Build 0)  -->
<svg version="1.1" id="Layer_1" xmlns="http://www.w3.org/2000/svg" xmlns:xlink="http://www.w3.org/1999/xlink" x="0px" y="0px"
	 viewBox="0 0 109.4 115.9" style="enable-background:new 0 0 109.4 115.9;" xml:space="preserve">
<style type="text/css">
	.st0{fill:#93AB9A;}
	.st1{opacity:0.51;}
</style>
<title>logo</title>
<g>
	<g id="Layer_1-2">
		<path class="st0" d="M26.9,16.1l-0.6,0.5C26,16.3,25.5,16,25,16c-0.6,0-1.1,0.2-1.5,0.5c-0.3,0.2-0.5,0.4-0.6,0.7
			c-0.2,0.3,0,0.8,0.3,0.9c0.1,0.1,0.3,0.1,0.4,0.1c0.3,0,0.6-0.1,0.9-0.2c0.3-0.1,0.7-0.3,1-0.4c0.4-0.2,0.7-0.3,1.1-0.4
			c0.3-0.1,0.7-0.1,1.1,0c0.4,0.1,0.7,0.4,0.9,0.7c0.2,0.2,0.3,0.5,0.4,0.8c0.1,0.3,0,0.5-0.1,0.8c-0.1,0.3-0.2,0.5-0.4,0.8
			c-0.2,0.3-0.5,0.5-0.8,0.7c-0.3,0.3-0.7,0.5-1.1,0.6c-0.3,0.1-0.6,0.2-0.9,0.2h-0.2c-0.1,0-0.1,0-0.2,0.1c0,0.1,0,0.1,0,0.2
			c0,0.2,0,0.3,0.1,0.5l-0.6,0.4l-1.4-2l0.6-0.5c0.2,0.2,0.4,0.4,0.7,0.5c0.3,0.1,0.5,0.1,0.8,0.1c0.3,0,0.6-0.1,0.9-0.2
			c0.3-0.1,0.6-0.2,0.8-0.4c0.3-0.2,0.5-0.4,0.6-0.7c0.1-0.2,0-0.5-0.1-0.7c-0.1-0.2-0.4-0.3-0.6-0.3c-0.3,0-0.6,0.1-0.9,0.2
			c-0.3,0.1-0.7,0.3-1,0.4c-0.4,0.2-0.7,0.3-1.1,0.4c-0.3,0.1-0.7,0.1-1.1,0c-0.4-0.1-0.7-0.4-0.9-0.7c-0.3-0.4-0.4-1-0.3-1.5
			c0.2-0.6,0.6-1.1,1.1-1.5c0.3-0.2,0.6-0.4,1-0.5c0.3-0.1,0.6-0.2,0.9-0.2h0.2c0.1,0,0.1,0,0.2-0.1c0,0,0-0.1,0-0.2
			c0-0.1,0-0.3,0-0.4l0.6-0.4L26.9,16.1z"/>
		<path class="st0" d="M35.1,12.8c0.5,0.8,0.6,1.8,0.3,2.8c-0.4,0.9-1.1,1.6-2,2c-0.4,0.2-0.8,0.4-1.3,0.5c-0.4,0.1-0.8,0.1-1.2,0
			c-0.4-0.1-0.8-0.3-1.2-0.6c-0.4-0.4-0.8-0.8-1-1.3c-0.5-0.9-0.7-1.9-0.4-2.9c0.3-0.9,1.1-1.7,2-2.1c0.4-0.2,0.8-0.4,1.3-0.4
			c0.9-0.2,1.8,0,2.4,0.6C34.5,11.8,34.9,12.3,35.1,12.8z M30.8,12c-0.5,0.2-0.9,0.7-1,1.2c0,0.6,0.1,1.3,0.4,1.8
			c0.2,0.4,0.5,0.9,0.8,1.2c0.2,0.3,0.4,0.5,0.7,0.7c0.2,0.1,0.4,0.2,0.7,0.2c0.3,0,0.5-0.1,0.7-0.2c0.5-0.2,0.9-0.7,1-1.3
			c0-0.7-0.2-1.3-0.5-1.9c-0.2-0.4-0.4-0.8-0.7-1.1c-0.2-0.2-0.4-0.4-0.7-0.6c-0.2-0.1-0.5-0.2-0.7-0.1C31.3,11.8,31,11.9,30.8,12z"
			/>
		<path class="st0" d="M43.8,12.1c0.1,0.4,0.5,0.5,1.2,0.3l0.2,0.7l-2.7,0.8l-0.4-1.3c-0.1,0.2-0.1,0.4-0.2,0.6
			c-0.1,0.2-0.3,0.4-0.4,0.6c-0.2,0.2-0.4,0.4-0.6,0.5c-0.3,0.2-0.5,0.3-0.8,0.4c-0.5,0.2-1.1,0.2-1.6,0c-0.5-0.3-0.8-0.7-0.9-1.3
			l-1-3.3C36.4,9.8,36,9.7,35.3,10L35,9.3l2.7-0.9l1.2,4c0.1,0.4,0.3,0.7,0.6,1c0.2,0.2,0.5,0.2,0.8,0.1c0.4-0.1,0.8-0.4,1-0.8
			c0.3-0.4,0.4-0.9,0.4-1.4L41,8.8c0-0.2-0.2-0.3-0.4-0.4c-0.3,0-0.6,0-0.9,0.1l-0.2-0.7L42.3,7L43.8,12.1z"/>
		<path class="st0" d="M48.3,6L50,5.7l0.1,0.9c-0.3,0-0.5,0-0.8,0l-0.9,0.1l0.7,4.5c0,0.3,0.2,0.5,0.5,0.5c0.1,0,0.1,0,0.1,0
			c0.2,0,0.3-0.1,0.4-0.2c0.1-0.1,0.1-0.3,0-0.4L50,10.3l0.6-0.1l0.1,0.6c0,0.2,0,0.4,0,0.6c0,0.2-0.1,0.4-0.2,0.5
			c-0.1,0.2-0.3,0.3-0.5,0.4c-0.2,0.1-0.5,0.2-0.8,0.2c-0.5,0.1-1.1,0-1.5-0.2c-0.4-0.3-0.6-0.7-0.6-1.2L46.7,7l-1.1,0.2l-0.1-0.6
			c0.2-0.1,0.4-0.1,0.7-0.2c0.2-0.1,0.4-0.2,0.5-0.3c0.1-0.2,0.3-0.4,0.3-0.6c0.1-0.3,0.1-0.6,0-0.9V4.2L48,4L48.3,6z"/>
		<path class="st0" d="M55.1,6.8c0.3-0.4,0.8-0.7,1.2-1c0.5-0.3,1.1-0.4,1.7-0.4c0.5,0,1.1,0.1,1.5,0.5C59.9,6.2,60,6.8,60,7.3
			l-0.1,3.5c0,0.4,0.4,0.6,1.1,0.6v0.7l-3.8-0.1v-0.7c0.6,0,0.9-0.2,0.9-0.6V7.9c0-0.4,0-0.8-0.2-1.2c-0.1-0.2-0.4-0.4-0.7-0.4
			c-0.2,0-0.4,0-0.7,0.1c-0.2,0.1-0.4,0.2-0.6,0.4c-0.2,0.2-0.4,0.3-0.5,0.5c-0.2,0.2-0.3,0.4-0.4,0.7v2.7c0,0.4,0.3,0.6,0.9,0.6
			v0.7L52.1,12v-0.7c0.8,0,1.1-0.2,1.1-0.6l0.1-7.4c0-0.4-0.4-0.6-1.1-0.6V2l2.9,0.1L55.1,6.8z"/>
		<path class="st0" d="M64.5,9.3c-0.2,0.7-0.1,1.4,0.1,2.1c0.2,0.5,0.7,0.9,1.2,1c0.5,0.1,0.9,0.1,1.4-0.1c0.4-0.2,0.8-0.6,1-1
			l0.8,0.3c-0.1,0.3-0.3,0.5-0.5,0.8c-0.2,0.2-0.4,0.4-0.7,0.6c-0.3,0.2-0.6,0.3-1,0.3c-0.4,0.1-0.8,0.1-1.2,0
			c-0.4-0.1-0.9-0.2-1.3-0.4c-0.4-0.2-0.7-0.4-1-0.8c-0.3-0.4-0.5-0.8-0.6-1.2c-0.1-0.6-0.1-1.2,0-1.8c0.1-0.5,0.3-1,0.5-1.4
			c0.4-0.8,1.2-1.3,2.1-1.5c0.5-0.1,1-0.1,1.5,0c2.2,0.4,3,1.8,2.6,4L64.5,9.3z M68.1,9.3c0-0.3,0-0.5,0-0.8C68,8.3,68,8,67.9,7.8
			c-0.1-0.2-0.2-0.4-0.4-0.5C67.3,7.1,67,7,66.8,7c-0.4-0.1-0.9,0-1.3,0.2c-0.4,0.4-0.8,0.9-0.9,1.4L68.1,9.3z"/>
		<path class="st0" d="M76.6,15c-0.1,0.4-0.1,0.6,0.2,0.7c0.1,0,0.2,0,0.3-0.1c0.1-0.1,0.2-0.2,0.2-0.3l0.3-0.7l0.6,0.2L78,15.3
			c-0.1,0.2-0.2,0.5-0.4,0.6c-0.1,0.1-0.3,0.3-0.4,0.3c-0.2,0.1-0.3,0.1-0.5,0.1c-0.2,0-0.4-0.1-0.6-0.1c-0.2-0.1-0.4-0.2-0.5-0.3
			c-0.1-0.1-0.2-0.3-0.3-0.4c-0.1-0.2-0.1-0.3-0.1-0.5c0-0.2,0-0.3,0-0.5c-0.2,0.2-0.4,0.3-0.6,0.4c-0.2,0.1-0.5,0.2-0.7,0.2
			c-0.3,0-0.6,0-0.8,0c-0.3,0-0.6-0.1-0.9-0.2c-0.6-0.2-1.1-0.6-1.5-1.1c-0.2-0.5-0.3-1-0.1-1.5c0.1-0.3,0.3-0.5,0.5-0.7
			c0.2-0.2,0.5-0.3,0.7-0.4c0.3,0,0.6,0,0.9,0l1,0.1l1.1,0.2c0.4,0.1,0.8,0.1,1.2,0.2l0.1-0.4c0.1-0.2,0.1-0.4,0.1-0.6
			c0-0.2,0-0.4-0.1-0.6C76.1,10,76,9.8,75.8,9.7c-0.2-0.2-0.4-0.3-0.6-0.3c-0.3-0.1-0.7-0.2-1.1-0.3c-0.3,0-0.5,0-0.8,0.1
			c0.2,0.1,0.3,0.2,0.4,0.4c0.1,0.2,0.1,0.4,0,0.5c-0.1,0.2-0.2,0.4-0.4,0.5c-0.2,0.1-0.5,0.1-0.7,0c-0.2-0.1-0.4-0.3-0.5-0.5
			c-0.1-0.2-0.1-0.5,0-0.7c0.1-0.2,0.2-0.4,0.4-0.5c0.2-0.2,0.5-0.3,0.8-0.3c0.4-0.1,0.7-0.1,1.1,0c0.4,0,0.9,0.1,1.3,0.3
			c0.3,0.1,0.7,0.3,1,0.5c0.3,0.2,0.6,0.4,0.8,0.7c0.2,0.3,0.3,0.6,0.4,0.9c0.1,0.4,0,0.8-0.1,1.1L76.6,15z M75.8,12.2
			c-0.6-0.1-1.1-0.1-1.5-0.1c-0.4,0-0.7,0-1.1,0c-0.3,0-0.5,0.1-0.7,0.2c-0.2,0.1-0.3,0.3-0.4,0.5c-0.1,0.3-0.1,0.5,0,0.8
			c0.2,0.3,0.5,0.5,0.8,0.6c0.4,0.1,0.8,0.2,1.2,0.1c0.4-0.1,0.7-0.2,1-0.4L75.8,12.2z"/>
		<path class="st0" d="M85.5,16.4l-0.7-0.3c0.2-0.5,0.2-1.1,0-1.5c-0.2-0.5-0.6-0.9-1.1-1.2c-0.3-0.2-0.6-0.3-0.9-0.2
			c-0.2,0-0.5,0.1-0.6,0.3c-0.1,0.2-0.1,0.5,0,0.7c0.2,0.3,0.4,0.5,0.6,0.7c0.2,0.2,0.5,0.5,0.8,0.8c0.3,0.2,0.6,0.5,0.8,0.8
			c0.2,0.3,0.4,0.6,0.4,1c0.1,0.4,0,0.8-0.2,1.1c-0.1,0.3-0.3,0.5-0.6,0.7c-0.2,0.2-0.5,0.2-0.8,0.3c-0.3,0-0.6,0-0.9-0.1
			c-0.3-0.1-0.6-0.2-0.9-0.4c-0.4-0.2-0.7-0.5-1-0.8c-0.2-0.2-0.4-0.5-0.6-0.8c0-0.1-0.1-0.1-0.1-0.2c0-0.1-0.1-0.1-0.1-0.1
			c0,0-0.1,0-0.2,0.1c-0.1,0.1-0.3,0.2-0.4,0.3l-0.7-0.4l1.2-2.2l0.7,0.3c-0.1,0.3-0.2,0.6-0.1,0.8c0,0.3,0.1,0.6,0.2,0.8
			c0.1,0.3,0.3,0.5,0.5,0.7c0.2,0.2,0.5,0.4,0.7,0.6c0.3,0.2,0.6,0.3,0.9,0.2c0.2,0,0.5-0.2,0.6-0.4c0.1-0.2,0.1-0.5,0-0.7
			c-0.2-0.3-0.3-0.5-0.6-0.7c-0.3-0.2-0.5-0.5-0.8-0.8c-0.3-0.3-0.6-0.5-0.8-0.9c-0.2-0.3-0.4-0.6-0.4-1c-0.1-0.4,0-0.8,0.2-1.2
			c0.2-0.5,0.7-0.8,1.2-0.9c0.6-0.1,1.3,0.1,1.8,0.4c0.3,0.2,0.6,0.4,0.9,0.7c0.2,0.2,0.4,0.4,0.5,0.7l0.1,0.2
			c0,0.1,0.1,0.1,0.1,0.1c0,0,0.1,0,0.2-0.1c0.1-0.1,0.2-0.1,0.4-0.2l0.6,0.4L85.5,16.4z"/>
		<path class="st0" d="M90.6,17.1l1.4,1l-0.6,0.7c-0.2-0.2-0.4-0.4-0.6-0.5c-0.2-0.2-0.4-0.4-0.7-0.6l-2.7,3.6
			c-0.2,0.2-0.2,0.5,0,0.7c0,0,0.1,0.1,0.1,0.1c0.1,0.1,0.3,0.2,0.4,0.1c0.1-0.1,0.3-0.1,0.3-0.3l0.4-0.6l0.5,0.4l-0.3,0.5
			c-0.1,0.2-0.3,0.3-0.4,0.5c-0.1,0.1-0.3,0.2-0.5,0.2c-0.2,0-0.4,0-0.6,0c-0.3-0.1-0.5-0.2-0.7-0.4c-0.5-0.3-0.8-0.7-0.9-1.2
			c0-0.5,0.1-0.9,0.4-1.3l2.5-3.4L87.8,16l0.4-0.5c0.2,0.1,0.4,0.2,0.6,0.3c0.2,0.1,0.4,0.1,0.6,0.1c0.2,0,0.4-0.1,0.6-0.2
			c0.3-0.2,0.5-0.4,0.7-0.6l0.2-0.2l1,0.6L90.6,17.1z"/>
		<path class="st0" d="M24.9,98.5l-0.6-0.4c0.3-0.5,0.4-1,0.3-1.5c-0.2-0.5-0.5-1-0.9-1.3c-0.2-0.2-0.5-0.3-0.8-0.4
			c-0.2,0-0.5,0.1-0.6,0.2c-0.2,0.2-0.2,0.5-0.1,0.7c0.1,0.3,0.3,0.6,0.5,0.8c0.2,0.3,0.5,0.6,0.7,0.9c0.3,0.3,0.5,0.6,0.6,1
			c0.2,0.3,0.3,0.6,0.3,1c0,0.4-0.2,0.8-0.4,1.1c-0.2,0.2-0.4,0.4-0.7,0.6c-0.2,0.1-0.5,0.2-0.8,0.2c-0.3,0-0.6-0.1-0.8-0.2
			c-0.3-0.1-0.6-0.3-0.9-0.5c-0.3-0.3-0.6-0.6-0.9-0.9c-0.2-0.2-0.3-0.5-0.4-0.8c0-0.1,0-0.1-0.1-0.2c0-0.1-0.1-0.1-0.1-0.2
			c-0.1,0-0.1,0-0.2,0c-0.2,0-0.3,0.1-0.4,0.2l-0.6-0.5l1.6-1.9l0.6,0.4c-0.2,0.2-0.2,0.5-0.3,0.8c0,0.3,0,0.6,0.1,0.8
			c0.1,0.3,0.2,0.6,0.4,0.8c0.2,0.3,0.4,0.5,0.6,0.7c0.2,0.2,0.6,0.4,0.9,0.4c0.2,0,0.5-0.1,0.6-0.3c0.2-0.2,0.2-0.5,0.1-0.7
			c-0.1-0.3-0.3-0.6-0.5-0.8c-0.2-0.3-0.5-0.6-0.7-0.9c-0.3-0.3-0.5-0.6-0.6-1c-0.2-0.3-0.3-0.7-0.3-1c0-0.4,0.2-0.8,0.4-1.1
			c0.3-0.4,0.8-0.7,1.4-0.7c0.6,0,1.2,0.3,1.7,0.7c0.3,0.2,0.5,0.5,0.8,0.8c0.2,0.2,0.3,0.5,0.4,0.8c0,0.1,0,0.1,0.1,0.2
			c0,0.1,0.1,0.1,0.1,0.2c0,0,0.1,0,0.2,0c0.1,0,0.3-0.1,0.4-0.2l0.6,0.5L24.9,98.5z"/>
		<path class="st0" d="M31.3,105.8c-0.2,0.3,0,0.7,0.6,1l-0.4,0.6l-2.4-1.4l0.7-1.2c-0.2,0.1-0.4,0.2-0.6,0.3
			c-0.2,0.1-0.5,0.1-0.7,0.1c-0.3,0-0.5,0-0.8-0.1c-0.3-0.1-0.6-0.2-0.9-0.3c-0.5-0.2-0.9-0.6-1.1-1.2c-0.1-0.5,0-1.1,0.3-1.5l1.7-3
			c0.2-0.3,0-0.7-0.7-1.1l0.4-0.6l2.5,1.4l-2.1,3.7c-0.2,0.3-0.4,0.7-0.4,1.1c0,0.3,0.2,0.5,0.5,0.7c0.4,0.2,0.8,0.3,1.2,0.2
			c0.5-0.1,0.9-0.3,1.3-0.7l1.3-2.3c0.1-0.2,0.1-0.4,0-0.5c-0.2-0.2-0.4-0.4-0.7-0.6l0.4-0.7l2.5,1.4L31.3,105.8z"/>
		<path class="st0" d="M40.3,108.4c-0.2,0.3-0.4,0.5-0.6,0.8c-0.2,0.2-0.5,0.4-0.8,0.6c-0.3,0.1-0.7,0.2-1,0.2
			c-0.4,0-0.8-0.1-1.2-0.2c-0.5-0.2-0.9-0.4-1.3-0.7c-0.4-0.3-0.6-0.6-0.8-1c-0.2-0.4-0.3-0.8-0.3-1.3c0-0.5,0.1-1.1,0.3-1.6
			c0.3-0.9,0.9-1.7,1.8-2.2c0.9-0.4,1.9-0.4,2.8,0c0.4,0.1,0.7,0.3,1,0.5c0.3,0.2,0.5,0.4,0.7,0.7c0.2,0.2,0.3,0.5,0.3,0.8
			c0.1,0.3,0.1,0.5,0,0.8c-0.1,0.2-0.2,0.4-0.5,0.6c-0.2,0.1-0.5,0.1-0.7,0c-0.2-0.1-0.4-0.2-0.5-0.4c-0.1-0.2-0.1-0.4,0-0.6
			c0.1-0.2,0.2-0.3,0.4-0.4c0.2-0.1,0.4-0.1,0.6,0c-0.1-0.2-0.2-0.4-0.4-0.6c-0.2-0.2-0.5-0.4-0.8-0.4c-0.5-0.2-1.2-0.2-1.7,0.1
			c-0.6,0.4-1,1-1.2,1.7c-0.2,0.4-0.3,0.8-0.3,1.3c0,0.3,0,0.7,0.1,1c0.1,0.3,0.2,0.5,0.4,0.7c0.2,0.2,0.4,0.3,0.7,0.4
			c0.2,0.1,0.4,0.1,0.7,0.1c0.5,0,0.9-0.1,1.2-0.4c0.2-0.2,0.4-0.4,0.5-0.7L40.3,108.4z"/>
		<path class="st0" d="M48.2,110.1c-0.1,0.3-0.3,0.6-0.5,0.8c-0.2,0.3-0.4,0.5-0.7,0.7c-0.3,0.2-0.6,0.3-1,0.4
			c-0.4,0.1-0.8,0.1-1.3,0c-0.5-0.1-0.9-0.3-1.4-0.5c-0.4-0.2-0.7-0.5-1-0.8c-0.3-0.4-0.4-0.8-0.5-1.2c-0.1-0.5-0.1-1.1,0-1.6
			c0.1-1,0.7-1.9,1.5-2.4c0.8-0.5,1.8-0.7,2.8-0.4c0.4,0.1,0.8,0.2,1.1,0.4c0.3,0.2,0.6,0.3,0.8,0.6c0.2,0.2,0.4,0.4,0.5,0.7
			c0.1,0.2,0.1,0.5,0.1,0.8c0,0.2-0.2,0.5-0.4,0.6c-0.2,0.2-0.5,0.2-0.7,0.1c-0.2,0-0.5-0.2-0.6-0.4c-0.1-0.2-0.2-0.4-0.1-0.6
			c0-0.2,0.2-0.4,0.3-0.5c0.2-0.1,0.4-0.2,0.6-0.1c-0.1-0.2-0.3-0.4-0.5-0.5c-0.3-0.2-0.6-0.3-0.9-0.3c-0.6-0.2-1.2,0-1.7,0.3
			c-0.5,0.5-0.8,1.2-0.9,1.9c-0.1,0.4-0.1,0.9-0.1,1.3c0,0.3,0.1,0.6,0.2,0.9c0.1,0.2,0.3,0.5,0.5,0.6c0.2,0.2,0.5,0.3,0.8,0.3
			c0.2,0,0.4,0,0.7,0c0.2,0,0.4-0.1,0.6-0.2c0.2-0.1,0.4-0.2,0.5-0.4c0.2-0.2,0.3-0.5,0.4-0.7L48.2,110.1z"/>
		<path class="st0" d="M57.3,111.6c0,0.4,0.3,0.6,1,0.6v0.7l-2.8-0.1v-1.3c-0.1,0.2-0.3,0.4-0.5,0.5c-0.2,0.2-0.4,0.3-0.6,0.4
			c-0.2,0.1-0.5,0.2-0.8,0.3c-0.3,0.1-0.6,0.1-0.9,0.1c-0.5,0-1.1-0.2-1.5-0.5c-0.3-0.4-0.5-1-0.4-1.5l0.1-3.5
			c0-0.4-0.4-0.6-1.1-0.6V106l2.9,0.1l-0.2,4.2c0,0.4,0,0.8,0.2,1.2c0.2,0.2,0.4,0.4,0.7,0.4c0.4,0,0.8-0.1,1.2-0.4
			c0.4-0.3,0.7-0.7,0.9-1.2l0.1-2.7c0-0.2-0.1-0.4-0.3-0.5c-0.3-0.1-0.6-0.2-0.8-0.2v-0.7l2.9,0.1L57.3,111.6z"/>
		<path class="st0" d="M62.8,111.1c0,0.4,0.4,0.5,1.2,0.5l0.1,0.7l-4,0.4l-0.1-0.7c0.7-0.1,1.1-0.3,1-0.7l-0.8-7.3
			c0-0.4-0.4-0.5-1.2-0.5l-0.1-0.7l2.9-0.3L62.8,111.1z"/>
		<path class="st0" d="M66.7,108.4c0.1,0.7,0.5,1.4,1,1.9c0.4,0.4,1,0.5,1.5,0.4c0.5-0.1,0.9-0.3,1.2-0.7c0.3-0.4,0.5-0.8,0.5-1.3
			h0.8c0,0.3-0.1,0.6-0.1,0.9c-0.1,0.3-0.2,0.6-0.4,0.8c-0.2,0.3-0.5,0.5-0.7,0.7c-0.3,0.2-0.7,0.4-1.1,0.5
			c-0.4,0.1-0.9,0.1-1.3,0.1c-0.4,0-0.9-0.1-1.2-0.3c-0.4-0.2-0.7-0.5-1-0.9c-0.3-0.5-0.6-1-0.7-1.6c-0.1-0.5-0.1-1-0.1-1.5
			c0.1-0.4,0.2-0.9,0.4-1.3c0.2-0.4,0.5-0.7,0.9-1c0.4-0.3,0.9-0.5,1.4-0.6c2.1-0.5,3.5,0.4,4,2.6L66.7,108.4z M69.9,106.9
			c-0.1-0.3-0.2-0.5-0.3-0.8c-0.1-0.2-0.3-0.4-0.5-0.6c-0.2-0.1-0.4-0.3-0.6-0.3c-0.2-0.1-0.5-0.1-0.7,0c-0.4,0.1-0.8,0.4-1,0.8
			c-0.3,0.5-0.3,1.1-0.2,1.7L69.9,106.9z"/>
		<path class="st0" d="M81.1,105.6c0.2,0.3,0.6,0.4,1.3,0.1l0.3,0.7l-3.5,1.5l-0.3-0.7c0.5-0.2,0.7-0.5,0.6-0.9l-1.2-2.7
			c-0.1-0.4-0.4-0.7-0.7-1c-0.2-0.1-0.5-0.1-0.8,0c-0.2,0.1-0.4,0.2-0.6,0.4c-0.2,0.2-0.3,0.4-0.4,0.6c-0.1,0.2-0.2,0.5-0.3,0.7
			c-0.1,0.3-0.1,0.5-0.1,0.8l1.1,2.5c0.2,0.4,0.5,0.4,1,0.2l0.3,0.7l-3.4,1.5l-0.3-0.7c0.7-0.3,1-0.6,0.8-1l-1.6-3.6
			c-0.2-0.4-0.6-0.4-1.3-0.1l-0.3-0.7l2.7-1.2l0.5,1.2c0.1-0.5,0.4-1,0.7-1.4c0.4-0.5,0.8-0.8,1.4-1.1c0.5-0.2,1-0.3,1.6-0.2
			c0.5,0.2,0.9,0.6,1.1,1.2L81.1,105.6z"/>
		<path class="st0" d="M83,98.4l1.5-0.9l0.4,0.8c-0.2,0.1-0.5,0.2-0.7,0.3L83.4,99l2.4,3.9c0.1,0.3,0.4,0.4,0.7,0.3
			c0.1,0,0.1,0,0.1-0.1c0.1-0.1,0.2-0.2,0.3-0.3c0-0.1,0-0.3-0.1-0.4l-0.4-0.6l0.5-0.3l0.3,0.5c0.1,0.2,0.2,0.4,0.3,0.6
			c0.1,0.2,0.1,0.4,0,0.6c0,0.2-0.1,0.4-0.2,0.5c-0.2,0.2-0.4,0.4-0.6,0.5c-0.4,0.3-0.9,0.5-1.5,0.4c-0.4-0.1-0.8-0.4-1-0.8
			l-2.3-3.5l-1,0.6l-0.3-0.5c0.2-0.1,0.4-0.3,0.5-0.4c0.1-0.1,0.3-0.3,0.3-0.5c0.1-0.2,0.1-0.5,0-0.7c-0.1-0.3-0.2-0.6-0.4-0.8
			l-0.2-0.2l0.9-0.7L83,98.4z"/>
		<path class="st0" d="M91.1,95.2l-0.5,0.6c-0.4-0.4-0.9-0.6-1.4-0.6c-0.5,0-1.1,0.3-1.5,0.6c-0.3,0.2-0.4,0.4-0.6,0.7
			C87,96.8,87,97,87.2,97.2c0.2,0.2,0.4,0.3,0.7,0.3c0.3-0.1,0.6-0.2,0.9-0.3c0.3-0.2,0.7-0.3,1-0.5c0.3-0.2,0.7-0.3,1.1-0.4
			c0.3-0.1,0.7-0.1,1.1-0.1c0.4,0.1,0.7,0.3,0.9,0.6c0.2,0.2,0.3,0.5,0.4,0.8c0.1,0.3,0.1,0.6,0,0.8c-0.1,0.3-0.2,0.5-0.4,0.8
			c-0.2,0.3-0.4,0.5-0.7,0.7c-0.3,0.3-0.7,0.5-1.1,0.7c-0.3,0.1-0.6,0.2-0.9,0.2h-0.2c-0.1,0-0.1,0-0.2,0.1c0,0.1,0,0.1,0,0.2
			c0,0.2,0.1,0.3,0.2,0.4l-0.6,0.5l-1.6-1.9l0.5-0.5c0.2,0.2,0.5,0.3,0.7,0.4c0.3,0.1,0.6,0.1,0.8,0.1c0.6-0.1,1.2-0.3,1.7-0.7
			c0.3-0.2,0.5-0.5,0.6-0.8c0.1-0.2,0-0.5-0.2-0.7c-0.1-0.2-0.4-0.3-0.7-0.3c-0.3,0.1-0.6,0.2-0.9,0.3c-0.3,0.1-0.7,0.3-1,0.5
			c-0.3,0.2-0.7,0.3-1.1,0.4c-0.3,0.1-0.7,0.1-1.1,0c-0.4-0.1-0.8-0.3-1-0.6c-0.4-0.4-0.5-1-0.4-1.5c0.2-0.6,0.6-1.1,1.1-1.4
			c0.3-0.2,0.6-0.4,1-0.6c0.3-0.1,0.6-0.2,0.8-0.2h0.2c0.1,0,0.1,0,0.2-0.1c0,0,0-0.1,0-0.2c0-0.1,0-0.3-0.1-0.4l0.6-0.4L91.1,95.2z
			"/>
		<path class="st0" d="M67.8,78c-0.6,3.2-2.3,6.1-5,8.1c-1.4,1.1-2.8,2.1-4.2,3.2c-0.7,0.4-1.2,1.2-1.4,2c-0.1,0.4-0.4,0.7-0.9,0.7
			c-0.4,0.1-0.8-0.2-0.9-0.6c-0.2-1.3-1.3-1.9-2.2-2.7c-1.6-1.3-3.2-2.4-4.7-3.8c-1.7-1.5-2.9-3.4-3.5-5.6c-0.1-0.4-0.2-0.9-0.3-1.4
			c-0.9,0.1-1.7,0.2-2.5,0.4s-1.9,0.4-2.8,0.7c-0.4,0.2-0.8,0.4-1.1,0.6c-0.3,0.3-0.8,0.3-1.2,0.1c-0.4-0.2-0.6-0.6-0.5-1
			c0.1-1.2-0.4-2.5-1.2-3.4c-0.1-0.1-0.2-0.2-0.4-0.2c-2.4,0.4-4.8-0.2-7.1-0.5c-0.7-0.1-1.3-0.1-2,0c-0.9,0.1-1.4-0.5-1.1-1.4
			c0.3-1.4,0.6-2.8,0.8-4.2c0.2-1.9,1-3.6,2.3-5c0.3-0.3,0.6-0.6,1-0.9c-0.4-0.6-0.9-1.1-1.3-1.8c-0.9-1.6-1.8-3.1-2.7-4.7
			c-0.4-0.8,0-1.5,1-1.5c0.5,0,1.1-0.1,1.5-0.1c-0.6-1-1.2-2-1.7-3c-0.8-2-1.1-4.2-0.9-6.3c0-0.6,0.4-1,0.9-1.1c0.1,0,0.3,0,0.4,0.1
			c1.6,0.4,3.2,0.5,4.8,0.2c0.3,0,0.4-0.2,0.4-0.4c0-1.7,0.1-3.4,0.2-5.1c0-0.5,0-1-0.1-1.5c-0.1-0.4,0.1-0.8,0.4-1
			c0.3-0.2,0.7-0.3,1-0.1c1.2,0.7,2.6,1.1,4,1.1c0.9,0,1.7,0,2.6,0c0.2-0.7,0.3-1.5,0.6-2.3c0.6-1.5,1.4-2.8,2.4-4
			c0.4-0.6,0.7-1.3,1-2c0.2-0.4,0.3-0.8,0.8-0.9c0.5-0.1,0.9,0.1,1.2,0.5c0.3,0.4,0.8,0.7,1.2,1c0.9,0.5,1.8,0.8,2.8,1.2
			c1.5,0.5,2.9,1.6,3.7,3c0.8-0.7,1.4-1.5,1.9-2.4c0.2-0.4,0.4-0.8,0.5-1.2c0.1-0.4,0.5-0.7,1-0.7c0.4,0,0.8,0.3,0.9,0.7
			c0.4,1.2,1.1,2.3,1.9,3.2c0.1,0.1,0.2,0.2,0.3,0.3c0.1,0,0.1,0.1,0.2,0.1c1.1-1.9,3-2.7,5-3.5c0.7-0.3,1.4-0.6,2.1-1
			c0.3-0.2,0.5-0.4,0.7-0.6c0.2-0.4,0.7-0.6,1.1-0.5c0.4,0.1,0.6,0.4,0.8,0.8c0.3,0.8,0.6,1.5,1.1,2.2c1.4,1.9,2.7,3.8,2.8,6.3
			c2-0.2,3.9,0,5.8-0.7c0.3-0.2,0.6-0.3,0.9-0.5c0.3-0.1,0.7-0.1,1,0c0.4,0.1,0.6,0.5,0.5,0.9c-0.4,1.6,0,3.3,0,4.9
			c0,0.6,0,1.2,0,1.8c0,0.3,0,0.4,0.4,0.5c1.6,0.3,3.2,0.2,4.8-0.2c0.5-0.2,1.1,0,1.3,0.5c0.1,0.1,0.1,0.3,0.1,0.4
			c0.3,2.8-0.3,5.5-1.7,7.9c-0.3,0.5-0.7,0.9-1.1,1.4c0.5,0.1,1.1,0.1,1.6,0.1c0.6,0,1.1,0.4,1.1,1c0,0.2,0,0.4-0.1,0.6
			c-1.1,2.3-2.4,4.4-4,6.4c0.3,0.3,0.7,0.6,1,0.9c1.2,1.4,2,3.1,2.2,4.9c0.3,1.5,0.6,3,0.9,4.5c0.1,0.5-0.2,1-0.7,1.1
			c-0.1,0-0.2,0-0.3,0c-1.5-0.1-3.1,0-4.6,0.4c-1.5,0.3-3.1,0.4-4.7,0.2c-0.3-0.1-0.5,0.1-0.6,0.3c-0.8,1-1.2,2.2-1.1,3.4
			c0,0.6-0.4,1-1,1c-0.2,0-0.3,0-0.5-0.1c-1.4-0.9-3-1.4-4.7-1.5L67.8,78z M56.2,73c-0.9,1.7-2.5,3-4.4,3.6
			c-1.5,0.5-3.1,0.8-4.7,1.1c-0.4,0.1-0.5,0.2-0.4,0.6c0.5,2.2,1.8,4.2,3.6,5.7c1.9,1.6,3.9,3.1,5.9,4.6c0.6-0.5,1.1-1,1.8-1.4
			c1.3-1,2.7-2,4-3.1c1.8-1.5,3.1-3.5,3.7-5.8c0.1-0.4,0-0.5-0.4-0.6c-1.6-0.3-3.2-0.7-4.8-1.2C58.6,75.9,57.1,74.6,56.2,73L56.2,73
			z M35.6,67.8c-0.6,1.8-0.4,3.8,0.7,5.3c1,1.2,1.8,2.6,2.2,4.1l0.5-0.1c1.2-0.3,2.5-0.6,3.7-0.8c2-0.3,4-0.5,5.9-0.9
			c1.6-0.2,3.2-0.8,4.5-1.8c1.3-1.1,2-2.6,2.1-4.3c-0.8-0.4-1.5-0.8-2.2-1.1c-0.3-0.2-0.6-0.3-1-0.3c-2.1-0.1-4.2-0.5-6.2-1.2
			c-0.5-0.2-1-0.2-1.5,0c-2.5,1-5.2,1.4-7.9,1.1C36.1,67.8,35.9,67.8,35.6,67.8L35.6,67.8z M76.9,67.9c-1.2,0-2.4,0-3.6,0
			c-1.7,0-3.4-0.4-5-1.1c-0.5-0.3-1.1-0.3-1.6,0c-2,0.7-4.1,1.1-6.2,1.2c-0.3,0-0.5,0.1-0.7,0.2c-0.7,0.3-1.5,0.7-2.2,1.1
			c-0.1,0.1-0.3,0.2-0.3,0.3c0.1,1.6,0.8,3.2,2.1,4.2c1.8,1.4,4,1.7,6.1,2.1c2.1,0.3,4.1,0.5,6.2,0.8c0.8,0.2,1.5,0.3,2.2,0.6
			c0.3-0.6,0.5-1.2,0.8-1.8c0.3-0.5,0.6-1.1,1-1.6C77.1,72.3,77.6,70,76.9,67.9L76.9,67.9z M79.1,39.5l-4.2,0.4
			c-1.4,0.1-2.9,0.2-4.3,0.4c-1.9,0.1-3.4,1.4-3.9,3.2c0,0.2,0,0.4,0.1,0.6c0.6,0.8,1.3,1.6,1.9,2.4s1,1.6,1.4,2.3
			c0.8-0.4,1-0.4,1.5,0.3c0.4,0.7,0.7,1.5,0.9,2.3c0.2,0.6,0.3,1.2,0.4,1.7c1-0.2,1.9-0.4,2.8-0.6c0.2-0.1,0.4-0.2,0.6-0.3
			c1.2-1,2-2.3,2.4-3.7c0.4-1.5,0.6-3.1,0.6-4.7C79.3,42.4,79.2,40.9,79.1,39.5L79.1,39.5z M33.4,39.4c-0.3,2.5-0.3,5.1,0,7.6
			c0.2,1.7,0.8,3.2,1.9,4.5c0.5,0.8,1.4,1.3,2.3,1.3c0.4,0,0.8,0.1,1.2,0.3l0.8,0.3c0.1-0.6,0.2-1.2,0.4-1.8
			c0.2-0.9,0.5-1.8,1.1-2.6c0.3-0.4,0.7-0.4,1.1-0.2l0.3,0.1c0.3-0.6,0.6-1.1,0.9-1.6c0.8-1,1.6-2,2.3-3.1c0.1-0.2,0.2-0.4,0.2-0.6
			c-0.2-1.2-1-2.2-2.1-2.8c-1-0.4-2.1-0.7-3.2-0.8C38.1,39.8,35.7,40,33.4,39.4L33.4,39.4z M56.2,48c1.3-1,2.6-2,3.9-3
			c0.9-0.7,1.7-1.5,2.5-2.4c0.8-1,0.9-1.7,0-2.9c-0.6-0.7-1.3-1.4-2-1.9c-1.6-1.1-2.9-2.5-4.1-4c-0.1-0.1-0.2-0.2-0.3-0.4
			c-1.2,1.8-2.8,3.3-4.6,4.6c-0.7,0.5-1.3,1.2-1.8,1.8c-0.7,0.8-0.7,1.9,0,2.7c0.6,0.8,1.3,1.5,2,2.1C53.2,45.7,54.8,46.9,56.2,48z
			 M85.3,57.2c-1.3-0.5-2.5-1-3.7-1.4c-1-0.4-2.1-0.8-3.2-1c-1.6-0.4-3.3-0.2-4.8,0.5c-0.3,0.1-0.5,0.4-0.4,0.7
			c-0.1,1.1-0.2,2.2-0.3,3.3c-0.4,2.2-1.5,4.2-3.1,5.7c-0.1,0.1-0.2,0.2-0.2,0.3c1.2,0.2,2.3,0.5,3.4,0.6c2.5,0.5,5-0.2,7-1.7
			c1.3-1,2.4-2.2,3.4-3.6C84,59.4,84.7,58.2,85.3,57.2L85.3,57.2z M42.9,65.2L43,65c-0.2-0.1-0.3-0.2-0.4-0.3
			c-1.3-1.2-2.2-2.7-2.6-4.4c-0.4-1.4-0.6-2.9-0.6-4.4c0-0.2-0.1-0.4-0.3-0.6c-0.9-0.5-1.8-0.8-2.8-0.8c-1.9,0-3.7,0.4-5.4,1.2
			c-1.1,0.5-2.4,0.9-3.5,1.3c0,0,0,0.1,0,0.1c1,1.5,2,3.2,3.1,4.6c1.3,1.8,3.1,3.1,5.2,3.8c1.6,0.4,3.3,0.4,5,0.1
			C41.3,65.6,42.1,65.4,42.9,65.2L42.9,65.2z M56.2,52.8c-0.9,1.1-1.8,2.1-2.7,3.2c-0.6,0.7-1,1.5-1.3,2.3c-0.7,2.3-0.4,4.9,0.8,7
			c0.7,1.4,2.1,2.1,3.7,1.9c1.3-0.1,2.5-1,3-2.2c0.5-1,0.8-2.1,0.9-3.2c0.3-1.9-0.1-3.8-1.3-5.3C58.2,55.2,57.3,54,56.2,52.8z
			 M41.8,51.9c-0.1,0.1-0.1,0.2-0.1,0.2s-0.1,0.3-0.1,0.5c-0.4,1.9-0.5,4-0.1,5.9c0.2,1.8,1.1,3.5,2.4,4.7c1.2,1.1,2.7,1.8,4.3,2.1
			c0.9,0.2,1.8,0.3,2.7,0.5c-0.3-1-0.6-2-0.8-3c-0.4-1.7-0.3-3.4,0.2-5c0.2-0.5,0-0.8-0.4-1l-0.3-0.2l-3.2-1.6
			C44.8,54.3,43.2,53.2,41.8,51.9z M70.8,51.8L70,52.5c-1.4,1.1-2.9,2-4.5,2.8c-1,0.5-2.1,1.1-3.1,1.7c-0.2,0.1-0.5,0.2-0.3,0.6
			c0.5,1.4,0.7,3,0.4,4.5c-0.2,1.2-0.5,2.4-0.8,3.7c0.1,0,0.1,0,0.2,0c1.5-0.1,3.1-0.5,4.5-1.1c1.6-0.7,3-1.9,3.8-3.5
			c1-2.3,1.3-4.7,1-7.2C71.1,53.3,70.9,52.5,70.8,51.8L70.8,51.8z M61,55.5l1.8-1c1.6-0.8,3.1-1.6,4.7-2.5s1.5-1.1,0.8-2.6
			c0,0-0.1-0.1-0.1-0.1c-0.6-1.3-1.4-2.5-2.4-3.5l-1.6-1.8c-0.2,0.3-0.4,0.5-0.7,0.8c-1.3,1.1-2.7,2.2-4,3.3
			c-0.7,0.6-1.3,1.2-1.9,1.9c-0.3,0.4-0.3,0.9,0,1.3C58.7,52.6,59.8,54,61,55.5z M48.3,43.9c-1.1,1.4-2.2,2.7-3.2,4
			c-0.4,0.6-0.8,1.3-1,2c-0.4,1.2-0.4,1.3,0.7,1.9l0.3,0.2l6.4,3.4c0.3-0.5,0.7-0.9,1.1-1.4c0.8-1,1.6-2,2.4-3
			c0.3-0.3,0.3-0.7,0.1-1c-0.4-0.5-0.8-1-1.2-1.5C52.1,47,49.9,45.9,48.3,43.9z M71.2,38.1c-0.1-0.6-0.2-1.2-0.4-1.8
			c-0.6-1.8-2.1-3.1-3-4.8c-0.4,0.2-0.8,0.4-1.2,0.6c-1.2,0.5-2.4,1-3.5,1.6c-0.7,0.3-1.3,0.8-1.7,1.5c-0.2,0.3-0.2,0.6,0.2,0.8
			s0.7,0.6,1.1,0.9c1.4,1,2.3,2.4,2.5,4.1c0,0.2,0,0.4,0.1,0.7C67.3,39.1,67.3,39.1,71.2,38.1z M41.3,38.2c2.5,0.3,4.6,1.2,5.9,3.5
			c0-1.6,0.8-3.2,2-4.2c0.5-0.5,1.1-1,1.7-1.5c0.3-0.2,0.3-0.4,0.2-0.7c-0.3-0.5-0.7-0.9-1.1-1.2c-1.7-0.9-3.5-1.7-5.3-2.6
			C43.4,33.7,41.3,35.3,41.3,38.2z M85.6,72.5c-0.4-1.8-0.7-3.5-1.1-5.2c-0.3-1-0.9-1.9-1.7-2.5c-0.2-0.2-0.6-0.2-0.8,0c0,0,0,0,0,0
			c-0.9,0.7-1.8,1.3-2.8,1.9c-0.3,0.2-0.4,0.3-0.3,0.7c0.4,1.3,0.4,2.6,0.1,3.9c-0.1,0.6-0.4,1.2-0.6,1.8
			C80.9,73.5,83.1,72.7,85.6,72.5z M34,73.3c-0.2-0.7-0.4-1.3-0.6-1.9c-0.2-1.3-0.2-2.6,0.1-3.9c0-0.2,0-0.4-0.2-0.6
			c-1-0.7-2-1.4-3.1-2.2c-0.2-0.1-0.4-0.1-0.5,0c-0.6,0.5-1.1,1.1-1.5,1.8c-1,1.8-1,3.9-1.4,6C29.3,72.7,31.6,73.5,34,73.3z
			 M26.4,46.9c0.1,1,0.2,2,0.5,3c0.3,1.5,1.1,2.9,2.2,3.9c0.3,0.3,0.7,0.3,1,0.2c0.7-0.3,1.4-0.6,2.2-0.8c0.5-0.2,0.9-0.3,1.4-0.4
			c-1.3-1.7-2.1-3.7-2.4-5.8L26.4,46.9z M78.8,52.6c1.2,0.4,2.3,0.8,3.5,1.3c0.4,0.2,0.9,0.1,1.2-0.2c1.4-1.3,2.3-3.1,2.4-5
			c0.1-0.6,0.1-1.2,0.1-1.8h-4.8C80.9,49,80.1,51,78.8,52.6L78.8,52.6z"/>
		<g class="st1">
			<g>
				<path class="st0" d="M14.1,91.3c0.4-0.4,0.5-0.5,0.8-0.7l-0.1-0.1C-1,70.8-0.3,43.1,16.6,24.4c-0.4-0.2-0.4-0.2-0.7-0.4
					c-0.1-0.1-0.1-0.1-0.1-0.1c0,0,0,0,0,0c-17,19-17.8,47-2,67"/>
			</g>
			<g>
				<path class="st0" d="M97.3,89c13.5-18.9,12.8-44.6-1.6-62.8c-0.1-0.1-0.1-0.2-0.2-0.3c0,0,0,0,0,0c-0.4,0.3-0.4,0.3-0.8,0.6
					c14.5,18,15.1,43.5,1.4,62.1c0.6,0.3,0.7,0.4,1.1,0.7c0,0,0,0,0-0.1"/>
			</g>
		</g>
	</g>
</g>
</svg>
