<svg xmlns="http://www.w3.org/2000/svg" viewBox="0 0 929.42 243.35"><defs><style>.cls-1{fill:#9dbba9;}.cls-2{fill:#96cda0;}.cls-3{fill:#b4d2be;}</style></defs><title>logo2_1</title><g id="Layer_2" data-name="Layer 2"><g id="Layer_1-2" data-name="Layer 1"><path class="cls-1" d="M929.42,0V243.35H0V0ZM5.62,237.17H923.1V6.18H5.62Z"/><path class="cls-2" d="M418,23.72h37c-.43,1.85-.4,2.81-.72,3-3.71,1.6-10.29,2.52-10.71,4.69-1.62,8.22-1.51,16.85-1.35,25.31,0,1.21,3.89,3.26,6,3.35,11.13.43,22.28.23,33.41.49,5.84.14,8.45-2.63,8.58-8.21.06-2.63-.08-5.26.13-7.88.8-9.94,1.05-19.41-15.2-17.25l2-2.72h37.76c-12.77,2.28-12.41,11.87-12.55,20.72-.24,15.42.29,30.86-.24,46.27-.32,9.43.81,16.57,13.25,14.94-5,6-31.57,6.23-40.38.21,3-.34,5.49.08,6.94-.93,3-2.06,7.37-4.64,7.74-7.46a103.05,103.05,0,0,0,0-24.51c-.29-2.61-4.36-6.65-6.94-6.84a277.75,277.75,0,0,0-34.38-.32c-2.4.12-5.87,3.84-6.58,6.5-1.13,4.29-.33,9.09-.45,13.68-.25,10-3.2,21.59,13.16,22.51H416.47c12-6.45,12-6.45,12.29-21.11.25-15.4,0-30.82.66-46.21.37-8.9-.7-15.86-12.6-15.73C417.19,25.35,417.57,24.54,418,23.72Z"/><path class="cls-3" d="M637.65,207.22c10.91-.18,12.81-7.26,13.05-15.36.5-16.72,1.77-33.5.69-50.12-.36-5.61-6.84-10.82-10.59-16.3,5.83-4,20.05-1.67,26.33,5.55,16.07,18.49,32.32,36.81,51,55,0-5.52-.07-11,0-16.57.13-8.52,0-17.08.68-25.57s-.67-15.06-10.24-18.27h26.64c-11.38,3.71-8.72,13-9,20.84-.51,14.08-1.48,28.18-1.1,42.23.19,7.25,2.88,14.43,4.73,23-6,3.21-11.19.46-16.88-6.36-17.09-20.5-35-40.36-52.51-60.48l-3.08.92v25.83c0,6.57.14,13.13,0,19.69-.22,7.74-.56,15.39,10.93,16.49L667,210.16H638.47C638.2,209.18,637.92,208.2,637.65,207.22Z"/><path class="cls-2" d="M145.74,22.45c29.86-1.12,47.48,14.86,48.53,44,.82,22.58-18,44.58-38.68,45.34C124.8,112.93,102,95.06,101.94,68.11,101.88,44.33,114.78,21.53,145.74,22.45Zm5.94,83.49c10.89.1,18.12-4.06,23.28-13.44,10.36-18.83,6.33-43.59-9.54-58.61C154,23,133.34,25.08,123.18,37.23c-11.75,14.05-8.13,37.38,1.51,53.7C130.75,101.19,140,105.79,151.68,105.94Z"/><path class="cls-2" d="M597.94,45.13a47.61,47.61,0,0,1-2.37-5.91c-1.85-7.44-6.46-10.72-14.16-11-19-.59-27.34,11-20.08,29.12.74,1.85,4.68,3.68,6.86,3.4a13.93,13.93,0,0,0,8.44-4.54c1.68-2.12,1.39-5.8,2-8.79l3.89.17q.87,16,1.75,32l-3.56.67c-1.47-3-2.22-6.86-4.57-8.8A20.36,20.36,0,0,0,565.18,67c-1.27-.09-3.54,5.07-4.25,8.08a33.61,33.61,0,0,0-.38,10.79c.65,6.35-4.1,14.47,4.31,18.49,9.83,4.69,25.77,1,31.69-6.92,3.81-5.11,6.85-10.81,10.6-16.84,5.63,7.93-.59,13.8-1.28,20.18-1.07,9.78-7.31,9.62-14.74,9.49-15.41-.26-30.84.22-46.26.28-3,0-6-.51-10.65-.94,13.74-8.41,13.69-8.41,13.58-25.07q-.12-18.72,0-37.45c.09-16,.13-16-16.11-21.31,5.77-1.05,8.88-2.06,12-2.09,14.76-.17,29.53-.1,44.29-.07,13,0,13,0,12.71,13a53.87,53.87,0,0,1-.63,6.81C600,43.93,599.15,44.23,597.94,45.13Z"/><path class="cls-3" d="M552.57,125.66c5.73-.78,8.92-1.56,12.11-1.59,14.44-.13,28.89-.07,43.33,0,15.09,0,18.87,7.1,11.56,21.71-.57-.28-1.46-.43-1.67-.88-7.62-16.61-9.12-17.33-27.19-15.85-6.13.5-9,3.36-9.08,9.24-.1,4.27-.19,8.54-.07,12.81.14,4.71-1.3,10.29,6.63,10.47,6.47.15,10-2.07,10-8.92,0-1.5.76-3,1.23-4.75,5.88,5.33,7.55,23.2,2.44,34.42-1.8-4-2.33-7.41-4.33-9.05-3.23-2.64-7.44-4.09-11.23-6-1.58,3.1-3.72,6.06-4.57,9.35a27.3,27.3,0,0,0-.21,9.8c.75,6.32-4.28,14.45,4.44,18.41,10.17,4.62,25.75,1,31.57-7.09,3.58-5,6.42-10.46,11.77-15.69.31,3.09,1.35,6.32.82,9.27-3.32,18.56-4.8,19.6-23.81,19.67-13.45,0-26.9.31-40.36.39-3.09,0-6.19-.36-9.37-.56a14.67,14.67,0,0,1,.37-3c11-1.4,12.61-8.47,12.07-18.07-.74-13.1-.37-26.26-.38-39.4C568.6,133.05,568.63,133.05,552.57,125.66Z"/><path class="cls-3" d="M840.81,208.48V181.06l2.88-.73c1.33,3.22,2.08,6.89,4.12,9.58,4.32,5.69,8.31,13.05,14.25,15.77,9.24,4.24,19.5,2.45,27.25-5.48,7.32-7.5,3.6-22.21-7.29-27.16-6.2-2.82-13.15-3.93-19.7-6-11.51-3.7-17.15-10.54-16.89-20.18.3-11.48,5.67-18.28,18.26-21,6.26-1.33,12.95-1,19.43-.8,5.27.2,10.5,1.43,17,2.38.76,6.22,1.69,13.8,2.62,21.38L900.16,150c-2-2.81-4.15-5.52-5.92-8.46-6.81-11.25-22.55-15.62-32.39-8.87-8.1,5.56-8.18,14.26.57,18.65,5.42,2.71,11.79,3.73,17.85,4.94,11,2.19,18.41,8.24,21.76,19,6.81,21.85-5.65,38-29.73,38.08-4.84,0-9.68-1.4-14.52-2.16Z"/><path class="cls-3" d="M26.86,208.32V181l2.83-.67c1.34,3.26,3,6.43,3.95,9.81,2.23,8.2,6.56,14.18,15.25,16.23,9.88,2.32,19.09,1.31,26.49-6.21,7.23-7.35,3.31-22.21-7.46-27.12-5.9-2.69-12.5-3.84-18.76-5.77-11.92-3.67-18.26-11-17.9-20.49.44-11.72,6.17-18.53,19.36-21.18,6-1.2,12.33-.88,18.47-.57,5.28.26,10.51,1.48,17,2.47.7,6.21,1.56,13.76,2.41,21.31L86,149.93c-1.83-2.58-3.85-5-5.45-7.76-6.83-11.55-22.12-16.32-32.15-9.9-8.81,5.65-9,14.49.22,19.19,5.4,2.73,11.81,3.6,17.86,4.86,11,2.27,18.35,8.39,21.57,19.17s3.46,21.78-5.43,29.29c-10.87,9.2-24.32,10.35-38.15,6.75C39.13,210.15,33.61,209.53,26.86,208.32Z"/><path class="cls-3" d="M770.37,209.86c13.13-2.09,11.69-11.46,11.65-20.47-.06-15.08.73-30.17.45-45.24-.08-4.27-2.08-11.76-4.2-12.13-7.31-1.3-16.22-3.64-21.21,5.14-2.21,3.89-3,8.58-4.59,12.83-.64,1.67-1.86,3.12-5.28,4.33,0-8.89-.21-17.8.32-26.67,0-.89,4.51-2.16,6.93-2.17,24.27-.08,48.55.12,72.82.09,5.55,0,7.72,2.34,7.26,7.8-.59,6.79-.89,13.61-1.32,20.42l-3.45.46c-1.5-3.63-3-7.27-4.5-10.91-2.43-5.91-5.08-11.13-12.74-12-12.93-1.41-15.69.79-15.93,14-.27,14.44-.83,28.87-1,43.31-.09,9.14-2.73,20.38,14.87,17.75l-2,3.42Z"/><path class="cls-2" d="M376.09,109.7h-38l-2.47-2.55c17.37.54,14.19-10.56,14.35-19.69.26-14.43.83-28.87.41-43.29-.14-4.68,3.34-12.43-5.49-13.42-8.43-.95-17.5-1.86-22,8.24-1.18,2.67-1.61,5.66-2.6,8.43-.82,2.3-1.93,4.5-4.11,9.44-4.15-11.43-2-20.28-1.23-28.91.1-1.15,4.22-2.79,6.48-2.81q36.9-.2,73.79.21c2,0,5.63,1.5,5.68,2.46.45,8.38.26,16.79.26,25.19l-3.93.47c-1.75-4.29-3.36-8.64-5.26-12.87-4-8.79-14.29-13.26-22.71-9.19a10.31,10.31,0,0,0-4.88,7.45c-.68,19.67-.44,39.38-1.23,59.05-.41,10.37,8.17,6.65,12.91,9Z"/><path class="cls-2" d="M738.71,80.31c1.18,3.51,2.44,7,3.51,10.51,2.6,8.58,7.78,13.85,17,15.59,10.31,2,19.14-.08,25.75-8.15,6.24-7.62,1.48-21.64-8.93-26.17-6-2.59-12.55-3.7-18.81-5.64C745.61,62.87,740,56.26,740.05,46.57c.1-11.4,5.61-18.73,18-21,7.19-1.35,14.85-.36,22.29-.17,4,.1,7.95.72,13.84,1.3.77,6.23,1.71,13.88,2.65,21.53l-2.7,1.15c-1.75-2.71-3.59-5.36-5.24-8.12-6.79-11.4-22.24-16-32.31-9.49-8.81,5.66-9.07,14.59.2,19.26,5.69,2.86,12.43,3.78,18.78,5.17,9.77,2.14,16.59,7.55,20,17,7.2,19.72-1.08,35-21.74,38.29-7.2,1.15-14.88-.55-22.32-1.2-4.83-.41-9.63-1.26-16-2.13V80.84Z"/><path class="cls-3" d="M100.63,126.22h35.82l1.48,2.66c-16.3-.23-13.42,10.08-12.69,19.32,1.08,13.7,2,27.42,3.08,41.12.77,9.3,6.53,14,15.3,15.25,10,1.38,21-3.32,22.38-12,2.86-18.64,4-37.59,4.79-56.46.12-2.8-5.45-5.83-9.1-9.46h28.22c-13.46,5.48-10.22,16.11-11.17,25.22-1.23,11.72-1.32,23.66-3.61,35.17-4.58,22.94-28.42,33.52-47.88,20.61-5.93-3.93-10.35-12.77-11.87-20.1-2.58-12.39-1.9-25.42-3.35-38.1C111,140.7,116.33,128.2,100.63,126.22Z"/><path class="cls-2" d="M83,26.8c.85,6.45,1.84,13.91,2.83,21.38l-2.58,1.17c-2-2.9-4-5.72-5.87-8.71C70.62,29.45,54.94,25.29,44.9,32.11c-8.3,5.64-8.48,14.08.36,18.65C50.64,53.54,57,54.57,63,55.89,81.51,60,91.41,78,85.22,95.94c-3.56,10.3-12,14-21.18,15.2-7.9,1-16.15-.49-24.23-1.13-4.49-.35-8.94-1.21-15.3-2.11v-27l2.21-.78C28,83,30.11,85.7,30.49,88.64c2.53,19.8,29,23.57,41.25,12.07,8.08-7.6,5.43-22.51-5.81-28-6.1-3-13.09-4.12-19.64-6.18C34,62.63,28.52,56.09,28.94,45.78c.46-11.46,5.84-18,18.72-20.47,6.28-1.22,13-.71,19.44-.47C72.05,25,77,26,83,26.8Z"/><path class="cls-2" d="M813.42,53.46c0-8-.3-16,.25-23.95.1-1.56,3.43-4.14,5.29-4.15,25.56-.25,51.13-.18,76.69,0,1.63,0,4.63,1.54,4.67,2.46.36,8.39.21,16.8.21,25.21l-4,.42c-1.93-4.59-4-9.11-5.75-13.77-3.76-10.22-12.31-9.82-20.5-8.84s-7.1,8.19-7.22,13.91c-.33,15.08-.48,30.17-.58,45.26-.09,14,0,14,12.5,19.21H837.3c14.94-2.22,11.64-13.54,11.81-22.9.27-14.4.72-28.82.33-43.2-.12-4.18-2.3-11.45-4.52-11.85-7.68-1.39-16.86-3.36-21.75,6.09-1.92,3.71-2.61,8-4.1,12a29.24,29.24,0,0,1-2.84,4.7Z"/><path class="cls-3" d="M433.53,126.29h28.55c-13.77,7-10.16,18.57-11.3,28.62-1.21,10.74-1.42,21.64-3.45,32.21-3.24,16.86-15.3,26.14-31.21,25.45-18.48-.8-27-8.67-29.12-27.9-1.34-12-1.69-24.14-2.76-36.2-1.34-15.08-1.46-15.07-12.21-22.24h36.51L410.2,129c-16.55-.25-13.53,10.07-12.75,19.31,1.15,13.69,2.16,27.39,3.19,41.09.72,9.48,6.56,14.36,15.27,15.07,9.21.76,20-1.11,21.87-11,3.47-18.81,4.4-38.16,5.26-57.33C443.17,133.22,437.29,130,433.53,126.29Z"/><path class="cls-2" d="M683.82,23.36c0,6.52-1.29,11.57.22,15.56,7.4,19.65,15.09,39.21,23.73,58.33,2.34,5.19,8.33,8.74,12.05,12.46H684.11c0-1-.05-2-.08-3.06a22.5,22.5,0,0,1,4.84-.57c6.65.67,8.22-2.09,6.27-8.18-4.63-14.43-6.63-16-21.86-16.12l-9.85,0c-14.9,0-20,3.38-23.21,17.68-.66,3,3.13,6.9,5,10.68H622.72c19-20.33,27.19-46.49,40.22-69.82C668.22,30.8,675.61,25.54,683.82,23.36ZM685,75.21c-4.68-12.43-8.65-22.93-13.55-35.92l-19.9,35.92Z"/><path class="cls-2" d="M246.56,28.88c-13.69-1.64-13,6.92-12.43,15,1.07,15,2.47,30,3.71,45,.78,9.4,6.58,14,15.24,15.31,9.79,1.51,21.21-3.2,22.52-11.65,2.95-19,4.16-38.23,5-57.42.12-2.62-5.71-5.51-9.68-9.08h26.1c-10,4.18-7.89,13.14-8.58,20.9-1.14,12.73-1.37,25.6-3.49,38.15-4,23.39-26.22,33.81-47.28,22.94-9.72-5-12.34-14.15-13.27-23.81-1.29-13.35-1.87-26.78-2.63-40.18-.44-7.85,1.45-17.07-14-15.24l3-3.17h34.58Z"/><path class="cls-3" d="M360.29,126.13c-1.65,15.76-4.69,22.84-12.21,25.18C352.32,140,349.52,132.06,338,129c-12.55-3.35-26.27,2.32-33.33,13.28-9,14-8.67,43,9.39,56.94,12.23,9.43,29.37,6.32,37-7.15,2.69-4.73,5.08-9.63,7.61-14.45l2.56.48c0,2.19.48,4.51-.08,6.54-4.29,15.78-18.76,27.37-34.28,27.71-19,.41-31.16-9.28-38.33-25.91-11.9-27.64,6.75-58,27.9-61.65,8.86-1.54,18.16-.8,27.25-.6C349,124.28,354.25,125.38,360.29,126.13Z"/><path class="cls-3" d="M272.33,177.54c4.06,15.73-11.8,33.26-28.86,34.74-15.22,1.33-29.05-3.17-36.65-16.22-8.67-14.89-12.7-31.41-3.51-48.62,13-24.28,32.95-27.1,56-22.88,4.58.84,9.33.76,15.76,1.23-2.73,8.74-5.47,17.53-8.22,26.31l-3.4-.72c-.29-1.38-1-2.83-.81-4.15,1.67-12.06-3.74-18.3-15.92-18.79-26.73-1.07-35.3,19.72-34.07,39.4.73,11.78,4.06,23.57,15.08,31.5,12.53,9,29.59,6.08,37.13-7.37C267.49,187.25,269.84,182.36,272.33,177.54Z"/><path class="cls-3" d="M543.51,179.31c7,13.76-2.89,32-15.84,32-15.07,0-30.14,0-45.21-.14-2.39,0-4.76-1-8.3-2.69,13.43-2.66,11.4-12.33,11.45-20.89.08-15.08,0-30.17,0-45.26,0-11.76,0-11.76-13.12-17.22H509c-11.08,2.88-11.05,11.26-11,19.65.1,14.11-.12,28.23.47,42.31.23,5.57,1.51,15.42,3.65,15.8a51.46,51.46,0,0,0,24.51-1.39c4.69-1.56,7.8-8.23,11.33-12.83C539.94,186,541.38,182.93,543.51,179.31Z"/></g></g></svg>