<?xml version="1.0" encoding="utf-8"?>
<!-- Generator: Adobe Illustrator 23.1.1, SVG Export Plug-In . SVG Version: 6.00 Build 0)  -->
<svg version="1.1" id="Layer_1" xmlns="http://www.w3.org/2000/svg" xmlns:xlink="http://www.w3.org/1999/xlink" x="0px" y="0px"
	 viewBox="0 0 63.6 63.3" style="enable-background:new 0 0 63.6 63.3;" xml:space="preserve">
<style type="text/css">
	.st0{fill:#93AB9A;}
	.st1{fill:#96CDA0;}
	.st2{fill:#B4D2BE;}
	.st3{fill:#BCD8C0;}
</style>
<title>mobile-menu</title>
<g id="Layer_1-2">
	<g id="XMLID_1_">
		<g>
			<path class="st0" d="M63.5,17c0.3,2.8-0.3,5.5-1.7,7.9c-0.3,0.5-0.7,1-1.1,1.4c0.5,0.1,1.1,0.1,1.6,0.1c0.5-0.1,1,0.4,1.1,0.9
				c0,0,0,0.1,0,0.1c0,0.2,0,0.4-0.1,0.6c-1.1,2.3-2.4,4.4-4,6.4c0.3,0.3,0.7,0.6,1,0.9c1.2,1.4,2,3.1,2.2,4.9l0.9,4.5
				c0.1,0.5-0.2,1-0.7,1.1h-0.3c-1.5-0.1-3.1,0-4.6,0.4c-1.5,0.3-3.1,0.4-4.7,0.2c-0.2-0.1-0.5,0.1-0.6,0.3c-0.8,1-1.2,2.2-1.1,3.4
				c0,0.5-0.4,1-0.9,1c0,0-0.1,0-0.1,0c-0.2,0-0.4,0-0.5-0.1c-1.4-0.9-3-1.4-4.7-1.5l-2.1-0.2c-0.6,3.2-2.4,6.1-5,8.1
				c-1.4,1.1-2.8,2.1-4.2,3.2c-0.7,0.5-1.2,1.2-1.4,2c-0.1,0.4-0.5,0.7-0.9,0.7c-0.4,0.1-0.8-0.2-0.9-0.6c-0.2-1.3-1.3-1.9-2.2-2.7
				c-1.6-1.3-3.2-2.4-4.7-3.8c-1.7-1.5-2.9-3.4-3.5-5.6c-0.1-0.4-0.2-0.9-0.3-1.4c-0.8,0.1-1.7,0.2-2.5,0.4
				c-0.8,0.2-1.9,0.4-2.8,0.7c-0.4,0.2-0.8,0.4-1.1,0.6c-0.3,0.3-0.8,0.3-1.2,0.1c-0.4-0.2-0.6-0.6-0.5-1c0.1-1.2-0.4-2.5-1.2-3.4
				c-0.1-0.1-0.2-0.2-0.4-0.2c-2.4,0.4-4.8-0.2-7.1-0.5c-0.7-0.1-1.3-0.1-2,0c-0.9,0.1-1.4-0.5-1.1-1.4c0.3-1.4,0.6-2.8,0.8-4.2
				c0.2-1.9,1-3.6,2.3-5c0.3-0.3,0.6-0.6,1-0.9c-0.4-0.6-0.9-1.1-1.3-1.8C2,31,1.1,29.5,0.2,27.9c-0.4-0.8,0-1.5,1-1.5
				c0.5,0,1.1-0.1,1.5-0.1c-0.6-1-1.2-2-1.7-3c-0.8-2-1.1-4.2-0.9-6.3c0-0.5,0.4-1,0.9-1.1c0.1,0,0.3,0,0.4,0.1
				c1.6,0.4,3.2,0.5,4.8,0.2c0.2,0,0.4-0.1,0.4-0.3c0,0,0,0,0-0.1c0-1.7,0.1-3.4,0.2-5.1c0-0.5,0-1-0.1-1.5c-0.1-0.4,0.1-0.8,0.4-1
				c0.3-0.2,0.7-0.3,1-0.1c1.2,0.7,2.6,1.1,4,1.1h2.6c0.2-0.7,0.3-1.5,0.6-2.3c0.6-1.5,1.4-2.8,2.4-4c0.4-0.6,0.7-1.3,1-2
				C18.9,0.5,19,0.1,19.5,0c0.5-0.1,0.9,0.1,1.2,0.5c0.4,0.4,0.8,0.7,1.2,1c0.9,0.5,1.8,0.9,2.8,1.2c1.5,0.5,2.9,1.6,3.7,3
				c0.8-0.7,1.4-1.5,1.9-2.4c0.2-0.4,0.4-0.8,0.5-1.2c0.1-0.4,0.5-0.7,1-0.7c0.4,0,0.8,0.3,0.9,0.7c0.4,1.2,1.1,2.3,1.9,3.2l0.3,0.3
				c0.1,0,0.1,0.1,0.2,0.1c1.1-1.9,3-2.7,5-3.5c0.7-0.3,1.4-0.6,2.1-1c0.2-0.2,0.5-0.4,0.7-0.6C43.1,0.2,43.6,0,44,0.1
				c0.4,0.1,0.6,0.4,0.8,0.8c0.3,0.8,0.6,1.5,1.1,2.2c1.4,1.9,2.7,3.8,2.8,6.3c2-0.2,3.9,0,5.8-0.7c0.3-0.2,0.6-0.3,0.9-0.5
				c0.3-0.1,0.7-0.1,1,0c0.4,0.1,0.6,0.5,0.5,0.9c0,0,0,0,0,0c-0.4,1.6,0,3.3,0,4.9v1.8c0,0.3,0,0.4,0.4,0.5
				c1.6,0.3,3.2,0.2,4.8-0.2c0.5-0.2,1.1,0,1.3,0.5C63.5,16.8,63.5,16.9,63.5,17z M61.2,20c0.1-0.6,0.1-1.2,0.1-1.8h-4.8
				c-0.3,2.1-1.1,4.1-2.4,5.7c1.2,0.4,2.3,0.8,3.5,1.3c0.4,0.2,0.9,0.1,1.2-0.2C60.2,23.7,61.1,21.9,61.2,20z M60.9,43.8
				c-0.4-1.8-0.7-3.5-1.1-5.2c-0.3-1-0.9-1.9-1.7-2.5c-0.2-0.2-0.6-0.2-0.8,0c-0.9,0.7-1.8,1.3-2.8,1.9c-0.3,0.2-0.4,0.3-0.3,0.7
				c0.4,1.3,0.4,2.6,0.1,3.9c-0.2,0.6-0.4,1.2-0.6,1.8C56.2,44.8,58.4,44,60.9,43.8z M58.7,31.9c0.6-1.2,1.3-2.4,1.9-3.4
				c-1.3-0.5-2.5-1-3.7-1.4c-1-0.4-2.1-0.8-3.2-1c-1.6-0.4-3.3-0.2-4.8,0.5c-0.3,0.1-0.5,0.4-0.4,0.7l-0.3,3.3
				c-0.4,2.2-1.5,4.2-3.1,5.7c-0.1,0.1-0.2,0.2-0.2,0.3c1.2,0.2,2.3,0.5,3.4,0.6c2.5,0.5,5-0.2,7-1.7C56.6,34.5,57.7,33.3,58.7,31.9
				z M54.6,15.1c0-1.4-0.1-2.9-0.2-4.3l-4.2,0.4c-1.4,0.1-2.9,0.2-4.3,0.4C44,11.7,42.5,13,42,14.8c0,0.2,0,0.4,0.1,0.6
				c0.6,0.8,1.3,1.6,1.9,2.4c0.5,0.7,1,1.5,1.4,2.3c0.8-0.4,1-0.4,1.5,0.3c0.4,0.7,0.7,1.5,0.9,2.3c0.2,0.6,0.3,1.1,0.4,1.7
				c1-0.2,1.9-0.4,2.8-0.6l0.6-0.3c1.2-1,2-2.2,2.4-3.7C54.4,18.3,54.6,16.7,54.6,15.1z M51,45.2c1.4-1.6,1.9-3.9,1.2-6h-3.6
				c-1.7,0-3.4-0.4-5-1.1c-0.5-0.3-1.1-0.3-1.6,0c-2,0.7-4.1,1.1-6.2,1.2c-0.2,0-0.5,0.1-0.7,0.2c-0.8,0.3-1.5,0.7-2.2,1.1
				c-0.1,0.1-0.3,0.2-0.3,0.3c0.1,1.6,0.8,3.2,2.1,4.2c1.8,1.4,4,1.7,6.1,2.1c2.1,0.4,4.1,0.5,6.2,0.8c0.8,0.1,1.5,0.3,2.2,0.6
				c0.3-0.6,0.5-1.2,0.8-1.8C50.3,46.3,50.6,45.7,51,45.2z M45.5,32.5c1-2.3,1.3-4.7,1-7.2c-0.1-0.7-0.3-1.5-0.4-2.2l-0.8,0.7
				c-1.4,1.1-2.9,2-4.5,2.8c-1,0.5-2.1,1.1-3.1,1.7c-0.2,0.1-0.5,0.2-0.3,0.6c0.5,1.4,0.7,3,0.4,4.5c-0.2,1.2-0.5,2.4-0.8,3.7h0.2
				c1.6-0.1,3.1-0.5,4.5-1.1C43.3,35.3,44.7,34.1,45.5,32.5z M46.5,9.4c-0.1-0.6-0.2-1.2-0.4-1.8c-0.6-1.8-2.1-3.1-3-4.8l-1.2,0.6
				c-1.2,0.5-2.4,1-3.5,1.6c-0.7,0.3-1.3,0.8-1.7,1.5c-0.2,0.2-0.2,0.5,0,0.7c0,0,0.1,0.1,0.2,0.1c0.4,0.3,0.8,0.6,1.1,0.9
				c1.4,0.9,2.3,2.4,2.5,4.1c0,0.2,0,0.5,0.1,0.7C42.6,10.4,42.6,10.4,46.5,9.4z M42.8,23.3c1.6-0.9,1.5-1.1,0.8-2.6l-0.1-0.1
				c-0.6-1.3-1.4-2.5-2.4-3.5l-1.6-1.8c-0.2,0.3-0.4,0.6-0.7,0.8c-1.3,1.1-2.7,2.2-4,3.3c-0.7,0.6-1.3,1.2-1.9,1.9
				c-0.3,0.4-0.3,0.9,0,1.3c1.1,1.3,2.2,2.7,3.4,4.2l1.8-1C39.7,25,41.2,24.2,42.8,23.3z M41,49.6c0.1-0.4,0-0.5-0.4-0.6
				c-1.6-0.3-3.2-0.7-4.8-1.2c-1.8-0.6-3.4-1.8-4.3-3.5c-0.9,1.7-2.5,3-4.4,3.6c-1.5,0.5-3.1,0.8-4.7,1.1c-0.4,0.1-0.5,0.2-0.4,0.6
				c0.5,2.2,1.8,4.2,3.6,5.7c1.9,1.6,3.9,3.1,5.9,4.6c0.6-0.5,1.2-1,1.8-1.4c1.3-1,2.7-2,4-3.1C39.1,53.9,40.4,51.9,41,49.6z
				 M37.9,13.9c0.8-0.8,0.8-2,0.1-2.8c0,0,0-0.1-0.1-0.1c-0.6-0.7-1.3-1.3-2-1.9c-1.6-1.1-2.9-2.5-4.1-4c-0.1-0.1-0.2-0.2-0.3-0.4
				c-1.2,1.8-2.8,3.3-4.6,4.6c-0.7,0.5-1.3,1.1-1.8,1.8c-0.7,0.8-0.7,1.9,0,2.7c0.6,0.8,1.3,1.5,2,2.1c1.4,1.1,3,2.3,4.4,3.4l3.9-3
				C36.3,15.6,37.1,14.8,37.9,13.9z M35.9,33.1c0.3-1.9-0.1-3.8-1.3-5.3c-1.1-1.3-2-2.5-3.1-3.7c-0.9,1.1-1.8,2.1-2.7,3.2
				c-0.6,0.7-1,1.5-1.3,2.3c-0.7,2.4-0.4,4.9,0.8,7c0.7,1.4,2.2,2.1,3.7,1.9c1.3-0.1,2.5-1,3-2.2C35.5,35.3,35.8,34.2,35.9,33.1z
				 M30.3,22.3c0.3-0.3,0.3-0.7,0.1-1l-1.2-1.5c-1.8-1.5-4-2.6-5.6-4.6c-1.1,1.4-2.2,2.7-3.2,4c-0.4,0.6-0.8,1.3-1,2
				c-0.4,1.2-0.4,1.3,0.7,1.9l0.3,0.2l6.4,3.4c0.3-0.5,0.7-1,1.1-1.4L30.3,22.3z M28.4,44.9c1.3-1.1,2-2.6,2.1-4.3
				c-0.8-0.4-1.5-0.8-2.2-1.1c-0.3-0.2-0.6-0.3-1-0.3c-2.1-0.1-4.2-0.5-6.2-1.2c-0.5-0.2-1-0.2-1.5,0c-2.5,1-5.2,1.4-7.9,1.1h-0.8
				c-0.6,1.8-0.4,3.8,0.7,5.3c1,1.2,1.8,2.6,2.2,4.1l0.5-0.1c1.2-0.3,2.5-0.6,3.7-0.8c2-0.3,4-0.5,5.9-0.9
				C25.5,46.5,27.1,45.9,28.4,44.9z M26.2,7.3c0.3-0.2,0.3-0.4,0.2-0.7c-0.3-0.5-0.7-0.9-1.1-1.2c-1.7-0.9-3.5-1.7-5.3-2.6
				c-1.3,2.2-3.4,3.8-3.4,6.7c2.5,0.3,4.6,1.2,5.9,3.5c0-1.6,0.8-3.1,2-4.2C25,8.3,25.6,7.8,26.2,7.3z M25.6,29.1
				c0.2-0.3,0.1-0.8-0.3-0.9c0,0-0.1,0-0.1-0.1l-0.3-0.2l-3.2-1.6c-1.7-0.8-3.2-1.8-4.6-3.1C17,23.3,17,23.4,17,23.4
				c0,0.2-0.1,0.3-0.1,0.5c-0.4,1.9-0.5,3.9-0.1,5.9c0.2,1.8,1.1,3.5,2.4,4.7c1.2,1.1,2.7,1.8,4.3,2.1c0.9,0.2,1.8,0.3,2.7,0.5
				c-0.3-1-0.6-2-0.8-3C25,32.5,25.1,30.8,25.6,29.1z M21,15.5c0.1-0.2,0.2-0.4,0.2-0.6c-0.2-1.2-1-2.2-2.1-2.8
				c-1-0.4-2.1-0.7-3.2-0.8c-2.5-0.2-4.9,0-7.2-0.6c-0.3,2.5-0.3,5.1,0,7.6c0.2,1.7,0.8,3.2,1.9,4.5c0.5,0.8,1.4,1.3,2.3,1.3
				c0.4,0,0.8,0.1,1.2,0.3l0.8,0.3c0.1-0.6,0.2-1.2,0.4-1.8c0.2-0.9,0.6-1.8,1.1-2.6c0.2-0.4,0.7-0.4,1.1-0.2l0.3,0.1
				c0.3-0.6,0.6-1.1,0.9-1.6C19.5,17.6,20.3,16.6,21,15.5z M18.2,36.5l0.1-0.2c-0.2-0.1-0.3-0.2-0.4-0.3c-1.3-1.2-2.2-2.7-2.6-4.4
				c-0.4-1.4-0.6-2.9-0.6-4.4c0-0.2-0.1-0.4-0.3-0.6c-0.9-0.5-1.8-0.8-2.8-0.8c-1.9,0-3.7,0.4-5.4,1.2c-1.1,0.5-2.4,0.9-3.5,1.3v0.1
				c1,1.5,2,3.2,3.1,4.6c1.3,1.8,3.1,3.1,5.2,3.8c1.6,0.4,3.3,0.4,5,0.1C16.7,36.8,17.5,36.7,18.2,36.5L18.2,36.5z M2.1,43.8
				c2.5,0.2,4.8,1,7.2,0.8c-0.2-0.7-0.4-1.3-0.6-1.9c-0.2-1.3-0.2-2.6,0.1-3.9c0-0.2-0.1-0.4-0.2-0.6c-1-0.7-2-1.4-3.1-2.2
				c-0.1-0.1-0.3-0.1-0.5,0c-0.6,0.5-1.1,1.1-1.5,1.8C2.5,39.6,2.5,41.7,2.1,43.8z M7.6,24.5C8,24.4,8.5,24.2,9,24.1
				c-1.3-1.7-2.1-3.7-2.4-5.8l-4.9-0.1c0.1,1,0.2,2,0.5,3c0.3,1.5,1.1,2.9,2.2,3.9c0.3,0.2,0.7,0.3,1,0.2C6.1,25,6.8,24.7,7.6,24.5z
				"/>
			<path class="st1" d="M61.3,18.2c0,0.6,0,1.2-0.1,1.8c-0.1,1.9-1,3.7-2.4,5c-0.3,0.3-0.8,0.4-1.2,0.2c-1.2-0.5-2.3-0.9-3.5-1.3
				c1.3-1.6,2.1-3.6,2.4-5.7H61.3z"/>
			<path class="st1" d="M59.8,38.6c0.4,1.7,0.7,3.4,1.1,5.2c-2.5,0.2-4.7,1-7.2,0.6c0.2-0.6,0.5-1.2,0.6-1.8
				c0.3-1.3,0.3-2.6-0.1-3.9c-0.1-0.4,0-0.5,0.3-0.7c1-0.6,1.9-1.2,2.8-1.9c0.2-0.2,0.6-0.2,0.8,0C58.9,36.8,59.5,37.6,59.8,38.6z"
				/>
			<path class="st2" d="M60.6,28.5c-0.6,1-1.3,2.2-1.9,3.4c-0.9,1.4-2.1,2.6-3.4,3.6c-2,1.5-4.5,2.2-7,1.7c-1.1-0.1-2.2-0.4-3.4-0.6
				c0-0.1,0.1-0.2,0.2-0.3c1.6-1.5,2.7-3.5,3.1-5.7l0.3-3.3c-0.1-0.3,0.1-0.6,0.4-0.7c1.5-0.7,3.2-0.9,4.8-0.5
				c1.1,0.2,2.2,0.6,3.2,1C58.1,27.5,59.3,28,60.6,28.5z"/>
			<path class="st2" d="M54.4,10.8c0.1,1.4,0.2,2.9,0.2,4.3c0,1.6-0.2,3.2-0.6,4.7c-0.4,1.5-1.2,2.7-2.4,3.7L51,23.8
				c-0.9,0.2-1.8,0.4-2.8,0.6c-0.1-0.6-0.2-1.1-0.4-1.7c-0.2-0.8-0.5-1.6-0.9-2.3c-0.5-0.7-0.7-0.7-1.5-0.3
				c-0.4-0.8-0.9-1.6-1.4-2.3c-0.6-0.8-1.3-1.6-1.9-2.4C42,15.2,42,15,42,14.8c0.5-1.8,2-3.1,3.9-3.2c1.4-0.2,2.9-0.3,4.3-0.4
				L54.4,10.8z"/>
			<path class="st2" d="M52.2,39.2c0.7,2.1,0.2,4.4-1.2,6c-0.4,0.5-0.7,1-1,1.6c-0.3,0.6-0.5,1.2-0.8,1.8c-0.7-0.3-1.4-0.5-2.2-0.6
				c-2.1-0.3-4.1-0.4-6.2-0.8c-2.1-0.4-4.3-0.7-6.1-2.1c-1.3-1-2-2.6-2.1-4.2c0-0.1,0.2-0.2,0.3-0.3c0.7-0.4,1.5-0.8,2.2-1.1
				c0.2-0.1,0.5-0.2,0.7-0.2c2.1-0.1,4.2-0.5,6.2-1.2c0.5-0.3,1.1-0.3,1.6,0c1.6,0.7,3.3,1.1,5,1.1H52.2z"/>
			<path class="st3" d="M46.5,25.3c0.3,2.5,0,4.9-1,7.2c-0.8,1.6-2.2,2.8-3.8,3.5c-1.4,0.6-2.9,1-4.5,1.1H37
				c0.3-1.3,0.6-2.5,0.8-3.7c0.3-1.5,0.1-3.1-0.4-4.5c-0.2-0.4,0.1-0.5,0.3-0.6c1-0.6,2.1-1.2,3.1-1.7c1.6-0.8,3.1-1.7,4.5-2.8
				l0.8-0.7C46.2,23.8,46.4,24.6,46.5,25.3z"/>
			<path class="st1" d="M46.1,7.6c0.2,0.6,0.3,1.2,0.4,1.8c-3.9,1-3.9,1-5.9,3.6c-0.1-0.2-0.1-0.5-0.1-0.7c-0.2-1.7-1.1-3.2-2.5-4.1
				c-0.3-0.3-0.7-0.6-1.1-0.9c-0.1,0-0.1-0.1-0.2-0.1c-0.2-0.2-0.2-0.5,0-0.7c0.4-0.7,1-1.2,1.7-1.5c1.1-0.6,2.3-1.1,3.5-1.6
				l1.2-0.6C44,4.5,45.5,5.8,46.1,7.6z"/>
			<path class="st3" d="M43.6,20.7c0.7,1.5,0.8,1.7-0.8,2.6c-1.6,0.9-3.1,1.7-4.7,2.5l-1.8,1c-1.2-1.5-2.3-2.9-3.4-4.2
				c-0.3-0.4-0.3-0.9,0-1.3c0.6-0.7,1.2-1.3,1.9-1.9c1.3-1.1,2.7-2.2,4-3.3c0.3-0.2,0.5-0.5,0.7-0.8l1.6,1.8c1,1,1.8,2.2,2.4,3.5
				L43.6,20.7z"/>
			<path class="st1" d="M40.6,49c0.4,0.1,0.5,0.2,0.4,0.6c-0.6,2.3-1.9,4.3-3.7,5.8c-1.3,1.1-2.7,2.1-4,3.1
				c-0.6,0.4-1.2,0.9-1.8,1.4c-2-1.5-4-3-5.9-4.6c-1.8-1.5-3.1-3.5-3.6-5.7c-0.1-0.4,0-0.5,0.4-0.6c1.6-0.3,3.2-0.6,4.7-1.1
				c1.9-0.6,3.5-1.9,4.4-3.6c0.9,1.7,2.5,2.9,4.3,3.5C37.4,48.3,39,48.7,40.6,49z"/>
			<path class="st2" d="M38,11.1c0.8,0.8,0.7,2.1-0.1,2.8c-0.8,0.9-1.6,1.7-2.5,2.4l-3.9,3c-1.4-1.1-3-2.3-4.4-3.4
				c-0.7-0.6-1.4-1.3-2-2.1c-0.7-0.8-0.7-1.9,0-2.7c0.5-0.7,1.1-1.3,1.8-1.8c1.8-1.2,3.4-2.8,4.6-4.6c0.1,0.2,0.2,0.3,0.3,0.4
				c1.2,1.5,2.5,2.9,4.1,4C36.6,9.7,37.3,10.3,38,11.1C37.9,11.1,37.9,11.1,38,11.1z"/>
			<path class="st2" d="M34.6,27.8c1.2,1.5,1.6,3.4,1.3,5.3c-0.1,1.1-0.4,2.2-0.9,3.2c-0.5,1.2-1.7,2.1-3,2.2
				c-1.5,0.2-3-0.5-3.7-1.9c-1.2-2.1-1.5-4.7-0.8-7c0.3-0.8,0.7-1.6,1.3-2.3c0.9-1.1,1.8-2.1,2.7-3.2C32.6,25.3,33.5,26.5,34.6,27.8
				z"/>
			<path class="st3" d="M30.4,21.3c0.2,0.3,0.2,0.7-0.1,1l-2.4,3c-0.4,0.4-0.8,0.9-1.1,1.4l-6.4-3.4l-0.3-0.2
				c-1.1-0.6-1.1-0.7-0.7-1.9c0.2-0.7,0.6-1.4,1-2c1-1.3,2.1-2.6,3.2-4c1.6,2,3.8,3.1,5.6,4.6L30.4,21.3z"/>
			<path class="st2" d="M30.5,40.6c-0.1,1.7-0.8,3.2-2.1,4.3c-1.3,1-2.9,1.6-4.5,1.8C22,47.1,20,47.3,18,47.6
				c-1.2,0.2-2.5,0.5-3.7,0.8l-0.5,0.1c-0.4-1.5-1.2-2.9-2.2-4.1c-1.1-1.5-1.3-3.5-0.7-5.3h0.8c2.7,0.3,5.4-0.1,7.9-1.1
				c0.5-0.2,1-0.2,1.5,0c2,0.7,4.1,1.1,6.2,1.2c0.4,0,0.7,0.1,1,0.3C29,39.8,29.7,40.2,30.5,40.6z"/>
			<path class="st1" d="M26.4,6.6c0.1,0.3,0.1,0.5-0.2,0.7c-0.6,0.5-1.2,1-1.7,1.5c-1.2,1.1-2,2.6-2,4.2c-1.3-2.3-3.4-3.2-5.9-3.5
				c0-2.9,2.1-4.5,3.4-6.7c1.8,0.9,3.6,1.7,5.3,2.6C25.7,5.8,26.1,6.2,26.4,6.6z"/>
			<path class="st3" d="M25.3,28.2c0.3,0.2,0.5,0.6,0.3,0.9c-0.5,1.6-0.6,3.4-0.2,5c0.2,1,0.5,2,0.8,3c-0.9-0.2-1.8-0.3-2.7-0.5
				c-1.6-0.3-3.1-1-4.3-2.1c-1.3-1.2-2.2-2.9-2.4-4.7c-0.4-2-0.3-4,0.1-5.9c0-0.2,0.1-0.3,0.1-0.5c0-0.1,0-0.1,0.1-0.2
				c1.4,1.3,2.9,2.3,4.6,3.1l3.2,1.6l0.3,0.2C25.2,28.1,25.3,28.2,25.3,28.2z"/>
			<path class="st2" d="M21.2,14.9c0,0.2-0.1,0.4-0.2,0.6c-0.7,1.1-1.5,2.1-2.3,3.1c-0.3,0.5-0.6,1-0.9,1.6l-0.3-0.1
				c-0.4-0.2-0.9-0.1-1.1,0.2c-0.5,0.8-0.9,1.7-1.1,2.6c-0.2,0.6-0.3,1.2-0.4,1.8l-0.8-0.3c-0.4-0.2-0.8-0.3-1.2-0.3
				c-0.9,0-1.8-0.5-2.3-1.3c-1.1-1.3-1.7-2.8-1.9-4.5c-0.3-2.5-0.3-5.1,0-7.6c2.3,0.6,4.7,0.4,7.2,0.6c1.1,0.1,2.2,0.4,3.2,0.8
				C20.2,12.7,21,13.7,21.2,14.9z"/>
			<path class="st2" d="M18.3,36.3l-0.1,0.2v0c-0.7,0.2-1.5,0.3-2.2,0.4c-1.7,0.3-3.4,0.3-5-0.1c-2.1-0.7-3.9-2-5.2-3.8
				c-1.1-1.4-2.1-3.1-3.1-4.6v-0.1c1.1-0.4,2.4-0.8,3.5-1.3c1.7-0.8,3.5-1.2,5.4-1.2c1,0,1.9,0.3,2.8,0.8c0.2,0.2,0.3,0.4,0.3,0.6
				c0,1.5,0.2,3,0.6,4.4c0.4,1.7,1.3,3.2,2.6,4.4C18,36.2,18.1,36.3,18.3,36.3z"/>
			<path class="st1" d="M9.3,44.6c-2.4,0.2-4.7-0.6-7.2-0.8c0.4-2.1,0.4-4.2,1.4-6C3.9,37.1,4.4,36.5,5,36c0.2-0.1,0.3-0.1,0.5,0
				c1.1,0.8,2.1,1.5,3.1,2.2c0.1,0.2,0.2,0.4,0.2,0.6c-0.3,1.3-0.3,2.6-0.1,3.9C8.9,43.3,9.1,43.9,9.3,44.6z"/>
			<path class="st1" d="M9,24.1c-0.5,0.1-0.9,0.2-1.4,0.4c-0.8,0.2-1.5,0.5-2.2,0.8c-0.3,0.1-0.7,0-1-0.2c-1.1-1-1.9-2.4-2.2-3.9
				c-0.3-1-0.4-2-0.5-3l4.9,0.1C6.9,20.4,7.7,22.4,9,24.1z"/>
		</g>
		<g>
		</g>
	</g>
</g>
</svg>
